<?xml version="1.0" encoding="UTF-8" standalone="no"?>
<!-- Created with Inkscape (http://www.inkscape.org/) -->

<svg
   width="20mm"
   height="20mm"
   viewBox="0 0 20 20"
   version="1.1"
   id="svg135"
   inkscape:version="1.3 (0e150ed6c4, 2023-07-21)"
   sodipodi:docname="bandits.svg"
   xmlns:inkscape="http://www.inkscape.org/namespaces/inkscape"
   xmlns:sodipodi="http://sodipodi.sourceforge.net/DTD/sodipodi-0.dtd"
   xmlns="http://www.w3.org/2000/svg"
   xmlns:svg="http://www.w3.org/2000/svg">
  <sodipodi:namedview
     id="namedview137"
     pagecolor="#ffffff"
     bordercolor="#eeeeee"
     borderopacity="1"
     inkscape:showpageshadow="0"
     inkscape:pageopacity="0"
     inkscape:pagecheckerboard="0"
     inkscape:deskcolor="#505050"
     inkscape:document-units="mm"
     showgrid="false"
     inkscape:zoom="8.0889748"
     inkscape:cx="31.833453"
     inkscape:cy="33.007891"
     inkscape:window-width="1920"
     inkscape:window-height="1015"
     inkscape:window-x="0"
     inkscape:window-y="0"
     inkscape:window-maximized="1"
     inkscape:current-layer="layer1" />
  <defs
     id="defs132" />
  <g
     inkscape:label="Layer 1"
     inkscape:groupmode="layer"
     id="layer1">
    <path
       style="fill:#ff2a2a;stroke:#000000;stroke-width:0.465001;stroke-linecap:round;stroke-linejoin:round;paint-order:stroke fill markers;stop-color:#000000"
       d="M 0.30484726,6.6623507 C 0.8467978,5.5285031 18.897509,4.6760908 19.848345,6.5651995 12.111241,10.560275 8.2484966,9.4551197 0.30484726,6.6623507 Z"
       id="path738"
       sodipodi:nodetypes="ccc" />
    <path
       style="fill:#ff2a2a;stroke:#000000;stroke-width:0.465001;stroke-linecap:round;stroke-linejoin:round;paint-order:stroke fill markers;stop-color:#000000"
       d="m 6.179037,6.6673969 c 2.8850332,0.7973356 5.72057,0.8778819 8.492262,0.033827 C 13.431489,4.9815513 11.792888,-1.3259344 10.659328,1.3512082 10.312645,2.1699767 9.9889393,2.109921 9.5669046,1.3871349 8.0791354,-1.1608638 7.2516975,4.4082137 6.179037,6.6673969 Z"
       id="path890"
       sodipodi:nodetypes="ccssc" />
    <path
       style="fill:none;stroke:#000000;stroke-width:0.465001;stroke-linecap:butt;stroke-linejoin:round;paint-order:stroke fill markers;stop-color:#000000"
       d="m 6.6042626,5.0982248 c 2.2172977,0.977934 5.4512354,1.054474 7.4423564,0.016686"
       id="path892"
       sodipodi:nodetypes="cc" />
    <path
       style="fill:#ff2a2a;stroke:#000000;stroke-width:0.465001;stroke-linecap:round;stroke-linejoin:round;paint-order:stroke fill markers;stop-color:#000000"
       d="m 5.0566241,11.43949 c 3.1203437,1.545031 6.6695109,1.687369 10.0234689,0.206974 0.679395,1.846319 -0.379359,3.072507 -0.823199,4.602 -0.209421,0.721665 -0.791554,1.178038 -1.236016,1.726146 C 9.4708929,16.613833 6.1026526,15.116257 4.4864616,12.317904 3.6023712,11.682926 2.8039908,10.93582 2.3916827,9.6836465 c 0.1021238,1.2888825 0.3511691,2.6237255 -1.094597,3.4284145 1.4503572,0.09381 2.5645868,-0.92271 3.7595384,-1.672571 z"
       id="path1502"
       sodipodi:nodetypes="ccsccccc" />
  </g>
</svg>
