<?xml version="1.0" encoding="UTF-8" standalone="no"?>
<!-- Created with Inkscape (http://www.inkscape.org/) -->

<svg
   width="20mm"
   height="20mm"
   viewBox="0 0 20 20"
   version="1.1"
   id="svg135"
   inkscape:version="1.2.2 (b0a8486541, 2022-12-01)"
   sodipodi:docname="fireplace.svg"
   xmlns:inkscape="http://www.inkscape.org/namespaces/inkscape"
   xmlns:sodipodi="http://sodipodi.sourceforge.net/DTD/sodipodi-0.dtd"
   xmlns="http://www.w3.org/2000/svg"
   xmlns:svg="http://www.w3.org/2000/svg">
  <sodipodi:namedview
     id="namedview137"
     pagecolor="#ffffff"
     bordercolor="#eeeeee"
     borderopacity="1"
     inkscape:showpageshadow="0"
     inkscape:pageopacity="0"
     inkscape:pagecheckerboard="0"
     inkscape:deskcolor="#505050"
     inkscape:document-units="mm"
     showgrid="false"
     inkscape:zoom="10.596562"
     inkscape:cx="37.842462"
     inkscape:cy="38.078388"
     inkscape:window-width="1920"
     inkscape:window-height="1015"
     inkscape:window-x="0"
     inkscape:window-y="0"
     inkscape:window-maximized="1"
     inkscape:current-layer="layer1" />
  <defs
     id="defs132" />
  <g
     inkscape:label="Layer 1"
     inkscape:groupmode="layer"
     id="layer1">
    <path
       style="fill:#c87137;stroke:#000000;stroke-width:0.264583px;stroke-linecap:butt;stroke-linejoin:miter;stroke-opacity:1"
       d="M 2.4271991,14.669416 C 2.2167582,13.359998 3.6639828,11.411399 4.7061024,10.827123 l 13.4635836,4.647549 c -0.261082,1.245739 0.343331,2.456325 -0.941659,3.743651 z"
       id="path4318"
       sodipodi:nodetypes="ccccc" />
    <path
       style="fill:#ff0000;stroke:#000000;stroke-width:0.264583px;stroke-linecap:butt;stroke-linejoin:miter;stroke-opacity:1"
       d="M 9.8228812,14.96015 C 24.042165,10.432248 8.0379635,4.312907 9.5067783,0.94986056 9.29573,5.0882837 0.08986211,8.9646593 9.8228812,14.96015 Z"
       id="path4322"
       sodipodi:nodetypes="ccc" />
    <path
       style="fill:#ff6600;stroke:#000000;stroke-width:0.264583px;stroke-linecap:butt;stroke-linejoin:miter;stroke-opacity:1"
       d="M 10.040818,14.988039 C 18.187543,10.063398 10.634088,7.546094 9.7263123,4.3846784 9.6563806,7.4863961 2.3161875,9.0235463 10.040818,14.988039 Z"
       id="path4324"
       sodipodi:nodetypes="ccc" />
    <path
       style="fill:#ffff00;stroke:#000000;stroke-width:0.264583px;stroke-linecap:butt;stroke-linejoin:miter;stroke-opacity:1"
       d="M 10.028275,14.978423 C 6.870551,9.9674014 9.8083744,9.2410964 9.8861773,7.0899091 10.428423,9.429613 12.823316,12.71858 10.028275,14.978423 Z"
       id="path4326"
       sodipodi:nodetypes="ccc" />
    <path
       style="fill:#aa4400;stroke:#000000;stroke-width:0.264583px;stroke-linecap:butt;stroke-linejoin:miter;stroke-opacity:1"
       d="M 1.3124498,17.006849 17.70883,10.814078 c 0.726238,1.190773 1.942887,2.104167 1.408723,4.007832 L 2.1302153,19.464754 C 1.2320003,18.775285 1.0131871,17.944824 1.3124498,17.006849 Z"
       id="path4320"
       sodipodi:nodetypes="ccccc" />
  </g>
</svg>
