<?xml version="1.0" encoding="UTF-8" standalone="no"?>
<!-- Created with Inkscape (http://www.inkscape.org/) -->

<svg
   width="20mm"
   height="20mm"
   viewBox="0 0 20 20"
   version="1.1"
   id="svg135"
   inkscape:version="1.2.1 (9c6d41e410, 2022-07-14, custom)"
   sodipodi:docname="hand_size.svg"
   xmlns:inkscape="http://www.inkscape.org/namespaces/inkscape"
   xmlns:sodipodi="http://sodipodi.sourceforge.net/DTD/sodipodi-0.dtd"
   xmlns="http://www.w3.org/2000/svg"
   xmlns:svg="http://www.w3.org/2000/svg">
  <sodipodi:namedview
     id="namedview137"
     pagecolor="#ffffff"
     bordercolor="#eeeeee"
     borderopacity="1"
     inkscape:showpageshadow="0"
     inkscape:pageopacity="0"
     inkscape:pagecheckerboard="0"
     inkscape:deskcolor="#505050"
     inkscape:document-units="mm"
     showgrid="false"
     inkscape:zoom="8.9236751"
     inkscape:cx="34.963173"
     inkscape:cy="45.328858"
     inkscape:window-width="1920"
     inkscape:window-height="1015"
     inkscape:window-x="0"
     inkscape:window-y="0"
     inkscape:window-maximized="1"
     inkscape:current-layer="layer1" />
  <defs
     id="defs132" />
  <g
     inkscape:label="Layer 1"
     inkscape:groupmode="layer"
     id="layer1"
     style="display:inline">
    <g
       id="g2067"
       transform="matrix(1.0801764,0,0,1.0646397,-0.97316447,-1.3004779)"
       style="stroke-width:0.46625267;stroke-dasharray:none">
      <path
         style="fill:#ffff00;stroke:#000000;stroke-width:0.46625267;stroke-linecap:round;stroke-linejoin:round;stroke-dasharray:none;paint-order:stroke fill markers;stop-color:#000000"
         d="M 4.8775261,17.049896 C 3.8269215,11.419667 1.1122123,3.7026275 4.6425573,2.5810034 6.2554214,2.2339091 7.1029077,11.265727 7.1029077,11.265727 c 0,0 -0.8138327,-9.5732777 1.3977795,-9.6462066 3.2063028,-0.1057292 1.453984,9.3457306 1.453984,9.3457306 0,0 1.0283578,-8.2142888 2.9979498,-7.967542 2.555357,0.3201302 -0.537425,7.995231 -0.537425,7.995231 0,0 2.142296,-7.2011443 4.228003,-5.3129435 1.140262,1.032286 -2.210305,13.6392545 -5.109056,13.5915995 -2.9705375,-0.04884 -4.1462688,0.392297 -6.6566169,-2.2217 z"
         id="path1749"
         sodipodi:nodetypes="cccscscssc" />
      <path
         style="fill:#ffff00;stroke:#000000;stroke-width:0.46625267;stroke-linecap:round;stroke-linejoin:round;stroke-dasharray:none;paint-order:stroke fill markers;stop-color:#000000"
         d="M 3.9984133,12.915273 C 4.9420554,4.3907934 10.409708,6.3279129 6.382033,15.352701"
         id="path2063"
         sodipodi:nodetypes="cc" />
    </g>
  </g>
</svg>
