<?xml version="1.0" encoding="UTF-8" standalone="no"?>
<!-- Created with Inkscape (http://www.inkscape.org/) -->

<svg
   width="20mm"
   height="20mm"
   viewBox="0 0 20 20"
   version="1.1"
   id="svg135"
   inkscape:version="1.2.2 (b0a8486541, 2022-12-01)"
   sodipodi:docname="ride_train.svg"
   xmlns:inkscape="http://www.inkscape.org/namespaces/inkscape"
   xmlns:sodipodi="http://sodipodi.sourceforge.net/DTD/sodipodi-0.dtd"
   xmlns="http://www.w3.org/2000/svg"
   xmlns:svg="http://www.w3.org/2000/svg">
  <sodipodi:namedview
     id="namedview137"
     pagecolor="#ffffff"
     bordercolor="#eeeeee"
     borderopacity="1"
     inkscape:showpageshadow="0"
     inkscape:pageopacity="0"
     inkscape:pagecheckerboard="0"
     inkscape:deskcolor="#505050"
     inkscape:document-units="mm"
     showgrid="false"
     inkscape:zoom="9.1976752"
     inkscape:cx="25.115042"
     inkscape:cy="33.649808"
     inkscape:window-width="1920"
     inkscape:window-height="1015"
     inkscape:window-x="0"
     inkscape:window-y="0"
     inkscape:window-maximized="1"
     inkscape:current-layer="layer1" />
  <defs
     id="defs132" />
  <g
     inkscape:label="Layer 1"
     inkscape:groupmode="layer"
     id="layer1">
    <path
       style="fill:#999999;stroke:#000000;stroke-width:0.499999;stroke-linecap:round;paint-order:markers stroke fill;stop-color:#000000"
       d="M 16.993918,13.482344 2.8817027,13.406125"
       id="path4445" />
    <path
       style="fill:#4d4d4d;stroke:#000000;stroke-width:0.499999;paint-order:markers stroke fill;stop-color:#000000"
       d="m 18.675393,6.3385629 c 0.966619,1.3489547 0.850841,4.0263651 0.05077,5.5190061 L 3.59334,11.949149 3.54313,6.1842682 Z"
       id="path379"
       sodipodi:nodetypes="ccccc" />
    <path
       style="fill:#4d4d4d;stroke:#000000;stroke-width:0.499999;paint-order:markers stroke fill;stop-color:#000000"
       d="m 5.263758,1.6465367 -0.008,4.355954 L 3.612403,12.066579 0.796628,11.913011 0.988205,1.511105 C 2.41339,0.8113201 3.838574,1.1063401 5.263758,1.6465367 Z"
       id="path381"
       sodipodi:nodetypes="cccccc" />
    <path
       style="fill:#999999;stroke:#000000;stroke-width:0.499999;paint-order:markers stroke fill;stop-color:#000000"
       d="M 17.959414,7.0910686 C 17.134001,7.4578973 16.308589,7.4727742 15.483176,7.0438299 L 16.187907,5.0335353 15.43479,2.9915097 c 0.713433,-0.5205354 1.949215,-0.5333544 2.628735,-0.011367 l -0.834157,2.0442018 z"
       id="path383"
       sodipodi:nodetypes="ccccccc" />
    <ellipse
       style="fill:#999999;stroke:#000000;stroke-width:0.629367;paint-order:markers stroke fill;stop-color:#000000"
       id="path482"
       cx="-16.938248"
       cy="13.55176"
       rx="1.6274794"
       ry="1.5179504"
       transform="scale(-1,1)" />
    <ellipse
       style="fill:#999999;stroke:#000000;stroke-width:0.575944;paint-order:markers stroke fill;stop-color:#000000"
       id="path484"
       cx="-12.495096"
       cy="13.55176"
       rx="1.6532747"
       ry="1.5420094"
       transform="scale(-1,1)" />
    <ellipse
       style="fill:#999999;stroke:#000000;stroke-width:0.575944;paint-order:markers stroke fill;stop-color:#000000"
       id="path484-3"
       cx="-7.6905394"
       cy="13.55176"
       rx="1.6532747"
       ry="1.5420094"
       transform="scale(-1,1)" />
    <ellipse
       style="fill:#999999;stroke:#000000;stroke-width:0.575944;paint-order:markers stroke fill;stop-color:#000000"
       id="path484-6"
       cx="-2.9260783"
       cy="13.55176"
       rx="1.6532747"
       ry="1.5420094"
       transform="scale(-1,1)" />
    <path
       style="fill:#999999;stroke:#000000;stroke-width:0.499999;stroke-linecap:round;paint-order:markers stroke fill;stop-color:#000000"
       d="m 12.188843,6.6875045 c -0.448205,0.6316366 -1.342834,0.7063927 -2.01425,0.09148 0,0 -0.200888,-2.2467908 1.075547,-2.2308924 1.276434,0.015899 0.938703,2.1394124 0.938703,2.1394124 z"
       id="path2079"
       sodipodi:nodetypes="cczc" />
    <path
       style="fill:#4d4d4d;stroke:#000000;stroke-width:0.396875;stroke-linecap:round;stroke-linejoin:round;stroke-dasharray:none;paint-order:stroke fill markers;stop-color:#000000"
       d="m 1.3073613,16.437272 0.0088,2.427758 13.8930357,-0.606939 -1.016791,1.213879 5.212028,-1.820819 -5.212028,-1.820818 1.016791,1.213879 z"
       id="path538"
       sodipodi:nodetypes="cccccccc" />
  </g>
</svg>
