<?xml version="1.0" encoding="UTF-8" standalone="no"?>
<!-- Created with Inkscape (http://www.inkscape.org/) -->

<svg
   width="20mm"
   height="20mm"
   viewBox="0 0 20 20"
   version="1.1"
   id="svg135"
   inkscape:version="1.2.2 (b0a8486541, 2022-12-01)"
   sodipodi:docname="water.svg"
   xmlns:inkscape="http://www.inkscape.org/namespaces/inkscape"
   xmlns:sodipodi="http://sodipodi.sourceforge.net/DTD/sodipodi-0.dtd"
   xmlns="http://www.w3.org/2000/svg"
   xmlns:svg="http://www.w3.org/2000/svg">
  <sodipodi:namedview
     id="namedview137"
     pagecolor="#ffffff"
     bordercolor="#eeeeee"
     borderopacity="1"
     inkscape:showpageshadow="0"
     inkscape:pageopacity="0"
     inkscape:pagecheckerboard="0"
     inkscape:deskcolor="#505050"
     inkscape:document-units="mm"
     showgrid="false"
     inkscape:zoom="22.472545"
     inkscape:cx="33.774546"
     inkscape:cy="23.873576"
     inkscape:window-width="1920"
     inkscape:window-height="1015"
     inkscape:window-x="0"
     inkscape:window-y="0"
     inkscape:window-maximized="1"
     inkscape:current-layer="layer1" />
  <defs
     id="defs132" />
  <g
     inkscape:label="Layer 1"
     inkscape:groupmode="layer"
     id="layer1">
    <path
       style="fill:#0c00c3;fill-opacity:1;stroke:#000000;stroke-width:1.343;stroke-linecap:round;stroke-opacity:0;paint-order:fill markers stroke;stop-color:#000000"
       d="M 3.5530297,7.0359835 C 4.0075617,6.1707148 4.5163906,3.1405418 6.5985233,3.7371149 l 0.541886,0.6561574 -0.3592391,0.098775 0.4077875,0.8492895 z"
       id="path8833"
       sodipodi:nodetypes="cccccc" />
    <path
       style="fill:#0c00c3;fill-opacity:1;stroke:#000000;stroke-width:1.343;stroke-linecap:round;stroke-opacity:0;paint-order:fill markers stroke;stop-color:#000000"
       d="M 2.5839981,5.0585023 17.36502,5.0994869 19.570475,17.056037 0.37524972,16.447357 Z"
       id="path3357"
       sodipodi:nodetypes="ccccc" />
    <path
       style="fill:#5faeef;fill-opacity:1;stroke:none;stroke-width:0.119503;stroke-linecap:round;stroke-linejoin:round;stroke-dasharray:none;stroke-opacity:1;paint-order:stroke markers fill;stop-color:#000000"
       id="path19588"
       d="M 5.6757888,10.400283 C 5.9320704,10.123474 6.5333046,10.329366 6.6803651,10.163875 6.0512134,10.028954 6.7277559,9.1841254 6.8047527,9.1344482 7.4560576,8.4974964 8.220232,8.2232406 8.9254644,8.656652 9.1795709,8.7914256 8.2951699,9.4418381 8.6469031,9.7003981 8.7300356,9.7615235 9.7166117,9.2234356 9.9437943,9.400813 c 1.1671367,1.079781 1.5817797,1.367223 2.7138207,0.975638 0.423409,-0.6804142 0.745903,-0.8887381 0.933807,-0.7778015 0.05285,-0.04699 0.0022,0.4201095 0.630825,0.8688265 C 13.68504,9.8635333 13.687745,9.4329884 13.83328,9.3491187 c 0.281289,-0.1621085 1.591946,1.0413273 1.594041,1.0067093 0.114614,0.10427 0.286325,-0.191762 0.205629,-0.193377 C 15.17208,10.153228 14.382755,9.172182 13.881382,9.1167784 13.31439,9.0541242 13.003046,9.8668815 12.57491,10.095585 11.473051,10.254271 11.351605,9.9452361 10.346064,9.0386282 9.7109295,8.4566576 9.0258382,8.0637102 8.3241003,8.0236345 7.4342462,8.1071862 6.6710995,9.1452536 5.9229359,10.002625 5.772888,10.172993 5.2631869,10.205822 5.2514204,9.8213315 5.0525301,10.356069 5.433336,10.308761 5.3714749,10.415309 c -0.00191,0.214734 0.2707907,0.722446 1.0176964,0.384957 0.1008911,-0.153998 -0.7244084,-0.02961 -0.7133825,-0.399951 z"
       sodipodi:nodetypes="cccccccccscssccccccccc" />
    <path
       id="path10148"
       style="fill:#e4f1fb;fill-opacity:1;stroke-width:0.0160876;paint-order:stroke markers fill"
       d="m 15.942019,11.06425 c -0.246659,-0.141547 -0.715197,0.31439 -0.215168,0.390755 0.520286,0.755189 -0.327432,1.657259 -0.714947,1.547755 -0.568016,0.197248 -1.065159,-0.590225 -1.687888,-0.450922 -0.465864,-0.325825 -0.957535,-0.478634 -1.251274,0.518208 -0.445995,0.608488 -0.842548,-1.085294 -0.733448,-1.821616 -0.417843,-0.625276 -0.604939,1.03101 -1.142437,0.598273 -1.3574932,0.887623 -2.8771712,0.777854 -4.2373477,0.124495 -0.9171437,-0.298601 -1.9894866,-0.0033 -2.6290318,1.463972 0.4242795,0.534088 0.559349,-1.220437 1.0117533,-0.999414 0.4035061,-0.32237 0.8598402,-0.557588 1.2904661,-0.45144 1.2919554,0.690577 2.6596576,0.960535 3.9903523,0.604365 0.4085128,-0.121978 0.8118458,-0.323115 1.1971078,-0.621742 0.155256,1.289061 0.872819,1.877054 1.472956,1.484765 0.403169,-0.403405 1.081256,-1.066222 1.185725,-0.494925 0.951213,0.375018 2.010713,0.579896 2.896698,-0.363909 0.214701,-0.350289 0.01433,-1.070266 0.370231,-0.555424 0.490069,0.198947 0.545106,1.554061 1.024505,1.62685 0.835366,0.126837 -0.510227,-2.184868 -1.03679,-2.133712 -0.206209,0.293627 -0.517502,-0.383232 -0.791463,-0.466334 z m -0.445161,0.267907 c -0.18974,-0.05873 -0.06585,0.292896 0,0 z"
       sodipodi:nodetypes="cccccccccccccccccscccc" />
    <path
       id="path10153"
       style="fill:#1783ff;fill-opacity:1;stroke-width:0.0160876;paint-order:stroke markers fill"
       d="M 6.2615307,3.5789601 C 5.2279728,3.5076312 4.3967713,4.2568416 3.9062326,5.9258867 3.5398867,6.9688922 2.7955697,7.7553049 2.123129,7.8278831 1.829571,8.1672191 3.0117434,8.6324699 3.0786669,7.7160651 4.4482206,6.8048666 3.7279608,5.2142124 4.9643627,4.7414931 4.7906358,4.3157614 6.2628547,3.3709473 6.6657945,3.8431715 7.0942351,4.3193867 7.033412,4.4654041 6.7596828,4.3351394 6.43151,4.5928839 7.4112111,5.1805719 6.736086,4.9895815 6.016847,4.9059117 5.8835926,6.1291771 6.5890472,6.7926733 7.1933726,7.6220532 7.4586212,6.7492063 7.9555041,6.5160869 8.4839208,6.7999965 8.9599789,7.539853 9.5408647,7.3705712 c 0.6066463,4.543e-4 1.2122843,-0.5726939 1.5381503,-1.60563 0.506695,-0.022781 0.951377,0.7740785 1.445097,1.0149414 0.812301,0.5679352 1.748802,0.7065589 2.555622,0.053566 0.41691,-0.856063 1.024365,-1.125417 1.490591,-0.2524543 0.225951,0.2822311 0.89465,1.4529504 0.969576,0.6984952 C 17.035259,6.6932984 16.539701,5.9192812 15.939848,5.7833719 15.293549,5.5233173 14.926834,6.8191792 14.331007,7.0319303 13.731303,7.3462596 13.097089,6.8569289 12.547176,6.3969343 11.927146,6.091198 11.412048,5.2078387 10.822364,4.9220073 10.455715,5.0045596 10.96557,6.5374706 10.325821,6.3126852 9.8604009,7.0704545 9.2430545,7.5095152 8.7492856,6.7373651 8.3025441,6.0561514 7.6300442,5.3668852 7.3498661,6.5655051 7.097496,7.2222801 6.2369232,6.643937 6.3404611,5.7609048 6.5052493,4.8361818 6.8131455,5.340184 7.1179823,5.0764292 6.7290263,4.5952372 6.9922001,4.3770164 7.1220158,4.7314758 7.314562,5.3356297 7.3673421,4.8191639 7.2406962,4.503097 7.1237055,4.2111236 6.8295003,3.618159 6.2615307,3.5789601 Z m 0.932938,1.8181403 c -0.065597,0.4114282 0.3300015,0.474975 0,0 z m 0.2728962,0.064065 c 0.2582209,0.1822565 0.04843,0.6160132 0,0 z"
       sodipodi:nodetypes="scccccccccccccccccccccccccsscccc" />
  </g>
</svg>
