<?xml version="1.0" encoding="UTF-8" standalone="no"?>
<!-- Created with Inkscape (http://www.inkscape.org/) -->

<svg
   width="20mm"
   height="20mm"
   viewBox="0 0 20 20"
   version="1.1"
   id="svg135"
   inkscape:version="1.2.1 (9c6d41e410, 2022-07-14, custom)"
   sodipodi:docname="wood.svg"
   xmlns:inkscape="http://www.inkscape.org/namespaces/inkscape"
   xmlns:sodipodi="http://sodipodi.sourceforge.net/DTD/sodipodi-0.dtd"
   xmlns="http://www.w3.org/2000/svg"
   xmlns:svg="http://www.w3.org/2000/svg">
  <sodipodi:namedview
     id="namedview137"
     pagecolor="#ffffff"
     bordercolor="#eeeeee"
     borderopacity="1"
     inkscape:showpageshadow="0"
     inkscape:pageopacity="0"
     inkscape:pagecheckerboard="0"
     inkscape:deskcolor="#505050"
     inkscape:document-units="mm"
     showgrid="false"
     inkscape:zoom="6.8841973"
     inkscape:cx="64.277646"
     inkscape:cy="38.130807"
     inkscape:window-width="1920"
     inkscape:window-height="1015"
     inkscape:window-x="0"
     inkscape:window-y="0"
     inkscape:window-maximized="1"
     inkscape:current-layer="layer1" />
  <defs
     id="defs132" />
  <g
     inkscape:label="Layer 1"
     inkscape:groupmode="layer"
     id="layer1">
    <path
       style="fill:#9e5a2b;fill-opacity:1;stroke:#000000;stroke-width:0.264583px;stroke-linecap:butt;stroke-linejoin:miter;stroke-opacity:1"
       d="M 1.181571,11.363142 12.781212,1.826585 c 3.784344,-1.97180081 6.420799,1.4762971 5.330483,4.0414102 L 10.494144,17.805095 C 11.24769,8.2273167 4.3206122,9.0652472 1.181571,11.363142 Z"
       id="path380"
       sodipodi:nodetypes="ccccc" />
    <path
       style="fill:#ffccaa;stroke:#000000;stroke-width:0.264583px;stroke-linecap:butt;stroke-linejoin:miter;stroke-opacity:1"
       d="M 1.0992206,15.743657 C -0.34705527,12.624208 0.78159517,10.189904 5.6416732,9.8344456 10.501751,9.4789876 12.754626,14.127712 10.561635,17.564003 8.3686441,21.000294 2.5454965,18.863105 1.0992206,15.743657 Z"
       id="path1033"
       sodipodi:nodetypes="zzzz" />
    <path
       style="fill:none;stroke:#aa4400;stroke-width:0.264583px;stroke-linecap:butt;stroke-linejoin:miter;stroke-opacity:1"
       d="m 6.2456742,11.09697 c 4.5190948,-0.540071 5.9963428,9.069465 -0.4386837,7.103458 -6.6335068,-2.026645 -4.5698636,-7.119612 0.017656,-5.824819 2.1026552,0.593459 4.850208,5.658153 0.7655761,5.075179 -2.9111632,-0.415493 -4.9424948,-4.086302 -1.5307287,-3.799724 4.2086145,0.353511 1.370739,4.89376 -0.4950021,1.350539"
       id="path1930"
       sodipodi:nodetypes="cssssc" />
  </g>
</svg>
