<?xml version="1.0" encoding="UTF-8" standalone="no"?>
<!-- Created with Inkscape (http://www.inkscape.org/) -->

<svg
   width="20mm"
   height="20mm"
   viewBox="0 0 20 20"
   version="1.1"
   id="svg135"
   inkscape:version="1.2.1 (9c6d41e410, 2022-07-14, custom)"
   sodipodi:docname="wood.svg"
   xmlns:inkscape="http://www.inkscape.org/namespaces/inkscape"
   xmlns:sodipodi="http://sodipodi.sourceforge.net/DTD/sodipodi-0.dtd"
   xmlns="http://www.w3.org/2000/svg"
   xmlns:svg="http://www.w3.org/2000/svg">
  <sodipodi:namedview
     id="namedview137"
     pagecolor="#ffffff"
     bordercolor="#eeeeee"
     borderopacity="1"
     inkscape:showpageshadow="0"
     inkscape:pageopacity="0"
     inkscape:pagecheckerboard="0"
     inkscape:deskcolor="#505050"
     inkscape:document-units="mm"
     showgrid="false"
     inkscape:zoom="7.9512706"
     inkscape:cx="48.482817"
     inkscape:cy="41.69145"
     inkscape:window-width="1920"
     inkscape:window-height="1015"
     inkscape:window-x="0"
     inkscape:window-y="0"
     inkscape:window-maximized="1"
     inkscape:current-layer="layer1" />
  <defs
     id="defs132" />
  <g
     inkscape:label="Layer 1"
     inkscape:groupmode="layer"
     id="layer1">
    <path
       style="fill:#9e5a2b;fill-opacity:1;stroke:#000000;stroke-width:0.264583px;stroke-linecap:butt;stroke-linejoin:miter;stroke-opacity:1"
       d="M 1.645065,10.349809 12.100927,0.9694574 c 3.784344,-1.9718008 8.659416,2.7813247 7.082336,7.1641943 L 7.1665401,19.318085 C 9.701034,13.083799 5.8610303,10.073695 1.645065,10.349809 Z"
       id="path380"
       sodipodi:nodetypes="ccccc" />
    <path
       style="fill:#ffccaa;stroke:#000000;stroke-width:0.264583px;stroke-linecap:butt;stroke-linejoin:miter;stroke-opacity:1"
       d="M 0.91662066,16.3749 C -0.20341359,14.227522 0.09566055,10.290342 2.9196398,9.9348837 5.743619,9.5794253 10.087883,15.304993 8.1117686,18.373392 6.1356538,21.441791 2.0366549,18.522278 0.91662066,16.3749 Z"
       id="path1033"
       sodipodi:nodetypes="zzzz" />
    <path
       style="fill:none;stroke:#aa4400;stroke-width:0.264583px;stroke-linecap:butt;stroke-linejoin:miter;stroke-opacity:1"
       d="m 5.0021753,11.906939 c 1.9919286,1.152846 3.1307531,8.39054 -1.1119091,5.920063 -4.46281368,-2.59867 -1.8004151,-6.15982 0.2538754,-5.279179 2.0080664,0.860826 2.4403525,5.564443 0.191886,4.198974 -2.5134798,-1.526409 -1.3881511,-2.873919 -0.5483808,-2.89217 0.8397703,-0.01825 0.8192153,1.067616 0.8192153,1.067616"
       id="path1930"
       sodipodi:nodetypes="cssssc" />
  </g>
</svg>
