<?xml version="1.0" encoding="UTF-8" standalone="no"?>
<!-- Created with Inkscape (http://www.inkscape.org/) -->

<svg
   width="45mm"
   height="45mm"
   viewBox="0 0 45 45"
   version="1.1"
   id="svg1"
   inkscape:version="1.3 (0e150ed6c4, 2023-07-21)"
   sodipodi:docname="bandit_Camp.svg"
   inkscape:export-filename="../setup_pngs/bandit_Camp.png"
   inkscape:export-xdpi="150"
   inkscape:export-ydpi="150"
   xmlns:inkscape="http://www.inkscape.org/namespaces/inkscape"
   xmlns:sodipodi="http://sodipodi.sourceforge.net/DTD/sodipodi-0.dtd"
   xmlns:xlink="http://www.w3.org/1999/xlink"
   xmlns="http://www.w3.org/2000/svg"
   xmlns:svg="http://www.w3.org/2000/svg">
  <sodipodi:namedview
     id="namedview1"
     pagecolor="#505050"
     bordercolor="#eeeeee"
     borderopacity="1"
     inkscape:showpageshadow="0"
     inkscape:pageopacity="0"
     inkscape:pagecheckerboard="0"
     inkscape:deskcolor="#d1d1d1"
     inkscape:document-units="mm"
     inkscape:zoom="0.73406285"
     inkscape:cx="-41.549576"
     inkscape:cy="390.9747"
     inkscape:window-width="1920"
     inkscape:window-height="1015"
     inkscape:window-x="0"
     inkscape:window-y="0"
     inkscape:window-maximized="1"
     inkscape:current-layer="layer1" />
  <defs
     id="defs1" />
  <g
     inkscape:label="Layer 1"
     inkscape:groupmode="layer"
     id="layer1"
     transform="translate(-115.8875,-105.03958)">
    <g
       transform="translate(115.8875,105.03958)"
       id="g44">
      <image
         x="0"
         y="0"
         width="45"
         height="45"
         xlink:href="../../tiles/bandit_camp.svg"
         id="image38" />
      <path
         id="rect38"
         style="opacity:0.3;fill:#ffffff;stroke:#000000;stroke-width:0.5"
         d="m 13.5,31 h 18 c 1.108,0 2,0.892 2,2 v 8 c 0,1.108 -0.892,2 -2,2 h -18 c -1.108,0 -2,-0.892 -2,-2 v -8 c 0,-1.108 0.892,-2 2,-2 z" />
      <g
         transform="rotate(30,17.5,37)"
         id="g39">
        <path
           id="rect39"
           style="fill:#ffffff;stroke:#000000;stroke-width:0.5;paint-order:stroke"
           d="m 15.5,32 h 4 c 0.554,0 1,0.446 1,1 v 8 c 0,0.554 -0.446,1 -1,1 h -4 c -0.554,0 -1,-0.446 -1,-1 v -8 c 0,-0.554 0.446,-1 1,-1 z" />
      </g>
      <path
         d="m 19.826172,33.316406 -0.134766,0.648438 h 0.419922 v 0.291015 H 19.630859 L 19.470703,35 h -0.304687 l 0.15625,-0.744141 h -0.59961 L 18.566406,35 h -0.298828 l 0.154297,-0.744141 h -0.302734 v -0.291015 h 0.367187 l 0.136719,-0.648438 H 18.21875 v -0.289062 h 0.464844 l 0.164062,-0.751953 h 0.298828 l -0.160156,0.751953 h 0.599609 L 19.75,32.275391 h 0.304687 l -0.164062,0.751953 h 0.320312 v 0.289062 z m -0.898438,0 -0.140625,0.648438 h 0.603516 l 0.136719,-0.648438 z M 20.527344,35 v -0.408203 h 0.68164 v -1.876953 l -0.660156,0.412109 v -0.431641 l 0.689453,-0.447265 h 0.519531 v 2.34375 h 0.63086 V 35 Z"
         id="text39"
         style="font-weight:bold;font-size:4px;font-family:Arial;text-anchor:end;fill:#ff0000;stroke:#ffffff;stroke-width:0.6;paint-order:stroke"
         aria-label="#1" />
      <image
         x="22.5"
         y="32"
         width="10"
         height="10"
         xlink:href="../../jobs/gold.svg"
         id="image39" />
      <path
         d="m 29.328125,33.888672 v 0.796875 h -0.441406 v -0.796875 h -0.779297 v -0.4375 h 0.779297 v -0.796875 h 0.441406 v 0.796875 h 0.785156 v 0.4375 z m 3.027344,0.210937 q 0,0.439453 -0.246094,0.689453 -0.246094,0.25 -0.679688,0.25 -0.486328,0 -0.748046,-0.339843 -0.259766,-0.341797 -0.259766,-1.011719 0,-0.736328 0.263672,-1.107422 0.265625,-0.373047 0.757812,-0.373047 0.34961,0 0.550782,0.154297 0.203125,0.154297 0.287109,0.478516 l -0.517578,0.07227 q -0.07422,-0.271484 -0.332031,-0.271484 -0.220704,0 -0.347657,0.220703 -0.125,0.220703 -0.125,0.669922 0.08789,-0.146484 0.244141,-0.224609 0.15625,-0.07813 0.353516,-0.07813 0.36914,0 0.583984,0.234375 0.214844,0.234375 0.214844,0.636718 z m -0.550782,0.01563 q 0,-0.234375 -0.109375,-0.357422 -0.107421,-0.125 -0.296875,-0.125 -0.18164,0 -0.291015,0.117188 -0.109375,0.115234 -0.109375,0.306641 0,0.240234 0.113281,0.398437 0.115234,0.15625 0.300781,0.15625 0.185547,0 0.289063,-0.130859 0.103515,-0.132813 0.103515,-0.365235 z"
         id="text40"
         style="font-weight:bold;font-size:4px;font-family:Arial;text-anchor:end;fill:#008000;stroke:#ffffff;stroke-width:0.6;paint-order:stroke"
         aria-label="+6" />
      <image
         x="32"
         y="15"
         width="10"
         height="10"
         xlink:href="../../jobs/bandits.svg"
         id="image40" />
      <path
         d="m 38.626587,20.511475 q 0,0.710937 -0.444336,1.133056 -0.441162,0.418946 -1.212402,0.418946 -0.672852,0 -1.079102,-0.301514 -0.403076,-0.304688 -0.498291,-0.879151 l 0.891846,-0.073 q 0.06982,0.285645 0.247558,0.415772 0.177735,0.130127 0.44751,0.130127 0.333252,0 0.530029,-0.212647 0.199952,-0.212646 0.199952,-0.612548 0,-0.352295 -0.187256,-0.561768 -0.187256,-0.212646 -0.523682,-0.212646 -0.371338,0 -0.606201,0.288818 h -0.869629 l 0.155518,-2.516846 h 2.688232 v 0.66333 h -1.878906 l -0.073,1.129883 q 0.32373,-0.285644 0.809326,-0.285644 0.637939,0 1.018799,0.396728 0.384033,0.396729 0.384033,1.079102 z"
         id="text41"
         style="font-weight:bold;font-size:6.5px;font-family:Arial;text-anchor:middle;fill:#ffffff;stroke:#ff0000;stroke-width:0.5;paint-order:stroke"
         aria-label="5" />
      <image
         x="3"
         y="15"
         width="10"
         height="10"
         xlink:href="../../jobs/bandits.svg"
         id="image41" />
      <path
         d="m 9.5726318,20.536865 q 0,0.714112 -0.3999023,1.120362 -0.3999024,0.40625 -1.1044922,0.40625 -0.7902832,0 -1.2155762,-0.552247 -0.4221191,-0.555419 -0.4221191,-1.644043 0,-1.196533 0.4284668,-1.79956 0.4316406,-0.606201 1.2314453,-0.606201 0.5681152,0 0.8950195,0.250732 0.3300782,0.250733 0.4665528,0.777588 l -0.8410645,0.117432 q -0.1206055,-0.441162 -0.5395508,-0.441162 -0.3586425,0 -0.5649414,0.358642 -0.203125,0.358643 -0.203125,1.088623 0.1428223,-0.238037 0.3967285,-0.36499 0.2539063,-0.126953 0.5744629,-0.126953 0.5998535,0 0.9489746,0.380859 0.3491211,0.38086 0.3491211,1.034668 z m -0.8950195,0.02539 q 0,-0.38086 -0.1777344,-0.580811 -0.1745605,-0.203125 -0.4824218,-0.203125 -0.2951661,0 -0.4729004,0.19043 -0.1777344,0.187256 -0.1777344,0.498291 0,0.390381 0.184082,0.647461 0.1872559,0.253906 0.4887696,0.253906 0.3015136,0 0.4697265,-0.212646 0.1682129,-0.215821 0.1682129,-0.593506 z"
         id="text42"
         style="font-weight:bold;font-size:6.5px;font-family:Arial;text-anchor:middle;fill:#ffffff;stroke:#ff0000;stroke-width:0.5;paint-order:stroke"
         aria-label="6" />
      <image
         x="10"
         y="3"
         width="10"
         height="10"
         xlink:href="../../jobs/bandits.svg"
         id="image42" />
      <path
         d="m 16.607544,8.7399902 q 0,0.628418 -0.415772,0.9775391 -0.415771,0.3459477 -1.187011,0.3459477 -0.764893,0 -1.187012,-0.3459477 -0.418945,-0.3459473 -0.418945,-0.9711914 0,-0.4284668 0.247558,-0.720459 0.247559,-0.295166 0.66333,-0.3649902 V 7.6481934 Q 13.947876,7.5688477 13.725708,7.2895508 13.50354,7.0102539 13.50354,6.6452637 q 0,-0.5490723 0.387207,-0.8664551 0.390381,-0.3173828 1.101318,-0.3173828 0.726807,0 1.114014,0.3110351 0.390381,0.3078614 0.390381,0.8791504 0,0.3649903 -0.222168,0.6411133 -0.218994,0.2761231 -0.590332,0.3491211 v 0.012695 q 0.431641,0.069824 0.676025,0.3554688 0.247559,0.2824707 0.247559,0.7299807 z m -1.02832,-2.0407715 q 0,-0.3173828 -0.145996,-0.4633789 -0.145997,-0.1491699 -0.441163,-0.1491699 -0.577636,0 -0.577636,0.6125488 0,0.6411133 0.583984,0.6411133 0.291992,0 0.434815,-0.1491699 0.145996,-0.1491699 0.145996,-0.4919434 z m 0.104736,1.9677735 q 0,-0.701416 -0.698242,-0.701416 -0.323731,0 -0.498291,0.184082 -0.171387,0.184082 -0.171387,0.5300293 0,0.3935547 0.171387,0.5744629 0.171386,0.1809082 0.523681,0.1809082 0.345948,0 0.507813,-0.1809082 0.165039,-0.1809082 0.165039,-0.5871582 z"
         id="text43"
         style="font-weight:bold;font-size:6.5px;font-family:Arial;text-anchor:middle;fill:#ffffff;stroke:#ff0000;stroke-width:0.5;paint-order:stroke"
         aria-label="8" />
      <image
         x="25"
         y="3"
         width="10"
         height="10"
         xlink:href="../../jobs/bandits.svg"
         id="image43" />
      <path
         d="M 26.973755,10 V 9.3366699 h 1.107666 V 6.2866211 l -1.072754,0.6696777 v -0.701416 l 1.120361,-0.7268066 h 0.844239 v 3.8085937 h 1.025146 V 10 Z m 3.256348,0 V 9.3366699 h 1.107666 V 6.2866211 l -1.072754,0.6696777 v -0.701416 l 1.120361,-0.7268066 h 0.844238 v 3.8085937 h 1.025147 V 10 Z"
         id="text44"
         style="font-weight:bold;font-size:6.5px;font-family:Arial;text-anchor:middle;fill:#ffffff;stroke:#ff0000;stroke-width:0.5;paint-order:stroke"
         aria-label="11" />
    </g>
  </g>
</svg>
