<?xml version="1.0" encoding="UTF-8" standalone="no"?>
<!-- Created with Inkscape (http://www.inkscape.org/) -->

<svg
   width="232.189mm"
   height="116.533mm"
   viewBox="0 0 232.18899 116.533"
   version="1.1"
   id="svg2893"
   inkscape:version="1.2.2 (b0a8486541, 2022-12-01)"
   sodipodi:docname="player_setup.svg"
   inkscape:export-filename="../setup_pngs/player_setup.png"
   inkscape:export-xdpi="140"
   inkscape:export-ydpi="140"
   xmlns:inkscape="http://www.inkscape.org/namespaces/inkscape"
   xmlns:sodipodi="http://sodipodi.sourceforge.net/DTD/sodipodi-0.dtd"
   xmlns:xlink="http://www.w3.org/1999/xlink"
   xmlns="http://www.w3.org/2000/svg"
   xmlns:svg="http://www.w3.org/2000/svg">
  <sodipodi:namedview
     id="namedview2895"
     pagecolor="#ffffff"
     bordercolor="#eeeeee"
     borderopacity="1"
     inkscape:showpageshadow="0"
     inkscape:pageopacity="0"
     inkscape:pagecheckerboard="0"
     inkscape:deskcolor="#505050"
     inkscape:document-units="mm"
     showgrid="false"
     inkscape:zoom="1.275135"
     inkscape:cx="354.86439"
     inkscape:cy="288.20478"
     inkscape:window-width="1920"
     inkscape:window-height="1015"
     inkscape:window-x="0"
     inkscape:window-y="0"
     inkscape:window-maximized="1"
     inkscape:current-layer="layer1" />
  <defs
     id="defs2890" />
  <g
     inkscape:label="Layer 1"
     inkscape:groupmode="layer"
     id="layer1"
     transform="translate(-2.504376,-8.5871339)">
    <g
       transform="translate(69.195149,31.283812)"
       id="g7280">
      <rect
         x="0"
         y="0"
         width="100"
         height="90"
         fill="#70501f"
         stroke="#ffffff"
         stroke-width="1"
         rx="2"
         ry="2"
         id="rect7210" />
      <rect
         x="0"
         y="0"
         width="100"
         height="90"
         fill="#ffffff"
         stroke="none"
         stroke-width="0"
         opacity="0.5"
         rx="2"
         ry="2"
         id="rect7212" />
      <rect
         x="4"
         y="9"
         width="92"
         height="77"
         fill="#ffffff"
         stroke="none"
         stroke-width="0"
         opacity="0.4"
         id="rect7214" />
      <text
         font-family="Arial"
         font-size="5px"
         x="4"
         y="7"
         fill="#000000"
         stroke="#ffffff"
         stroke-width="0.8"
         font-weight="bold"
         style="paint-order:stroke"
         id="text7216">Sam Boater</text>
      <image
         x="4"
         y="9"
         width="92"
         height="23"
         xlink:href="../../characters/sam%20boater.png"
         id="image7218" />
      <text
         font-family="Arial"
         font-size="4px"
         x="7"
         y="50"
         text-anchor="middle"
         transform="rotate(-90,7,50)"
         fill="#000000"
         stroke="#ffffff"
         stroke-width="0.5"
         style="paint-order:stroke"
         id="text7220">Draw</text>
      <text
         font-family="Arial"
         font-size="4px"
         x="93"
         y="50"
         text-anchor="middle"
         transform="rotate(90,93,50)"
         fill="#000000"
         stroke="#ffffff"
         stroke-width="0.5"
         style="paint-order:stroke"
         id="text7222">Discard</text>
      <rect
         x="8"
         y="73"
         width="22"
         height="12"
         fill="#ffffff"
         stroke="#000000"
         stroke-width="0.5"
         opacity="0.3"
         rx="2"
         ry="2"
         id="rect7224" />
      <g
         transform="rotate(30,14,79)"
         id="g7228">
        <rect
           x="11"
           y="74"
           width="6"
           height="10"
           fill="#ffffff"
           stroke="#000000"
           stroke-width="0.5"
           style="paint-order:stroke"
           rx="1"
           ry="1"
           id="rect7226" />
      </g>
      <text
         font-family="Arial"
         font-size="4px"
         x="19"
         y="77"
         fill="#008000"
         stroke="#ffffff"
         stroke-width="0.6"
         style="paint-order:stroke"
         font-weight="bold"
         text-anchor="end"
         id="text7230">+1</text>
      <g
         transform="rotate(30,24,79)"
         id="g7234">
        <rect
           x="21"
           y="74"
           width="6"
           height="10"
           fill="#ffffff"
           stroke="#000000"
           stroke-width="0.5"
           style="paint-order:stroke"
           rx="1"
           ry="1"
           id="rect7232" />
      </g>
      <text
         font-family="Arial"
         font-size="4px"
         x="29"
         y="77"
         fill="#ff0000"
         stroke="#ffffff"
         stroke-width="0.6"
         style="paint-order:stroke"
         font-weight="bold"
         text-anchor="end"
         id="text7236">#1</text>
      <rect
         x="8"
         y="60"
         width="22"
         height="12"
         fill="#ffffff"
         stroke="#000000"
         stroke-width="0.5"
         opacity="0.3"
         rx="2"
         ry="2"
         id="rect7238" />
      <image
         x="9"
         y="61"
         width="10"
         height="10"
         xlink:href="../../jobs/water.svg"
         id="image7240" />
      <text
         font-family="Arial"
         font-size="4px"
         x="19"
         y="64"
         fill="#0000ff"
         stroke="#ffffff"
         stroke-width="0.6"
         style="paint-order:stroke"
         font-weight="bold"
         text-anchor="end"
         id="text7242">?</text>
      <g
         transform="rotate(30,24,66)"
         id="g7246">
        <rect
           x="21"
           y="61"
           width="6"
           height="10"
           fill="#222222"
           stroke="#000000"
           stroke-width="0.5"
           style="paint-order:stroke"
           rx="1"
           ry="1"
           id="rect7244" />
      </g>
      <text
         font-family="Arial"
         font-size="6px"
         x="21"
         y="70"
         fill="#ff0000"
         stroke="#ffffff"
         stroke-width="0.5"
         style="paint-order:stroke"
         font-weight="bold"
         text-anchor="middle"
         id="text7248" />
      <text
         font-family="Arial"
         font-size="4px"
         x="29"
         y="64"
         fill="#ff0000"
         stroke="#ffffff"
         stroke-width="0.6"
         style="paint-order:stroke"
         font-weight="bold"
         text-anchor="end"
         id="text7250">#x</text>
      <rect
         x="8"
         y="47"
         width="22"
         height="12"
         fill="#ffffff"
         stroke="#000000"
         stroke-width="0.5"
         opacity="0.3"
         rx="2"
         ry="2"
         id="rect7252" />
      <image
         x="9"
         y="48"
         width="10"
         height="10"
         xlink:href="../../jobs/any.svg"
         id="image7254" />
      <text
         font-family="Arial"
         font-size="4px"
         x="19"
         y="51"
         fill="#ff0000"
         stroke="#ffffff"
         stroke-width="0.6"
         style="paint-order:stroke"
         font-weight="bold"
         text-anchor="end"
         id="text7256">-1</text>
      <image
         x="19"
         y="48"
         width="10"
         height="10"
         xlink:href="../../jobs/sail.svg"
         id="image7258" />
      <text
         font-family="Arial"
         font-size="4px"
         x="29"
         y="51"
         fill="#0000ff"
         stroke="#ffffff"
         stroke-width="0.6"
         style="paint-order:stroke"
         font-weight="bold"
         text-anchor="end"
         id="text7260">1</text>
      <image
         x="75"
         y="2"
         width="10"
         height="10"
         xlink:href="../../jobs/difficulty.svg"
         id="image7262" />
      <text
         font-family="Arial"
         font-size="5px"
         x="80"
         y="6"
         fill="#ff0000"
         stroke="#ffffff"
         stroke-width="0.5"
         style="paint-order:stroke"
         font-weight="bold"
         id="text7264">1</text>
      <image
         x="85"
         y="2"
         width="10"
         height="10"
         xlink:href="../../jobs/hand_size.svg"
         id="image7266" />
      <text
         font-family="Arial"
         font-size="5px"
         x="90"
         y="6"
         fill="#0000ff"
         stroke="#ffffff"
         stroke-width="0.5"
         style="paint-order:stroke"
         font-weight="bold"
         id="text7268">6</text>
      <text
         font-family="Arial"
         font-size="4px"
         x="50"
         y="54"
         font-weight="bold"
         id="text7270">Day Phase</text>
      <text
         x="50"
         y="60"
         font-family="Arial"
         font-size="4px"
         id="text7272">Untap this card</text>
      <text
         x="50"
         y="66"
         font-family="Arial"
         font-size="4px"
         id="text7274">Draw to 6 Cards</text>
      <text
         x="50"
         y="72"
         font-family="Arial"
         font-size="4px"
         id="text7276">Play Cards / Trade</text>
      <text
         x="50"
         y="78"
         font-family="Arial"
         font-size="4px"
         id="text7278">May discard Item Cards</text>
    </g>
    <rect
       style="fill:#f2f2f2;stroke:#ff0000;stroke-width:1.5;stroke-linecap:round;stroke-linejoin:round;stroke-dasharray:4.5, 4.5;stroke-dashoffset:0;paint-order:stroke fill markers;stop-color:#000000"
       id="rect6537"
       width="55.238224"
       height="76.329391"
       x="172.60078"
       y="36.702404"
       rx="3"
       ry="3" />
    <path
       style="fill:#00ff00;stroke:#000000;stroke-width:1.5;stroke-linecap:round;stroke-linejoin:round;stroke-dasharray:none;stroke-dashoffset:0;paint-order:stroke fill markers;stop-color:#000000"
       id="path8597"
       sodipodi:type="arc"
       sodipodi:cx="69.577721"
       sodipodi:cy="26.301224"
       sodipodi:rx="3.2226193"
       sodipodi:ry="3.1381447"
       sodipodi:start="0"
       sodipodi:end="6.2783333"
       sodipodi:open="true"
       sodipodi:arc-type="arc"
       d="m 72.80034,26.301224 a 3.2226193,3.1381447 0 0 1 -3.21871,3.138142 3.2226193,3.1381447 0 0 1 -3.226519,-3.130529 3.2226193,3.1381447 0 0 1 3.210883,-3.145737 3.2226193,3.1381447 0 0 1 3.234308,3.122898" />
    <path
       style="fill:#00ff00;stroke:#000000;stroke-width:1.5;stroke-linecap:round;stroke-linejoin:round;stroke-dasharray:none;stroke-dashoffset:0;paint-order:stroke fill markers;stop-color:#000000"
       id="path8597-3"
       sodipodi:type="arc"
       sodipodi:cx="75.068764"
       sodipodi:cy="24.986254"
       sodipodi:rx="3.2226193"
       sodipodi:ry="3.1381447"
       sodipodi:start="0"
       sodipodi:end="6.2783333"
       sodipodi:open="true"
       sodipodi:arc-type="arc"
       d="m 78.291383,24.986254 a 3.2226193,3.1381447 0 0 1 -3.21871,3.138142 3.2226193,3.1381447 0 0 1 -3.226519,-3.130529 3.2226193,3.1381447 0 0 1 3.210883,-3.145737 3.2226193,3.1381447 0 0 1 3.234308,3.122897" />
    <path
       style="fill:#ffff00;stroke:#000000;stroke-width:1.5;stroke-linecap:round;stroke-linejoin:round;stroke-dasharray:none;stroke-dashoffset:0;paint-order:stroke fill markers;stop-color:#000000"
       id="path8597-6"
       sodipodi:type="arc"
       sodipodi:cx="87.726074"
       sodipodi:cy="19.212748"
       sodipodi:rx="3.2226193"
       sodipodi:ry="3.1381447"
       sodipodi:start="0"
       sodipodi:end="6.2783333"
       sodipodi:open="true"
       sodipodi:arc-type="arc"
       d="m 90.948694,19.212748 a 3.2226193,3.1381447 0 0 1 -3.218711,3.138142 3.2226193,3.1381447 0 0 1 -3.226519,-3.130529 3.2226193,3.1381447 0 0 1 3.210883,-3.145737 3.2226193,3.1381447 0 0 1 3.234309,3.122897" />
    <path
       style="fill:#999999;stroke:#000000;stroke-width:1.5;stroke-linecap:round;stroke-linejoin:round;stroke-dasharray:none;stroke-dashoffset:0;paint-order:stroke fill markers;stop-color:#000000"
       id="path8597-7"
       sodipodi:type="arc"
       sodipodi:cx="73.514359"
       sodipodi:cy="16.325993"
       sodipodi:rx="3.2226193"
       sodipodi:ry="3.1381447"
       sodipodi:start="0"
       sodipodi:end="6.2783333"
       sodipodi:open="true"
       sodipodi:arc-type="arc"
       d="m 76.736978,16.325993 a 3.2226193,3.1381447 0 0 1 -3.21871,3.138142 3.2226193,3.1381447 0 0 1 -3.226519,-3.130529 3.2226193,3.1381447 0 0 1 3.210882,-3.145737 3.2226193,3.1381447 0 0 1 3.234309,3.122897" />
    <path
       style="fill:#00ff00;stroke:#000000;stroke-width:1.5;stroke-linecap:round;stroke-linejoin:round;stroke-dasharray:none;stroke-dashoffset:0;paint-order:stroke fill markers;stop-color:#000000"
       id="path8597-5"
       sodipodi:type="arc"
       sodipodi:cx="83.284912"
       sodipodi:cy="25.874487"
       sodipodi:rx="3.2226193"
       sodipodi:ry="3.1381447"
       sodipodi:start="0"
       sodipodi:end="6.2783333"
       sodipodi:open="true"
       sodipodi:arc-type="arc"
       d="m 86.507531,25.874487 a 3.2226193,3.1381447 0 0 1 -3.21871,3.138142 3.2226193,3.1381447 0 0 1 -3.226519,-3.130529 3.2226193,3.1381447 0 0 1 3.210883,-3.145737 3.2226193,3.1381447 0 0 1 3.234308,3.122898" />
    <path
       style="fill:#aa4400;stroke:#000000;stroke-width:1.5;stroke-linecap:round;stroke-linejoin:round;stroke-dasharray:none;stroke-dashoffset:0;paint-order:stroke fill markers;stop-color:#000000"
       id="path8597-35"
       sodipodi:type="arc"
       sodipodi:cx="93.277519"
       sodipodi:cy="26.540661"
       sodipodi:rx="3.2226193"
       sodipodi:ry="3.1381447"
       sodipodi:start="0"
       sodipodi:end="6.2783333"
       sodipodi:open="true"
       sodipodi:arc-type="arc"
       d="m 96.500139,26.540661 a 3.2226193,3.1381447 0 0 1 -3.218711,3.138142 3.2226193,3.1381447 0 0 1 -3.226519,-3.130529 3.2226193,3.1381447 0 0 1 3.210883,-3.145737 3.2226193,3.1381447 0 0 1 3.234309,3.122898" />
    <g
       id="g7996"
       transform="matrix(0,-5.9655474,5.9655474,0,-105.90479,939.44009)">
      <rect
         x="19.269876"
         y="-150.54523"
         width="9.2168074"
         height="12.508524"
         fill="#f7c9b4"
         stroke="none"
         stroke-width="0"
         id="rect9820-6-4"
         style="stroke:#000000;stroke-width:0.148127;stroke-dasharray:none"
         ry="0.81705862"
         rx="0.58100283"
         transform="rotate(90)" />
      <rect
         x="19.749695"
         y="-150.94888"
         width="9.2168074"
         height="12.508524"
         fill="#f7c9b4"
         stroke="none"
         stroke-width="0"
         id="rect9820-6-5"
         style="stroke:#000000;stroke-width:0.148127;stroke-dasharray:none"
         ry="0.81705862"
         rx="0.58100283"
         transform="rotate(90)" />
      <rect
         x="20.220486"
         y="-151.33499"
         width="9.2168074"
         height="12.508524"
         fill="#f7c9b4"
         stroke="none"
         stroke-width="0"
         id="rect9820-6-7"
         style="stroke:#000000;stroke-width:0.148127;stroke-dasharray:none"
         ry="0.81705862"
         rx="0.58100283"
         transform="rotate(90)" />
      <rect
         x="20.682117"
         y="-151.79694"
         width="9.2168074"
         height="12.508524"
         fill="#f7c9b4"
         stroke="none"
         stroke-width="0"
         id="rect9820-6"
         style="stroke:#000000;stroke-width:0.148127;stroke-dasharray:none"
         ry="0.81705862"
         rx="0.58100283"
         transform="rotate(90)" />
      <rect
         x="21.998802"
         y="-150.48026"
         width="6.5834336"
         height="9.8751507"
         fill="none"
         stroke="#000000"
         stroke-width="0.164586"
         id="rect9822-7"
         transform="rotate(90)" />
      <path
         style="fill:#000000;stroke-width:0.34091"
         d="m 142.24865,25.742689 c 0.39923,-0.296653 0.90771,-0.400355 1.30818,-0.689723 0.1377,-0.379178 -0.32487,0.02404 -0.48174,0.08234 -0.14625,0.07454 -0.47992,0.30245 -0.50955,0.265334 0.33357,-0.356367 0.83155,-0.468789 1.22684,-0.727806 0.30521,-0.34012 0.31681,-0.82318 0.42969,-1.244089 0.0591,-0.353691 0.073,-0.713444 0.065,-1.071472 0.33768,0.04232 0.25923,0.449412 0.30741,0.692287 0.14593,0.413485 0.3486,0.811201 0.56496,1.195697 0.28915,0.314077 0.66647,-0.150464 0.98413,-0.20262 0.0984,-0.03143 0.46526,-0.08518 0.18478,0.0079 -0.24798,0.122493 -0.75608,0.210472 -0.82007,0.399834 0.95783,0.526884 1.543,1.727586 1.23409,2.798219 0.0936,0.205072 -0.37835,0.421427 -0.15917,0.09858 0.13985,-0.182367 0.15827,-0.668966 0.1302,-0.715909 0.0238,0.687831 -0.5573,1.306001 -1.23694,1.361 -0.9042,0.08719 -1.72054,-0.620035 -1.97385,-1.455231 -0.12555,-0.389951 -0.16374,-0.810874 -0.0707,-1.211294 0.0278,-0.255028 -0.44953,0.100957 -0.091,-3.03e-4 -0.18689,0.260922 -0.64548,0.208753 -0.82868,0.505485 -0.10584,0.3965 0.30461,0.715964 0.38598,1.091678 0.17058,0.354742 0.31738,0.73889 0.5823,1.033273 0.33733,0.195222 0.70295,-0.167681 1.04552,6.6e-4 -0.3368,0.11817 -0.69737,0.342878 -1.06255,0.199759 -0.32511,-0.202626 -0.40491,-0.611995 -0.59952,-0.918334 -0.21433,-0.466986 -0.47983,-0.918724 -0.62432,-1.412605 l 6e-4,-0.04172 0.009,-0.04102 z m 0.85077,-0.363612 c 0.0659,-0.02247 -0.0626,-0.02839 0,0 z m 0.52341,0.607245 c 0.16832,-0.423715 0.45075,-0.82598 0.88694,-1.001678 0.54918,-0.250358 1.25049,-0.104015 1.62618,0.377211 0.27449,0.305405 0.45013,0.687614 0.55753,1.081 -0.1346,-0.907077 -0.82208,-1.767438 -1.74658,-1.942147 -0.47875,-0.07751 -0.97142,0.193037 -1.17716,0.629382 -0.13779,0.260094 -0.19428,0.564859 -0.14691,0.856232 z m 0.18559,0.629774 c 0.22673,0.703425 0.9835,1.237744 1.72747,1.134002 0.57435,-0.09804 1.05793,-0.686724 0.90755,-1.278099 -0.0909,-0.459305 -0.35326,-0.888212 -0.71699,-1.181088 -0.70906,-0.482958 -1.79675,0.01094 -1.94936,0.84012 -0.032,0.162445 -0.0127,0.327049 0.0314,0.485065 z m 0.41051,-0.63438 c 0.45357,-0.198046 0.893,-0.428614 1.35629,-0.604156 0.33535,0.111755 0.19391,0.598121 -0.14559,0.515938 -0.10719,0.04829 -0.61066,0.08899 -0.43484,0.228823 0.11867,0.0464 0.23735,0.09281 0.35601,0.139211 0.0436,0.162584 -0.45985,0.384434 -0.0946,0.380071 0.26349,0.0044 0.67061,-0.06517 0.7882,0.240962 0.0288,0.341188 -0.43176,0.302866 -0.65421,0.2213 -0.28059,-0.124767 -0.59211,0.081 -0.85492,-0.101575 -0.3378,-0.274201 0.34211,-0.337137 0.28241,-0.624961 -0.11425,-0.202344 -0.72906,-0.0301 -0.59871,-0.395613 z m 1.24939,-0.393271 c 0.22939,-0.09889 -0.23087,-0.04023 0,0 z m 0.0934,0.161564 c 0.23397,-0.08625 -0.24904,0.01166 0,0 z m 0.3519,1.11311 c 0.01,-0.129276 -0.13499,0.04381 0,0 z m -0.0171,0.0746 c 0.0976,-0.0749 -0.12156,0.0076 0,0 z m 0.003,0.115453 c -0.005,-0.07632 -0.0724,0.077 0,0 z m -1.54422,-2.754974 c 0.16003,-0.145722 0.69017,0.09393 0.64425,-0.13212 -0.22275,-0.186219 -0.34592,-0.723863 -0.51537,-0.766681 -0.0599,0.301021 -0.18296,0.626532 -0.18222,0.918066 z m -1.75646,1.162048 c 0.24027,-0.184102 0.50763,-0.348704 0.80177,-0.428091 0.0677,0.03061 -0.29267,0.162525 -0.3859,0.245271 -0.0896,0.05257 -0.44939,0.252291 -0.41587,0.18282 z m 0.55361,1.377283 c 0.16825,-0.347974 0.57664,0.305698 0.14144,0.171833 -0.0621,-0.01268 -0.28528,-0.100631 -0.14144,-0.171833 z m 2.42545,1.341708 c 0.27498,-0.202374 0.16085,0.543174 0.0291,0.112514 -0.0246,-0.02008 -0.11086,-0.09543 -0.0291,-0.112514 z m 0.11957,0.218163 c 0.0658,-0.02246 -0.0626,-0.02839 0,0 z m 0.12987,-4.298506 c 0.0868,-0.09311 0.57089,-0.191499 0.23378,-0.07272 -0.0802,0.05866 -0.59684,0.248 -0.23378,0.07272 z m -0.12633,0.336748 c 0.26058,-0.180641 0.5678,-0.328654 0.88889,-0.340194 -0.0494,0.09107 -0.49862,0.09995 -0.5837,0.282567 0.25376,-0.111608 0.77976,-0.177929 0.87782,-0.24821 -0.12588,-0.06856 -0.30994,-0.312871 -0.0614,-0.122343 0.30975,0.226017 0.67728,0.430611 0.81158,0.814589 0.32533,0.611281 0.54699,1.289028 0.60524,1.979021 -0.0478,0.342574 -0.45503,0.352021 -0.72644,0.350432 -0.14326,-0.01711 -0.54228,0.106023 -0.5468,-0.02969 0.33304,-0.195344 0.85424,-0.02185 1.10983,-0.277695 0.0175,-0.641165 -0.26181,-1.2413 -0.50713,-1.818332 -0.15729,-0.291305 -0.34874,-0.69628 -0.73113,-0.701138 -0.37245,-0.0071 -0.71613,0.187446 -1.08711,0.191456 -0.0374,-0.0036 -0.0596,-0.04619 -0.0496,-0.08047 z m 0.1449,0.0034 c 0.0659,-0.02246 -0.0626,-0.02839 0,0 z m 1.01761,1.501784 c 0.36609,-0.263732 0.35905,0.460304 0.0213,0.187998 -0.0306,-0.05752 -0.0316,-0.12535 -0.0213,-0.187998 z"
         id="path12824-5" />
    </g>
    <text
       xml:space="preserve"
       style="font-size:5.64444px;line-height:1.25;font-family:sans-serif;-inkscape-font-specification:sans-serif;text-decoration-color:#000000;fill:#000000;stroke:#ffffff;stroke-width:0.565;stroke-dasharray:none;paint-order:stroke fill markers;stop-color:#000000;text-anchor:middle;text-align:center"
       x="38.180813"
       y="19.641157"
       id="text16371-7-3"><tspan
         sodipodi:role="line"
         id="tspan16369-5-5"
         style="font-style:normal;font-variant:normal;font-weight:bold;font-stretch:normal;font-size:5.64444px;font-family:sans-serif;-inkscape-font-specification:'sans-serif Bold';stroke:#ffffff;stroke-width:0.565;stroke-dasharray:none;paint-order:stroke fill markers;text-anchor:middle;text-align:center"
         x="18.402695"
         y="19.641157">Draw Pile</tspan><tspan
         sodipodi:role="line"
         style="font-style:normal;font-variant:normal;font-weight:bold;font-stretch:normal;font-size:5.64444px;font-family:sans-serif;-inkscape-font-specification:'sans-serif Bold';stroke:#ffffff;stroke-width:0.565;stroke-dasharray:none;paint-order:stroke fill markers;text-anchor:middle;text-align:center"
         x="18.402695"
         y="26.696707"
         id="tspan20490">(starter cards)</tspan></text>
    <text
       xml:space="preserve"
       style="font-size:5.64444px;line-height:1.25;font-family:sans-serif;-inkscape-font-specification:sans-serif;text-align:center;text-decoration-color:#000000;text-anchor:middle;fill:#000000;stroke:#ffffff;stroke-width:0.565;stroke-dasharray:none;paint-order:stroke fill markers;stop-color:#000000"
       x="199.54555"
       y="24.060884"
       id="text16371-7-3-5"><tspan
         sodipodi:role="line"
         id="tspan16369-5-5-6"
         style="font-style:normal;font-variant:normal;font-weight:bold;font-stretch:normal;font-size:5.64444px;font-family:sans-serif;-inkscape-font-specification:'sans-serif Bold';text-align:center;text-anchor:middle;stroke:#ffffff;stroke-width:0.565;stroke-dasharray:none;paint-order:stroke fill markers"
         x="199.54555"
         y="24.060884">Discart Pile</tspan><tspan
         sodipodi:role="line"
         style="font-style:normal;font-variant:normal;font-weight:bold;font-stretch:normal;font-size:5.64444px;font-family:sans-serif;-inkscape-font-specification:'sans-serif Bold';text-align:center;text-anchor:middle;stroke:#ffffff;stroke-width:0.565;stroke-dasharray:none;paint-order:stroke fill markers"
         x="199.54555"
         y="31.116434"
         id="tspan20454">(empty)</tspan></text>
    <text
       xml:space="preserve"
       style="font-size:5.64444px;line-height:1.25;font-family:sans-serif;-inkscape-font-specification:sans-serif;text-align:center;text-decoration-color:#000000;text-anchor:middle;fill:#000000;stroke:#ffffff;stroke-width:0.565;stroke-dasharray:none;paint-order:stroke fill markers;stop-color:#000000"
       x="120.01855"
       y="19.73909"
       id="text16371-7-3-5-2"><tspan
         sodipodi:role="line"
         style="font-style:normal;font-variant:normal;font-weight:bold;font-stretch:normal;font-size:5.64444px;font-family:sans-serif;-inkscape-font-specification:'sans-serif Bold';text-align:center;text-anchor:middle;stroke:#ffffff;stroke-width:0.565;stroke-dasharray:none;paint-order:stroke fill markers"
         x="120.01855"
         y="19.73909"
         id="tspan20454-1">Start Resources</tspan></text>
  </g>
</svg>
