<?xml version="1.0" encoding="UTF-8" standalone="no"?>
<!-- Created with Inkscape (http://www.inkscape.org/) -->

<svg
   width="20mm"
   height="20mm"
   viewBox="0 0 20 20"
   version="1.1"
   id="svg135"
   inkscape:version="1.2.1 (9c6d41e410, 2022-07-14, custom)"
   sodipodi:docname="hunger.svg"
   xmlns:inkscape="http://www.inkscape.org/namespaces/inkscape"
   xmlns:sodipodi="http://sodipodi.sourceforge.net/DTD/sodipodi-0.dtd"
   xmlns="http://www.w3.org/2000/svg"
   xmlns:svg="http://www.w3.org/2000/svg">
  <sodipodi:namedview
     id="namedview137"
     pagecolor="#000000"
     bordercolor="#eeeeee"
     borderopacity="1"
     inkscape:showpageshadow="0"
     inkscape:pageopacity="0"
     inkscape:pagecheckerboard="0"
     inkscape:deskcolor="#505050"
     inkscape:document-units="mm"
     showgrid="false"
     inkscape:zoom="10.305521"
     inkscape:cx="37.795276"
     inkscape:cy="37.795276"
     inkscape:window-width="1920"
     inkscape:window-height="1015"
     inkscape:window-x="0"
     inkscape:window-y="0"
     inkscape:window-maximized="1"
     inkscape:current-layer="layer1" />
  <defs
     id="defs132" />
  <g
     inkscape:label="Layer 1"
     inkscape:groupmode="layer"
     id="layer1">
    <path
       style="fill:#f9f9f9;stroke:#cccccc;stroke-width:0.264583px;stroke-linecap:butt;stroke-linejoin:miter;stroke-opacity:1"
       d="M 6.8727211,17.204064 8.7498359,15.953153 7.511896,14.796399 6.8190983,9.0768352 8.9566979,6.6707538 7.181479,4.4316976 5.0752317,6.4008701 1.856571,3.6657452 0.26306417,4.9638315 3.4933988,7.9677932 4.2125093,14.959665 2.3654692,16.418061 3.3365967,17.743614 5.8454499,15.398936 Z"
       id="path23915" />
    <path
       style="fill:#f9f9f9;stroke:#cccccc;stroke-width:0.264583px;stroke-linecap:butt;stroke-linejoin:miter;stroke-opacity:1"
       d="M 11.553165,16.946133 9.6760505,15.695222 10.91399,14.538468 11.606788,8.8189038 9.4691889,6.4128224 11.244407,4.1737662 l 2.106248,1.9691725 3.21866,-2.7351249 1.593507,1.2980863 -3.230334,3.0039617 -0.719111,6.9918722 1.84704,1.458396 -0.971127,1.325553 -2.508853,-2.344678 z"
       id="path23915-9" />
    <path
       sodipodi:type="spiral"
       style="fill:#00ff00;fill-rule:evenodd;stroke:#008000;stroke-width:0.264583"
       id="path23941"
       sodipodi:cx="2.6657228"
       sodipodi:cy="2.744513"
       sodipodi:expansion="1"
       sodipodi:revolution="3.2584336"
       sodipodi:radius="1.8155378"
       sodipodi:argument="-20.048378"
       sodipodi:t0="0"
       d="M 2.6657228,2.744513 C 2.6961835,2.666436 2.7859973,2.747053 2.795492,2.7951407 2.8212219,2.9254553 2.6774954,3.0112728 2.5644676,3.0040513 2.3622874,2.9911336 2.2459022,2.7783185 2.2764155,2.5926302 2.321195,2.320125 2.6110197,2.1694984 2.8682333,2.2254366 3.2110586,2.2999934 3.3967862,2.6692725 3.3145684,2.9976511 3.2111056,3.4108821 2.7613394,3.6320563 2.3619571,3.5231277 1.8782516,3.3912005 1.621452,2.860417 1.7573391,2.3901197 1.9174773,1.8358906 2.5295865,1.5433596 3.0707438,1.7063602 3.6955314,1.8945508 4.0238625,2.588181 3.8336448,3.2001616 3.6175074,3.8955329 2.8422246,4.2597113 2.1594466,4.0422041 1.3934729,3.7981939 0.99341317,2.9411657 1.2382626,2.1876092 1.510092,1.3510187 2.4489337,0.91505249 3.2732543,1.1872837 c 0.9072184,0.2996082 1.3791104,1.3203149 1.079467,2.2153884 -0.010179,0.030406 -0.021167,0.060542 -0.032946,0.090365" />
    <path
       sodipodi:type="spiral"
       style="fill:#00ff00;fill-rule:evenodd;stroke:#008000;stroke-width:0.264583"
       id="path23941-1"
       sodipodi:cx="2.6657228"
       sodipodi:cy="2.744513"
       sodipodi:expansion="1"
       sodipodi:revolution="3.2584336"
       sodipodi:radius="1.8155378"
       sodipodi:argument="-20.048378"
       sodipodi:t0="0"
       d="M 2.6657228,2.744513 C 2.6961835,2.666436 2.7859973,2.747053 2.795492,2.7951407 2.8212219,2.9254553 2.6774954,3.0112728 2.5644676,3.0040513 2.3622874,2.9911336 2.2459022,2.7783185 2.2764155,2.5926302 2.321195,2.320125 2.6110197,2.1694984 2.8682333,2.2254366 3.2110586,2.2999934 3.3967862,2.6692725 3.3145684,2.9976511 3.2111056,3.4108821 2.7613394,3.6320563 2.3619571,3.5231277 1.8782516,3.3912005 1.621452,2.860417 1.7573391,2.3901197 1.9174773,1.8358906 2.5295865,1.5433596 3.0707438,1.7063602 3.6955314,1.8945508 4.0238625,2.588181 3.8336448,3.2001616 3.6175074,3.8955329 2.8422246,4.2597113 2.1594466,4.0422041 1.3934729,3.7981939 0.99341317,2.9411657 1.2382626,2.1876092 1.510092,1.3510187 2.4489337,0.91505249 3.2732543,1.1872837 c 0.9072184,0.2996082 1.3791104,1.3203149 1.079467,2.2153884 -0.010179,0.030406 -0.021167,0.060542 -0.032946,0.090365"
       transform="matrix(1.2521071,0,0,1.2521071,12.51853,13.857795)" />
  </g>
</svg>
