<?xml version="1.0" encoding="UTF-8" standalone="no"?>
<!-- Created with Inkscape (http://www.inkscape.org/) -->

<svg
   width="20.031809mm"
   height="17.208046mm"
   viewBox="0 0 20.031809 17.208046"
   version="1.1"
   id="svg135"
   inkscape:version="1.3 (0e150ed6c4, 2023-07-21)"
   sodipodi:docname="from_water.svg"
   inkscape:export-filename="../job_pngs/from_water.png"
   inkscape:export-xdpi="150"
   inkscape:export-ydpi="150"
   xmlns:inkscape="http://www.inkscape.org/namespaces/inkscape"
   xmlns:sodipodi="http://sodipodi.sourceforge.net/DTD/sodipodi-0.dtd"
   xmlns="http://www.w3.org/2000/svg"
   xmlns:svg="http://www.w3.org/2000/svg">
  <sodipodi:namedview
     id="namedview137"
     pagecolor="#ffffff"
     bordercolor="#eeeeee"
     borderopacity="1"
     inkscape:showpageshadow="0"
     inkscape:pageopacity="0"
     inkscape:pagecheckerboard="0"
     inkscape:deskcolor="#505050"
     inkscape:document-units="mm"
     showgrid="false"
     inkscape:zoom="6.9928936"
     inkscape:cx="38.181619"
     inkscape:cy="39.182636"
     inkscape:window-width="1920"
     inkscape:window-height="1015"
     inkscape:window-x="0"
     inkscape:window-y="0"
     inkscape:window-maximized="1"
     inkscape:current-layer="layer1" />
  <defs
     id="defs132" />
  <g
     inkscape:label="Layer 1"
     inkscape:groupmode="layer"
     id="layer1"
     transform="translate(0.58432921,-2.81277)">
    <g
       id="g2"
       transform="matrix(0.58663482,0,0,0.58663482,4.1612639,5.3492191)"
       style="stroke-width:1.35019">
      <path
         style="fill:#81c63a;fill-opacity:1;stroke-width:3.31799;stroke-linecap:round;paint-order:fill markers stroke;stop-color:#000000"
         d="M 1.2400052,-0.2003423 -1.0583333,11.484517 18.558799,11.095411 15.979184,-0.2640325 Z"
         id="path21861"
         sodipodi:nodetypes="ccccc" />
      <path
         style="fill:#0000ff;stroke:#000080;stroke-width:0.675097;stroke-linecap:round;paint-order:stroke markers fill;stop-color:#000000"
         d="m 4.0845757,14.549448 c 0,0 -4.3210763,-10.907271 -0.7848612,-11.9438451 3.5362151,-1.0365741 8.2315265,5.703317 10.2502975,4.88814 2.01877,-0.815177 -4.8644625,-11.4689521 -4.8644625,-11.4689521 l 1.3221755,0.023023 c 0,0 8.397925,12.482239 5.035113,13.758747 C 11.680025,11.083069 6.9322545,3.2060854 4.4494772,4.4485726 1.9666999,5.6910599 10.437361,14.356555 10.437361,14.356555 Z"
         id="path15751"
         sodipodi:nodetypes="czzcczzcc" />
    </g>
    <g
       id="g1"
       transform="matrix(0.70743822,0,0,0.70227461,-0.07651047,5.767839)"
       style="stroke-width:1.12374">
      <path
         style="fill:#0c00c3;fill-opacity:1;stroke:#000000;stroke-width:1.50919;stroke-linecap:round;stroke-opacity:0;paint-order:fill markers stroke;stop-color:#000000"
         d="M 3.3694336,9.4915023 C 3.8239656,8.6262336 4.3327945,5.5960606 6.4149272,6.1926337 l 0.541886,0.6561574 -0.3592391,0.098775 0.4077875,0.8492895 z"
         id="path8833"
         sodipodi:nodetypes="cccccc" />
      <path
         style="fill:#0c00c3;fill-opacity:1;stroke:#000000;stroke-width:1.50919;stroke-linecap:round;stroke-opacity:0;paint-order:fill markers stroke;stop-color:#000000"
         d="M 2.400402,7.5140211 17.181424,7.5550057 19.386879,19.511556 0.19165358,18.902876 Z"
         id="path3357"
         sodipodi:nodetypes="ccccc" />
      <path
         style="fill:#5faeef;fill-opacity:1;stroke:none;stroke-width:0.134291;stroke-linecap:round;stroke-linejoin:round;stroke-dasharray:none;stroke-opacity:1;paint-order:stroke markers fill;stop-color:#000000"
         id="path19588"
         d="m 5.4921927,12.855802 c 0.2562816,-0.276809 0.8575158,-0.07092 1.0045763,-0.236408 -0.6291517,-0.134921 0.047391,-0.97975 0.1243876,-1.029427 0.6513049,-0.636952 1.4154793,-0.911208 2.1207117,-0.477796 0.2541065,0.134773 -0.6302945,0.785186 -0.2785613,1.043746 0.083132,0.06112 1.0697086,-0.476963 1.2968912,-0.299585 1.1671368,1.079781 1.5817798,1.367223 2.7138208,0.975638 0.423409,-0.680414 0.745903,-0.888738 0.933807,-0.777802 0.05285,-0.04699 0.0022,0.42011 0.630825,0.868827 -0.537207,-0.603943 -0.534502,-1.034488 -0.388967,-1.118358 0.281289,-0.162108 1.591946,1.041328 1.594041,1.00671 0.114614,0.10427 0.286325,-0.191762 0.205629,-0.193377 -0.46087,-0.0092 -1.250195,-0.990269 -1.751568,-1.045673 -0.566992,-0.06265 -0.878336,0.750103 -1.306472,0.978807 -1.101859,0.158686 -1.223305,-0.150349 -2.228846,-1.056957 -0.6351346,-0.581971 -1.3202259,-0.974918 -2.0219638,-1.014994 -0.8898541,0.08355 -1.6530008,1.121619 -2.4011644,1.978991 -0.1500479,0.170368 -0.659749,0.203197 -0.6715155,-0.181294 -0.1988903,0.534738 0.1819156,0.48743 0.1200545,0.593978 -0.00191,0.214734 0.2707907,0.722446 1.0176964,0.384957 0.1008911,-0.153998 -0.7244084,-0.02961 -0.7133825,-0.399951 z"
         sodipodi:nodetypes="cccccccccscssccccccccc" />
      <path
         id="path10148"
         style="fill:#e4f1fb;fill-opacity:1;stroke-width:0.0180783;paint-order:stroke markers fill"
         d="m 15.758423,13.519769 c -0.246659,-0.141547 -0.715197,0.31439 -0.215168,0.390755 0.520286,0.755189 -0.327432,1.657259 -0.714947,1.547755 -0.568016,0.197248 -1.065159,-0.590225 -1.687888,-0.450922 -0.465864,-0.325825 -0.957535,-0.478634 -1.251274,0.518208 -0.445995,0.608488 -0.842548,-1.085294 -0.733448,-1.821616 -0.417843,-0.625276 -0.604939,1.03101 -1.142437,0.598273 -1.3574933,0.887623 -2.8771713,0.777854 -4.2373478,0.124495 -0.9171437,-0.298601 -1.9894866,-0.0033 -2.6290318,1.463972 0.4242795,0.534088 0.559349,-1.220437 1.0117533,-0.999414 0.4035061,-0.32237 0.8598402,-0.557588 1.2904661,-0.45144 1.2919554,0.690577 2.6596576,0.960535 3.9903523,0.604365 0.4085128,-0.121978 0.8118459,-0.323115 1.1971079,-0.621742 0.155256,1.289061 0.872819,1.877054 1.472956,1.484765 0.403169,-0.403405 1.081256,-1.066222 1.185725,-0.494925 0.951213,0.375018 2.010713,0.579896 2.896698,-0.363909 0.214701,-0.350289 0.01433,-1.070266 0.370231,-0.555424 0.490069,0.198947 0.545106,1.554061 1.024505,1.62685 0.835366,0.126837 -0.510227,-2.184868 -1.03679,-2.133712 -0.206209,0.293627 -0.517502,-0.383232 -0.791463,-0.466334 z m -0.445161,0.267907 c -0.18974,-0.05873 -0.06585,0.292896 0,0 z"
         sodipodi:nodetypes="cccccccccccccccccscccc" />
      <path
         id="path10153"
         style="fill:#1783ff;fill-opacity:1;stroke-width:0.0180783;paint-order:stroke markers fill"
         d="M 6.0779346,6.0344789 C 5.0443767,5.96315 4.2131752,6.7123604 3.7226365,8.3814055 3.3562906,9.424411 2.6119736,10.210824 1.9395329,10.283402 1.6459749,10.622738 2.8281473,11.087989 2.8950708,10.171584 4.2646245,9.2603854 3.5443647,7.6697312 4.7807666,7.1970119 4.6070397,6.7712802 6.0792586,5.8264661 6.4821984,6.2986903 6.910639,6.7749055 6.8498159,6.9209229 6.5760867,6.7906582 6.2479139,7.0484027 7.227615,7.6360907 6.5524899,7.4451003 5.8332509,7.3614305 5.6999965,8.5846959 6.4054511,9.2481921 7.0097765,10.077572 7.2750251,9.2047251 7.771908,8.9716057 8.3003247,9.2555153 8.7763828,9.9953718 9.3572686,9.82609 9.9639149,9.8265443 10.569553,9.2533961 10.895419,8.22046 c 0.506695,-0.022781 0.951377,0.7740785 1.445097,1.0149414 0.812301,0.5679352 1.748802,0.7065589 2.555622,0.053566 0.41691,-0.856063 1.024365,-1.125417 1.490591,-0.2524543 0.225951,0.2822311 0.89465,1.4529499 0.969576,0.6984952 C 16.851663,9.1488172 16.356105,8.3748 15.756252,8.2388907 15.109953,7.9788361 14.743238,9.274698 14.147411,9.4874491 13.547707,9.8017784 12.913493,9.3124477 12.36358,8.8524531 11.74355,8.5467168 11.228452,7.6633575 10.638768,7.3775261 10.272119,7.4600784 10.781974,8.9929894 10.142225,8.768204 9.6768048,9.5259733 9.0594584,9.965034 8.5656895,9.1928839 8.118948,8.5116702 7.4464481,7.822404 7.16627,9.0210239 6.9138999,9.6777989 6.0533271,9.0994558 6.156865,8.2164236 6.3216532,7.2917006 6.6295494,7.7957028 6.9343862,7.531948 6.5454302,7.050756 6.808604,6.8325352 6.9384197,7.1869946 7.1309659,7.7911485 7.183746,7.2746827 7.0571001,6.9586158 6.9401094,6.6666424 6.6459042,6.0736778 6.0779346,6.0344789 Z m 0.932938,1.8181403 c -0.065597,0.4114282 0.3300015,0.474975 0,0 z m 0.2728962,0.064065 c 0.2582209,0.1822565 0.04843,0.6160132 0,0 z"
         sodipodi:nodetypes="scccccccccccccccccccccccccsscccc" />
    </g>
    <path
       style="fill:#ff0000;stroke:#ffffff;stroke-width:0.838274;stroke-linejoin:round;paint-order:stroke fill markers"
       d="M 8.7321724,9.9444509 9.3957639,15.60646 C 10.616425,13.571081 11.68208,11.3947 16.570616,12.695845 l 0.06961,2.543829 2.388126,-3.143317 -2.322547,-3.7760458 -0.07261,2.8422798 C 12.880487,9.3402198 10.770677,9.6232806 8.7321724,9.9444509 Z"
       id="path2"
       sodipodi:nodetypes="cccccccc" />
  </g>
</svg>
