<?xml version="1.0" encoding="UTF-8" standalone="no"?>
<!-- Created with Inkscape (http://www.inkscape.org/) -->

<svg
   width="17.807663mm"
   height="17.598904mm"
   viewBox="0 0 17.807663 17.598904"
   version="1.1"
   id="svg12601"
   xml:space="preserve"
   inkscape:version="1.2.1 (9c6d41e410, 2022-07-14, custom)"
   sodipodi:docname="back_logo.svg"
   xmlns:inkscape="http://www.inkscape.org/namespaces/inkscape"
   xmlns:sodipodi="http://sodipodi.sourceforge.net/DTD/sodipodi-0.dtd"
   xmlns="http://www.w3.org/2000/svg"
   xmlns:svg="http://www.w3.org/2000/svg"><sodipodi:namedview
     id="namedview12603"
     pagecolor="#ffffff"
     bordercolor="#eeeeee"
     borderopacity="1"
     inkscape:showpageshadow="0"
     inkscape:pageopacity="0"
     inkscape:pagecheckerboard="0"
     inkscape:deskcolor="#505050"
     inkscape:document-units="mm"
     showgrid="false"
     inkscape:zoom="2.7544272"
     inkscape:cx="-2.7228892"
     inkscape:cy="13.977498"
     inkscape:window-width="1920"
     inkscape:window-height="1015"
     inkscape:window-x="0"
     inkscape:window-y="0"
     inkscape:window-maximized="1"
     inkscape:current-layer="layer1" /><defs
     id="defs12598" /><g
     inkscape:label="Layer 1"
     inkscape:groupmode="layer"
     id="layer1"
     transform="translate(-53.835213,-33.713646)"><path
       style="fill:#000000;stroke-width:0.999998"
       d="m 63.76573,51.285763 c -0.870179,-1.171094 -1.174369,-2.662615 -2.023184,-3.837317 -1.112249,-0.403911 0.07047,0.952917 0.24152,1.41309 0.218664,0.428999 0.887186,1.407763 0.778318,1.494679 -1.045346,-0.978487 -1.375116,-2.439213 -2.134889,-3.59871 -0.997683,-0.895288 -2.414658,-0.92929 -3.649315,-1.260415 -1.037494,-0.173356 -2.092757,-0.214099 -3.142967,-0.19043 0.124132,-0.9905 1.31827,-0.760378 2.0307,-0.901736 1.212876,-0.428051 2.379511,-1.022567 3.507354,-1.657184 0.921296,-0.848185 -0.441352,-1.954992 -0.594342,-2.886793 -0.09218,-0.28865 -0.249854,-1.36475 0.02321,-0.542025 0.359304,0.727439 0.617378,2.217851 1.172835,2.405515 1.545521,-2.809611 5.067561,-4.526072 8.208069,-3.619959 0.601542,-0.274567 1.236181,1.109829 0.289178,0.466887 -0.534939,-0.410199 -1.962287,-0.464244 -2.099983,-0.381892 2.017629,-0.07003 3.830912,1.634718 3.992244,3.62834 0.25574,2.652293 -1.818754,5.046887 -4.268654,5.789938 -1.143855,0.368294 -2.378555,0.480298 -3.553117,0.207367 -0.748082,-0.08169 0.296138,1.318601 -8.82e-4,0.267052 0.765361,0.548203 0.612331,1.893404 1.482745,2.43079 1.163056,0.310475 2.100148,-0.893529 3.202244,-1.132213 1.04057,-0.500362 2.167392,-0.930974 3.030915,-1.708085 0.572648,-0.989475 -0.491854,-2.061951 0.0021,-3.066855 0.346633,0.987975 1.005771,2.045657 0.585963,3.11683 -0.59437,0.953653 -1.795183,1.187729 -2.693773,1.758573 -1.36982,0.628691 -2.694908,1.407523 -4.143616,1.831339 l -0.122384,-0.0016 -0.120296,-0.02521 z m -1.066593,-2.495621 c -0.06586,-0.193125 -0.08327,0.183794 0,0 z m 1.781246,-1.535288 c -1.242893,-0.493742 -2.422858,-1.322224 -2.938242,-2.601678 -0.734382,-1.61096 -0.305107,-3.668102 1.106484,-4.770111 0.895848,-0.805152 2.016985,-1.320386 3.170915,-1.635416 -2.660754,0.394803 -5.184458,2.411417 -5.696941,5.12328 -0.227344,1.404309 0.566241,2.849484 1.846185,3.452987 0.762939,0.404174 1.656907,0.569881 2.511599,0.430938 z m 1.847326,-0.544412 c 2.063371,-0.665077 3.630697,-2.884909 3.32639,-5.067235 -0.287572,-1.684724 -2.014378,-3.103213 -3.749069,-2.662114 -1.347293,0.266651 -2.605411,1.036238 -3.464506,2.103137 -1.416675,2.07992 0.03206,5.270455 2.464341,5.718126 0.476494,0.09401 0.959335,0.03712 1.422844,-0.09191 z m -1.860838,-1.204157 c -0.580927,-1.330466 -1.257265,-2.619443 -1.772176,-3.978415 0.327802,-0.98371 1.75448,-0.568812 1.513405,0.427045 0.141664,0.314432 0.26103,1.791263 0.671206,1.275524 0.136117,-0.348099 0.272235,-0.696198 0.408353,-1.044297 0.476907,-0.12815 1.127669,1.348886 1.114873,0.277632 0.0131,-0.772914 -0.191193,-1.967122 0.706821,-2.31204 1.000804,-0.08454 0.888393,1.266497 0.64914,1.918975 -0.365986,0.823075 0.237592,1.736839 -0.297958,2.507769 -0.804312,0.990859 -0.988926,-1.003531 -1.833208,-0.828417 -0.593541,0.335155 -0.08832,2.138588 -1.160456,1.756224 z m -1.153588,-3.664857 c -0.290084,-0.672862 -0.117998,0.677228 0,0 z m 0.473913,-0.274048 c -0.252997,-0.686307 0.03417,0.730509 0,0 z m 3.265116,-1.032237 c -0.379214,-0.02802 0.128498,0.395953 0,0 z m 0.218825,0.05015 c -0.219685,-0.28628 0.0223,0.356565 0,0 z m 0.338667,-0.0078 c -0.223869,0.01637 0.225848,0.212426 0,0 z m -8.081228,4.529666 c -0.427444,-0.469404 0.275521,-2.024478 -0.387547,-1.889771 -0.546237,0.653381 -2.123317,1.014695 -2.248916,1.511762 0.882987,0.175585 1.837814,0.536647 2.692973,0.53447 z m 3.40866,5.152285 c -0.540026,-0.704801 -1.022851,-1.489067 -1.255728,-2.35184 0.08984,-0.198753 0.476745,0.858477 0.719464,1.131955 0.15421,0.262815 0.740052,1.318187 0.536264,1.219885 z m 4.040012,-1.623907 c -1.02072,-0.493579 0.896716,-1.691495 0.504043,-0.414923 -0.03721,0.182249 -0.295184,0.836849 -0.504043,0.414923 z m 3.935659,-7.114643 c -0.593629,-0.806616 1.593302,-0.471813 0.330044,-0.08538 -0.05889,0.0721 -0.279924,0.325196 -0.330044,0.08538 z m 0.639945,-0.350734 c -0.06585,-0.19313 -0.0833,0.18378 0,0 z m -12.60889,-0.380959 c -0.273121,-0.254486 -0.561736,-1.674572 -0.213311,-0.685739 0.172066,0.235399 0.727461,1.750738 0.213311,0.685739 z m 0.987787,0.370587 c -0.52988,-0.764355 -0.964051,-1.665582 -0.9979,-2.607426 0.267143,0.144771 0.293177,1.462637 0.82886,1.712188 -0.327379,-0.744374 -0.521919,-2.287283 -0.72808,-2.574918 -0.201129,0.369249 -0.917746,0.909139 -0.358866,0.179978 0.662973,-0.908564 1.263121,-1.98663 2.389447,-2.380611 1.793085,-0.954306 3.781131,-1.604478 5.805097,-1.775353 1.00488,0.140081 1.032589,1.334765 1.027936,2.130871 -0.05017,0.420245 0.310997,1.590695 -0.08708,1.60393 -0.573014,-0.976889 -0.06408,-2.505724 -0.814577,-3.255465 -1.880732,-0.05137 -3.641123,0.767969 -5.333743,1.487588 -0.854489,0.461378 -2.042417,1.022948 -2.056665,2.144642 -0.02093,1.092479 0.549842,2.100634 0.561599,3.188832 -0.01047,0.109678 -0.13549,0.174903 -0.236032,0.145744 z m 0.0097,-0.425057 c -0.06586,-0.19313 -0.08327,0.183794 0,0 z m 4.405216,-2.984974 c -0.773612,-1.07386 1.350219,-1.053195 0.551457,-0.06251 -0.168722,0.08971 -0.367687,0.09276 -0.551457,0.06251 z"
       id="path12824" /></g></svg>
