<?xml version="1.0" encoding="UTF-8" standalone="no"?>
<!-- Created with Inkscape (http://www.inkscape.org/) -->

<svg
   width="40mm"
   height="40mm"
   viewBox="0 0 40 40"
   version="1.1"
   id="svg5"
   xml:space="preserve"
   inkscape:version="1.2.1 (9c6d41e410, 2022-07-14, custom)"
   sodipodi:docname="arm injury.svg"
   xmlns:inkscape="http://www.inkscape.org/namespaces/inkscape"
   xmlns:sodipodi="http://sodipodi.sourceforge.net/DTD/sodipodi-0.dtd"
   xmlns="http://www.w3.org/2000/svg"
   xmlns:svg="http://www.w3.org/2000/svg"><sodipodi:namedview
     id="namedview7"
     pagecolor="#6f6f6f"
     bordercolor="#eeeeee"
     borderopacity="1"
     inkscape:showpageshadow="0"
     inkscape:pageopacity="0.5254902"
     inkscape:pagecheckerboard="0"
     inkscape:deskcolor="#505050"
     inkscape:document-units="mm"
     showgrid="false"
     inkscape:zoom="4.3622393"
     inkscape:cx="35.646829"
     inkscape:cy="87.455083"
     inkscape:window-width="1920"
     inkscape:window-height="1015"
     inkscape:window-x="0"
     inkscape:window-y="0"
     inkscape:window-maximized="1"
     inkscape:current-layer="layer2" /><defs
     id="defs2" /><g
     inkscape:groupmode="layer"
     id="layer2"
     inkscape:label="Layer 2"
     style="display:inline"><g
       id="g566"
       transform="matrix(1.1314441,0,0,1.1315015,-2.947929,-1.6613763)"
       style="stroke-width:0.883804"><path
         style="fill:#ffcc00;stroke:#000000;stroke-width:0.233839px;stroke-linecap:butt;stroke-linejoin:miter;stroke-opacity:1"
         d="M 14.845127,5.8902157 C 11.783784,8.4524751 4.6069996,24.98703 4.6579093,29.080456 c 8.1339427,3.069391 16.2678857,2.126859 24.4018297,3.189258 5.653766,4.412488 8.347749,-11.341565 -0.163153,-6.451951 -6.25265,-2.082286 -9.159043,-3.07382 -15.411692,-2.389759 0,0 6.474403,-7.086591 7.429101,-12.602227 C 21.868693,5.3101413 17.90647,3.3279563 14.845127,5.8902157 Z"
         id="path293"
         sodipodi:nodetypes="zcccczz" /><path
         style="fill:#ffffff;stroke:#000000;stroke-width:0.233839px;stroke-linecap:butt;stroke-linejoin:miter;stroke-opacity:1"
         d="M 14.252241,4.9475495 26.620213,33.028162 15.643443,32.279037 9.6952222,11.844518 Z"
         id="path391"
         sodipodi:nodetypes="ccccc" /><path
         style="fill:#ff2a2a;stroke:#000000;stroke-width:0.233839px;stroke-linecap:butt;stroke-linejoin:miter;stroke-opacity:1"
         d="m 15.170049,26.328764 c -0.132491,-1.626709 2.612596,0.190605 3.016215,-0.764871 0.854823,-2.023599 4.038924,3.890768 2.125053,3.228322 -0.892927,-0.309068 -2.56387,1.859753 -2.822419,0.263691 -0.190808,-1.177884 -2.221984,-1.537842 -2.318849,-2.727142 z"
         id="path501"
         sodipodi:nodetypes="sssss" /></g></g></svg>
