<?xml version="1.0" encoding="UTF-8" standalone="no"?>
<!-- Created with Inkscape (http://www.inkscape.org/) -->

<svg
   width="40mm"
   height="40mm"
   viewBox="0 0 40 40"
   version="1.1"
   id="svg5"
   xml:space="preserve"
   inkscape:version="1.2.1 (9c6d41e410, 2022-07-14, custom)"
   sodipodi:docname="cow.svg"
   xmlns:inkscape="http://www.inkscape.org/namespaces/inkscape"
   xmlns:sodipodi="http://sodipodi.sourceforge.net/DTD/sodipodi-0.dtd"
   xmlns="http://www.w3.org/2000/svg"
   xmlns:svg="http://www.w3.org/2000/svg"><sodipodi:namedview
     id="namedview7"
     pagecolor="#ffffff"
     bordercolor="#ffffff"
     borderopacity="1"
     inkscape:showpageshadow="0"
     inkscape:pageopacity="0.5254902"
     inkscape:pagecheckerboard="0"
     inkscape:deskcolor="#ff0000"
     inkscape:document-units="mm"
     showgrid="false"
     inkscape:zoom="7.6017095"
     inkscape:cx="69.523835"
     inkscape:cy="65.445805"
     inkscape:window-width="1920"
     inkscape:window-height="1015"
     inkscape:window-x="0"
     inkscape:window-y="0"
     inkscape:window-maximized="1"
     inkscape:current-layer="layer3" /><defs
     id="defs2" /><g
     inkscape:groupmode="layer"
     id="layer3"
     inkscape:label="main"
     style="stroke-width:34.8245;display:inline;opacity:1"
     transform="matrix(0.02871542,0,0,0.02871542,-346.61348,-183.09238)"><path
       style="opacity:1;fill:#ffccaa;stroke:#552200;stroke-width:20.8947;stroke-linecap:round;stroke-linejoin:round;paint-order:markers stroke fill;stop-color:#000000"
       d="m 13334.097,6825.5102 30.247,232.9372 c 5.675,52.8479 11.641,69.0761 4.048,138.2176 l -24.83,20.4663 -17.804,-92.1067 22.347,-55.0904 z"
       id="path1358"
       sodipodi:nodetypes="ccccccc" /><path
       style="opacity:1;fill:#d45500;stroke:#552200;stroke-width:20.8947;stroke-linecap:round;stroke-linejoin:round;paint-order:markers stroke fill;stop-color:#000000"
       d="m 13070.138,7073.7751 45.408,182.8822 c -43.734,53.4765 -53.37,106.5995 -83.952,184.7584 l 82.898,-11.7516 c -6.073,-96.4356 25.157,-128.9199 86.321,-189.0519 l -5.647,-220.6129 z"
       id="path1356"
       sodipodi:nodetypes="ccccccc" /><path
       style="opacity:1;fill:#d45500;stroke:#552200;stroke-width:20.8947;stroke-linecap:round;stroke-linejoin:round;paint-order:markers stroke fill;stop-color:#000000"
       d="m 12651.64,7198.3438 59.918,227.5227 -50.075,-1.0289 c 13.414,-102.7309 -26.961,-117.8893 -40.442,-176.834"
       id="path1354"
       sodipodi:nodetypes="cccc" /><path
       style="opacity:1;fill:#d45500;stroke:#552200;stroke-width:20.8947;stroke-linecap:round;stroke-linejoin:round;paint-order:stroke fill markers;stop-color:#000000"
       d="m 12237.817,6828.8869 c -100.087,-90.6685 -145.144,-5.7871 -19.387,30.3952"
       id="path1296"
       sodipodi:nodetypes="cc" /><path
       style="opacity:1;fill:#ffaaaa;stroke:#552200;stroke-width:20.8947;stroke-linecap:round;stroke-linejoin:round;paint-order:stroke fill markers;stop-color:#000000"
       d="m 13035.358,7177.1542 59.779,26.794 c -8.163,33.8837 28.404,45.604 26.643,2.7804 4.486,1.181 18.682,-10.4102 19.223,-0.9974 0.885,15.3958 24.028,37.1488 14.287,-4.7852 l 91.841,-36.0491 -127.01,-174.6065 -89.691,78.9895 z"
       id="path1186"
       sodipodi:nodetypes="cccsccccc" /><path
       style="opacity:1;fill:#ff7f2a;stroke:#552200;stroke-width:20.8947;stroke-linecap:round;stroke-linejoin:round;paint-order:stroke fill markers;stop-color:#000000"
       d="m 12346.916,6807.3015 c 272.694,23.0826 526.025,-79.6939 728.472,-48.0918 87.232,-22.7627 194.076,-33.0451 251.214,48.3736 55.63,79.2701 -48.21,227.1277 -11.449,408.3852 l -53.254,228.9314 -72.47,6.1454 c 67.306,-145.3832 108.952,-296.0554 -68.03,-397.4253 -115.172,176.1817 -235.713,195.7173 -392.006,111.766 -96.895,86.2698 -211.632,108.0304 -412.274,-180.8046 -65.417,0.1777 -159.613,51.9331 -181.542,-25.8263 27.516,-52.2351 91.209,-76.7975 56.78,-128.8257 51.279,-9.437 84.425,-161.3425 154.559,-22.6279 z"
       id="path1032"
       sodipodi:nodetypes="ccsccccccccc" /><path
       style="opacity:1;fill:#ff7f2a;stroke:#552200;stroke-width:20.8947;stroke-linecap:round;stroke-linejoin:round;paint-order:stroke fill markers;stop-color:#000000"
       d="m 12551.924,7126.4111 c 65.147,-22.7967 45.574,43.4458 41.398,198.9356 27.207,58.0954 -4.954,98.0026 -27.872,140.7415 l 80.21,1.1372 c -10.524,-68.8365 -23.65,-138.9766 31.459,-174.9261 -15.085,-80.7151 3.299,-132.9217 46.016,-164.4018 l -6.438,-68.1334"
       id="path1184"
       sodipodi:nodetypes="ccccccc" /><path
       style="opacity:1;fill:#4d4d4d;stroke:none;stroke-width:20.8947;stroke-linecap:round;stroke-linejoin:round;paint-order:markers stroke fill;stop-color:#000000"
       d="m 12259.59,6885.6814 c 12.64,-41.6161 48.755,-45.8338 73.43,-68.2774 -5.023,25.1916 11.761,23.0848 24.484,53.8645 -29.81,11.1321 -56.657,28.8958 -97.914,14.4129 z"
       id="path1468"
       sodipodi:nodetypes="cccc" /><path
       style="opacity:1;fill:#d45500;stroke:#552200;stroke-width:20.8947;stroke-linecap:round;stroke-linejoin:round;paint-order:markers stroke fill;stop-color:#000000"
       d="m 12337.972,6839.8298 c 20.783,-67.1609 129.999,-72.8219 21.013,30.6142"
       id="path1352"
       sodipodi:nodetypes="cc" /><path
       style="opacity:1;fill:#4d4d4d;stroke:none;stroke-width:20.8947;stroke-linecap:round;stroke-linejoin:round;paint-order:markers stroke fill;stop-color:#000000"
       d="m 12286.292,6864.899 37.682,-16.7516 z"
       id="path1578" /><path
       style="opacity:1;fill:#4d4d4d;stroke:none;stroke-width:20.8947;stroke-linecap:round;stroke-linejoin:round;paint-order:markers stroke fill;stop-color:#000000"
       d="m 12286.17,6866.6785 41.712,-18.606 z"
       id="path1580" /><path
       style="opacity:1;fill:#000000;stroke:none;stroke-width:20.8947;stroke-linecap:round;stroke-linejoin:round;paint-order:markers stroke fill;stop-color:#000000"
       d="m 12285.659,6860.5036 c 12.666,-13.1834 26.07,-15.2922 40.258,-5.6391 -3.114,9.0169 0.09,20.089 -18.351,24.1178 -12.391,-1.9732 -17.964,-9.5552 -21.907,-18.4787 z"
       id="path1636"
       sodipodi:nodetypes="cccc" /><path
       style="opacity:1;fill:#ffb380;stroke:none;stroke-width:20.8947;stroke-linecap:round;stroke-linejoin:round;paint-order:markers stroke fill;stop-color:#000000"
       d="m 12737.394,7169.4332 c -24.639,-177.6584 275.388,-15.5666 383.847,-158.6328 -0.868,-89.0474 198.538,-124.1654 105.187,-31.5382 -57.058,46.5272 -12.653,87.0696 41.82,62.9448 38.341,67.4168 45.116,151.645 31.069,236.0789 -31.211,1.8754 -44.198,-19.1948 -47.997,-51.8336 -42.127,-135.418 -91.712,-136.4946 -128.393,-174.3303 -35.951,64.7912 -157.972,201.434 -290.882,153.4705 -37.076,-7.2459 -65.332,-22.165 -94.651,-36.1593 z"
       id="path1800"
       sodipodi:nodetypes="ccccccccc" /><path
       style="opacity:1;fill:#e9afaf;stroke:none;stroke-width:20.8947;stroke-linecap:round;stroke-linejoin:round;paint-order:markers stroke fill;stop-color:#000000"
       d="m 12135.345,6959.5475 c 14.946,51.1804 70.308,45.4274 102.122,37.3883 -9.734,-35.1386 -9.524,-56.8473 -34.077,-65.3924 -31.254,-10.8776 -57.628,-12.341 -68.045,28.0041 z"
       id="path1984"
       sodipodi:nodetypes="ccsc" /><path
       style="opacity:1;fill:#666666;stroke:none;stroke-width:20.8947;stroke-linecap:round;stroke-linejoin:round;paint-order:markers stroke fill;stop-color:#000000"
       d="m 12172.74,6964.1142 c -11.862,-15.1307 3.852,-20.7635 23.778,-24.9452 11.671,13.796 4.641,18.7586 -0.199,25.9589 z"
       id="path2040"
       sodipodi:nodetypes="cccc" /></g></svg>
