<?xml version="1.0" encoding="UTF-8" standalone="no"?>
<!-- Created with Inkscape (http://www.inkscape.org/) -->

<svg
   width="40mm"
   height="40mm"
   viewBox="0 0 40 40"
   version="1.1"
   id="svg5"
   xml:space="preserve"
   inkscape:version="1.2.1 (9c6d41e410, 2022-07-14)"
   sodipodi:docname="pistol.svg"
   xmlns:inkscape="http://www.inkscape.org/namespaces/inkscape"
   xmlns:sodipodi="http://sodipodi.sourceforge.net/DTD/sodipodi-0.dtd"
   xmlns="http://www.w3.org/2000/svg"
   xmlns:svg="http://www.w3.org/2000/svg"><sodipodi:namedview
     id="namedview7"
     pagecolor="#6f6f6f"
     bordercolor="#eeeeee"
     borderopacity="1"
     inkscape:showpageshadow="0"
     inkscape:pageopacity="0.5254902"
     inkscape:pagecheckerboard="0"
     inkscape:deskcolor="#505050"
     inkscape:document-units="mm"
     showgrid="false"
     inkscape:zoom="3.2964741"
     inkscape:cx="26.391835"
     inkscape:cy="70.833258"
     inkscape:window-width="1920"
     inkscape:window-height="1015"
     inkscape:window-x="0"
     inkscape:window-y="0"
     inkscape:window-maximized="1"
     inkscape:current-layer="layer2" /><defs
     id="defs2" /><g
     inkscape:groupmode="layer"
     id="layer2"
     inkscape:label="Layer 2"><path
       style="fill:#999999;stroke:#000000;stroke-width:0.318068px;stroke-linecap:butt;stroke-linejoin:miter;stroke-opacity:1"
       d="M 1.2906907,28.797596 1.7483812,13.234719 30.334888,12.032816 29.782537,18.217411 8.361785,18.807319 7.9710128,28.478376 Z"
       id="path782" /><path
       style="fill:#808080;stroke:#000000;stroke-width:0.318068px;stroke-linecap:butt;stroke-linejoin:miter;stroke-opacity:1"
       d="m 10.978385,18.88191 0.02695,2.859744 -2.426134,0.09561 v 0.775703 l 3.302586,-0.0848 -0.07522,-3.521316 z"
       id="path784" /><path
       style="fill:#666666;stroke:#000000;stroke-width:0.318068px;stroke-linecap:butt;stroke-linejoin:miter;stroke-opacity:1"
       d="m 9.7821705,18.956985 -1.7078921,2.024331 0.1544073,-2.16067 z"
       id="path790" /><path
       style="opacity:0.49;fill:#c8b7b7;stroke:#000000;stroke-width:0.264583px;stroke-linecap:butt;stroke-linejoin:miter;stroke-opacity:1"
       d="m 32.038812,6.7245141 c 0.492141,-1.6315854 2.696225,-2.3742431 4.001217,-1.2026702 1.21484,0.6123519 0.924649,2.1568433 1.031984,3.0097059 1.118944,0.2042378 1.520833,2.6668672 0.376794,2.9890552 -1.221695,-1.201085 1.490462,-1.7433804 1.779276,-0.251429 0.822053,1.136898 0.02888,2.435887 -0.618589,3.424696 -0.752428,1.004333 -1.038404,2.482456 -2.234681,3.077397 -1.767535,0.367304 0.12225,-2.457455 0.646843,-0.766553 0.846407,1.70785 0.503603,4.247979 -1.292092,5.191482 -1.085116,0.838498 -2.868339,-1.334185 -1.748156,-1.596814 -0.123278,1.591628 -2.48027,0.91681 -3.278566,0.172238 -1.096746,-0.955564 -0.793085,-3.22419 0.823827,-3.370905 1.497005,0.183108 -0.02541,1.525663 -0.496371,0.262758 -0.962445,-1.169615 0.01234,-2.725776 0.858709,-3.655677 0.164615,-0.76922 1.996438,-0.911686 0.97756,-0.108173 -1.245705,0.405532 -3.117155,-0.153309 -3.002522,-1.734989 0.106632,-1.256927 0.720634,-3.6780105 2.185723,-3.4998177 0.842261,1.4882217 -2.112676,2.1097627 -1.468105,0.3757874 0.412173,-0.7820874 0.421197,-2.0691201 1.457149,-2.3160916 z"
       id="path857" /><path
       style="fill:none;stroke:#000000;stroke-width:0.318068px;stroke-linecap:butt;stroke-linejoin:miter;stroke-opacity:1"
       d="M 8.5718384,13.696798 17.45214,13.459619"
       id="path861" /><path
       style="fill:none;stroke:#000000;stroke-width:0.318068px;stroke-linecap:butt;stroke-linejoin:miter;stroke-opacity:1"
       d="M 8.8531023,17.438022 17.508552,17.208023"
       id="path863" /></g></svg>
