<?xml version="1.0" encoding="UTF-8" standalone="no"?>
<!-- Created with Inkscape (http://www.inkscape.org/) -->

<svg
   width="40mm"
   height="40mm"
   viewBox="0 0 40 40"
   version="1.1"
   id="svg5"
   xml:space="preserve"
   inkscape:version="1.2.1 (9c6d41e410, 2022-07-14, custom)"
   sodipodi:docname="elexir.svg"
   xmlns:inkscape="http://www.inkscape.org/namespaces/inkscape"
   xmlns:sodipodi="http://sodipodi.sourceforge.net/DTD/sodipodi-0.dtd"
   xmlns="http://www.w3.org/2000/svg"
   xmlns:svg="http://www.w3.org/2000/svg"><sodipodi:namedview
     id="namedview7"
     pagecolor="#6f6f6f"
     bordercolor="#eeeeee"
     borderopacity="1"
     inkscape:showpageshadow="0"
     inkscape:pageopacity="0.5254902"
     inkscape:pagecheckerboard="0"
     inkscape:deskcolor="#505050"
     inkscape:document-units="mm"
     showgrid="false"
     inkscape:zoom="5.3247396"
     inkscape:cx="72.304005"
     inkscape:cy="75.778354"
     inkscape:window-width="1920"
     inkscape:window-height="1015"
     inkscape:window-x="0"
     inkscape:window-y="0"
     inkscape:window-maximized="1"
     inkscape:current-layer="layer2" /><defs
     id="defs2" /><g
     inkscape:groupmode="layer"
     id="layer2"
     inkscape:label="Layer 2"
     style="display:inline"><path
       style="fill:none;stroke:#000000;stroke-width:0.264583px;stroke-linecap:butt;stroke-linejoin:miter;stroke-opacity:1"
       d="M 17.708436,14.916682 C 16.389732,32.042846 1.7623836,24.053168 14.590311,38.614606 l 12.121747,0.31042 C 41.138819,27.702887 23.971072,29.839356 23.67752,14.74215 44.324293,10.498591 -1.9755094,8.4955422 17.708436,14.916682 Z"
       id="path490"
       sodipodi:nodetypes="ccccc" /><path
       style="fill:#5be752;fill-opacity:1;stroke:#00ff13;stroke-width:0.264583px;stroke-linecap:butt;stroke-linejoin:miter;stroke-opacity:1"
       d="m 16.618316,20.531933 c 1.346909,-2.060821 1.357976,-0.02919 1.759803,-0.210715 1.471076,-2.034121 1.025763,-1.510803 1.934122,0.647502 1.617036,-2.892122 0.821831,-1.934258 2.271768,-0.07034 -0.185103,-2.464452 0.3992,-2.428317 2.005325,-0.07462 2.036731,3.344908 6.53481,7.265637 7.650719,10.226052 -0.05344,3.074002 -1.556201,5.551763 -5.625531,7.600119 L 14.805017,38.383051 C 12.337963,35.966838 10.085773,33.437398 9.3664618,30.100178 11.936959,25.24723 15.947828,24.59188 16.618316,20.531933 Z"
       id="path698"
       sodipodi:nodetypes="cccccccccc" /><g
       id="g1428"
       transform="matrix(1.172872,0,0,0.82197957,-4.1071098,3.1687399)"
       style="fill:#00ff00;stroke:#61c645;stroke-width:1.01846;stroke-opacity:1"><path
         style="fill:#00ff00;fill-opacity:1;stroke:#61c645;stroke-width:0.982813;stroke-linecap:round;stroke-opacity:1;paint-order:stroke fill markers;stop-color:#000000"
         id="path1366"
         sodipodi:type="arc"
         sodipodi:cx="18.83919"
         sodipodi:cy="2.0796788"
         sodipodi:rx="1.7992527"
         sodipodi:ry="2.0171597"
         sodipodi:start="0"
         sodipodi:end="6.2783333"
         sodipodi:open="true"
         sodipodi:arc-type="arc"
         d="m 20.638442,2.0796788 a 1.7992527,2.0171597 0 0 1 -1.79707,2.0171582 1.7992527,2.0171597 0 0 1 -1.80143,-2.0122646 1.7992527,2.0171597 0 0 1 1.7927,-2.02203997 1.7992527,2.0171597 0 0 1 1.805779,2.00735907" /><path
         style="display:inline;fill:#00ff00;fill-opacity:1;stroke:#61c645;stroke-width:0.982813;stroke-linecap:round;stroke-opacity:1;paint-order:stroke fill markers;stop-color:#000000"
         id="path1366-3"
         sodipodi:type="arc"
         sodipodi:cx="21.550406"
         sodipodi:cy="7.6212773"
         sodipodi:rx="1.1007482"
         sodipodi:ry="2.1013055"
         sodipodi:start="0"
         sodipodi:end="6.2783333"
         sodipodi:open="true"
         sodipodi:arc-type="arc"
         d="m 22.651154,7.6212773 a 1.1007482,2.1013055 0 0 1 -1.099413,2.101304 1.1007482,2.1013055 0 0 1 -1.10208,-2.0962062 1.1007482,2.1013055 0 0 1 1.096739,-2.1063893 1.1007482,2.1013055 0 0 1 1.104741,2.091096" /><path
         style="display:inline;fill:#00ff00;fill-opacity:1;stroke:#61c645;stroke-width:0.982815;stroke-linecap:round;stroke-opacity:1;paint-order:stroke fill markers;stop-color:#000000"
         id="path1366-7"
         sodipodi:type="arc"
         sodipodi:cx="25.374405"
         sodipodi:cy="3.7306178"
         sodipodi:rx="1.1142154"
         sodipodi:ry="1.1570307"
         sodipodi:start="0"
         sodipodi:end="6.2783333"
         sodipodi:open="true"
         sodipodi:arc-type="arc"
         d="m 26.48862,3.7306178 a 1.1142154,1.1570307 0 0 1 -1.112864,1.1570298 1.1142154,1.1570307 0 0 1 -1.115563,-1.1542229 1.1142154,1.1570307 0 0 1 1.110157,-1.15983 1.1142154,1.1570307 0 0 1 1.118257,1.1514092" /></g></g></svg>
