<?xml version="1.0" encoding="UTF-8" standalone="no"?>
<!-- Created with Inkscape (http://www.inkscape.org/) -->

<svg
   width="20mm"
   height="20mm"
   viewBox="0 0 20 20"
   version="1.1"
   id="svg135"
   inkscape:version="1.2.1 (9c6d41e410, 2022-07-14, custom)"
   sodipodi:docname="egsahst.svg"
   xmlns:inkscape="http://www.inkscape.org/namespaces/inkscape"
   xmlns:sodipodi="http://sodipodi.sourceforge.net/DTD/sodipodi-0.dtd"
   xmlns="http://www.w3.org/2000/svg"
   xmlns:svg="http://www.w3.org/2000/svg">
  <sodipodi:namedview
     id="namedview137"
     pagecolor="#000000"
     bordercolor="#eeeeee"
     borderopacity="1"
     inkscape:showpageshadow="0"
     inkscape:pageopacity="0"
     inkscape:pagecheckerboard="0"
     inkscape:deskcolor="#505050"
     inkscape:document-units="mm"
     showgrid="false"
     inkscape:zoom="10.252604"
     inkscape:cx="37.795276"
     inkscape:cy="37.990348"
     inkscape:window-width="1920"
     inkscape:window-height="1015"
     inkscape:window-x="0"
     inkscape:window-y="0"
     inkscape:window-maximized="1"
     inkscape:current-layer="layer1" />
  <defs
     id="defs132" />
  <g
     inkscape:label="Layer 1"
     inkscape:groupmode="layer"
     id="layer1">
    <rect
       style="fill:#550000;fill-opacity:1;stroke:#501616;stroke-width:0.665001;stroke-linecap:round;stroke-dasharray:none;stroke-opacity:1;paint-order:stroke fill markers;stop-color:#000000"
       id="rect32352-7"
       width="0.18633679"
       height="2.3972104"
       x="11.694858"
       y="9.3487902"
       transform="rotate(-8.8008864)" />
    <rect
       style="fill:#550000;fill-opacity:1;stroke:#501616;stroke-width:0.665001;stroke-linecap:round;stroke-dasharray:none;stroke-opacity:1;paint-order:stroke fill markers;stop-color:#000000"
       id="rect32352-2"
       width="0.18633679"
       height="2.3972104"
       x="11.788765"
       y="17.293016"
       transform="rotate(-8.8008864)" />
    <rect
       style="fill:#550000;fill-opacity:1;stroke:#501616;stroke-width:0.665001;stroke-linecap:round;stroke-dasharray:none;stroke-opacity:1;paint-order:stroke fill markers;stop-color:#000000"
       id="rect32352-2-0"
       width="0.18633679"
       height="2.3972104"
       x="2.9231799"
       y="8.3299274"
       transform="rotate(-8.8008864)" />
    <rect
       style="opacity:1;fill:#550000;fill-opacity:1;stroke:#501616;stroke-width:0.665001;stroke-linecap:round;stroke-dasharray:none;stroke-opacity:1;paint-order:stroke fill markers;stop-color:#000000"
       id="rect32352"
       width="0.18633679"
       height="2.3972104"
       x="3.4228518"
       y="17.172857"
       transform="rotate(-8.8008864)" />
    <rect
       style="opacity:1;fill:#ffffff;fill-opacity:1;stroke:#cccccc;stroke-width:0.665001;stroke-linecap:round;stroke-dasharray:none;stroke-opacity:1;paint-order:stroke fill markers;stop-color:#000000"
       id="rect32081"
       width="8.2911224"
       height="11.632497"
       x="2.9664369"
       y="5.1474152"
       transform="rotate(-10.008108)" />
    <rect
       style="opacity:1;fill:#ffffff;fill-opacity:1;stroke:#cccccc;stroke-width:0.665001;stroke-linecap:round;stroke-dasharray:none;stroke-opacity:1;paint-order:stroke fill markers;stop-color:#000000"
       id="rect32083"
       width="5.764565"
       height="2.6798089"
       x="4.2287993"
       y="5.9663877"
       transform="rotate(-10.008108)" />
    <rect
       style="opacity:0.77;fill:#ffff00;fill-opacity:1;stroke:#ffd42a;stroke-width:0.665001;stroke-linecap:round;stroke-dasharray:none;stroke-opacity:1;paint-order:stroke fill markers;stop-color:#000000"
       id="rect32085"
       width="8.6710825"
       height="8.1475677"
       x="2.8108506"
       y="9.4789095"
       transform="rotate(-10.008108)" />
    <path
       style="opacity:0.9;fill:none;fill-opacity:1;stroke:#d40000;stroke-width:0.723012;stroke-linecap:round;stroke-dasharray:none;stroke-opacity:1;paint-order:stroke fill markers;stop-color:#000000"
       id="path32572"
       sodipodi:type="arc"
       sodipodi:cx="9.2295914"
       sodipodi:cy="10.795996"
       sodipodi:rx="9.1288509"
       sodipodi:ry="9.3237619"
       sodipodi:start="0"
       sodipodi:end="6.2783333"
       sodipodi:open="true"
       sodipodi:arc-type="arc"
       d="M 18.358442,10.795996 A 9.1288509,9.3237619 0 0 1 9.2406647,20.119751 9.1288509,9.3237619 0 0 1 0.1007673,10.818615 9.1288509,9.3237619 0 0 1 9.1963715,1.4722955 9.1288509,9.3237619 0 0 1 18.358335,10.750757" />
    <path
       style="fill:none;stroke:#ff0000;stroke-width:0.3357px;stroke-linecap:butt;stroke-linejoin:miter;stroke-opacity:1;opacity:0.8"
       d="M 0.77599374,2.6994553 17.673506,19.13995 Z"
       id="path32626" />
    <path
       sodipodi:type="spiral"
       style="fill:#008080;fill-rule:evenodd;stroke:#000080;stroke-width:0.264583"
       id="path33075"
       sodipodi:cx="1.4277493"
       sodipodi:cy="7.9792824"
       sodipodi:expansion="1"
       sodipodi:revolution="3.2584336"
       sodipodi:radius="1.7977374"
       sodipodi:argument="-19.958031"
       sodipodi:t0="0"
       d="m 1.4277493,7.9792824 c 0.037014,-0.074275 0.1183825,0.01325 0.1234496,0.06152 C 1.5649304,8.1716122 1.4155266,8.2434011 1.3047086,8.2261817 1.1064812,8.1953801 1.0107201,7.9751132 1.0574003,7.7947214 1.1259055,7.5299891 1.4251751,7.4073405 1.6738306,7.4854838 2.0052492,7.5896365 2.1554145,7.9703965 2.0449975,8.286884 1.906049,8.6851513 1.4427493,8.8630817 1.0586273,8.7199803 0.59340408,8.5466652 0.38757952,8.0002869 0.56360176,7.5486401 0.77103787,7.0163899 1.4008083,6.7825942 1.9199119,6.9916852 2.5192376,7.2330891 2.7810548,7.9464504 2.5387961,8.5329654 2.2635263,9.1994009 1.4664402,9.4892743 0.81254597,9.2137788 0.07897545,8.9047145 -0.23897943,8.0238089 0.06980318,7.3025587 0.41261039,6.5018344 1.3774049,6.1557793 2.1659932,6.4978866 3.033886,6.874398 3.4080558,7.9231338 3.0325947,8.7790467 c -0.012755,0.029076 -0.026283,0.057813 -0.040563,0.086171" />
    <path
       sodipodi:type="spiral"
       style="fill:#000080;fill-rule:evenodd;stroke:#008080;stroke-width:0.264583"
       id="path33075-6"
       sodipodi:cx="1.4277493"
       sodipodi:cy="7.9792824"
       sodipodi:expansion="1"
       sodipodi:revolution="3.2584336"
       sodipodi:radius="1.7977374"
       sodipodi:argument="-19.958031"
       sodipodi:t0="0"
       d="m 1.4277493,7.9792824 c 0.037014,-0.074275 0.1183825,0.01325 0.1234496,0.06152 C 1.5649304,8.1716122 1.4155266,8.2434011 1.3047086,8.2261817 1.1064812,8.1953801 1.0107201,7.9751132 1.0574003,7.7947214 1.1259055,7.5299891 1.4251751,7.4073405 1.6738306,7.4854838 2.0052492,7.5896365 2.1554145,7.9703965 2.0449975,8.286884 1.906049,8.6851513 1.4427493,8.8630817 1.0586273,8.7199803 0.59340408,8.5466652 0.38757952,8.0002869 0.56360176,7.5486401 0.77103787,7.0163899 1.4008083,6.7825942 1.9199119,6.9916852 2.5192376,7.2330891 2.7810548,7.9464504 2.5387961,8.5329654 2.2635263,9.1994009 1.4664402,9.4892743 0.81254597,9.2137788 0.07897545,8.9047145 -0.23897943,8.0238089 0.06980318,7.3025587 0.41261039,6.5018344 1.3774049,6.1557793 2.1659932,6.4978866 3.033886,6.874398 3.4080558,7.9231338 3.0325947,8.7790467 c -0.012755,0.029076 -0.026283,0.057813 -0.040563,0.086171"
       transform="matrix(-0.13302615,-0.99111253,-0.99111253,0.13302615,23.501127,13.391372)" />
  </g>
</svg>
