<?xml version="1.0" encoding="UTF-8" standalone="no"?>
<!-- Created with Inkscape (http://www.inkscape.org/) -->

<svg
   width="40mm"
   height="40mm"
   viewBox="0 0 40 40"
   version="1.1"
   id="svg135"
   inkscape:version="1.2.1 (9c6d41e410, 2022-07-14, custom)"
   sodipodi:docname="forager.svg"
   xml:space="preserve"
   xmlns:inkscape="http://www.inkscape.org/namespaces/inkscape"
   xmlns:sodipodi="http://sodipodi.sourceforge.net/DTD/sodipodi-0.dtd"
   xmlns="http://www.w3.org/2000/svg"
   xmlns:svg="http://www.w3.org/2000/svg"><sodipodi:namedview
     id="namedview137"
     pagecolor="#ffffff"
     bordercolor="#eeeeee"
     borderopacity="1"
     inkscape:showpageshadow="0"
     inkscape:pageopacity="0"
     inkscape:pagecheckerboard="0"
     inkscape:deskcolor="#505050"
     inkscape:document-units="mm"
     showgrid="false"
     inkscape:zoom="5.3247396"
     inkscape:cx="67.984545"
     inkscape:cy="87.234313"
     inkscape:window-width="1920"
     inkscape:window-height="1015"
     inkscape:window-x="0"
     inkscape:window-y="0"
     inkscape:window-maximized="1"
     inkscape:current-layer="layer1" /><defs
     id="defs132"><linearGradient
       id="linearGradient1705"
       inkscape:swatch="solid"><stop
         style="stop-color:#808080;stop-opacity:1;"
         offset="0"
         id="stop1703" /></linearGradient></defs><g
     inkscape:label="Layer 1"
     inkscape:groupmode="layer"
     id="layer1"><g
       id="g4759"
       transform="matrix(0.99970796,0,0,1.153884,0.00593523,-6.1055773)"><path
         style="fill:#ffff00;stroke:#000000;stroke-width:0.0610093;stroke-linecap:butt;stroke-linejoin:miter;stroke-dasharray:none;stroke-opacity:1"
         d="m 12.782884,14.948856 -3.533016,4.325623 0.060771,4.460534 c -1.0651191,0.154248 -1.6576524,0.576004 -1.4018944,1.477923 1.0016203,1.218735 2.6346034,1.479986 3.8583874,-0.05716 -0.03123,-0.776005 -0.328064,-1.284309 -1.112408,-1.301278 l -0.415976,-4.551409 3.518533,-3.798812 z"
         id="path867"
         sodipodi:nodetypes="ccccccccc" /><path
         style="fill:#ffff00;stroke:#000000;stroke-width:0.0610093;stroke-linecap:butt;stroke-linejoin:miter;stroke-dasharray:none;stroke-opacity:1"
         d="m 27.863936,15.608749 3.533017,4.325623 -0.06078,4.460534 c 1.06512,0.154248 1.657653,0.576003 1.401896,1.477923 -1.001623,1.218735 -2.634604,1.479986 -3.858388,-0.05716 0.03121,-0.776005 0.328063,-1.284309 1.112407,-1.301278 l 0.415976,-4.551409 -3.518532,-3.798812 z"
         id="path867-3"
         sodipodi:nodetypes="ccccccccc" /><g
         id="g4730"><path
           style="fill:#ffff00;stroke:#000000;stroke-width:0.0469302;stroke-linecap:butt;stroke-linejoin:miter;stroke-dasharray:none;stroke-opacity:1"
           d="m 15.98865,28.761283 7.587215,-0.254073 1.067698,9.270862 -1.599901,0.237869 -0.499896,-8.16915 -5.944029,-0.202542 -1.265156,8.363461 -1.746219,0.09743 z"
           id="path1793"
           sodipodi:nodetypes="ccccccccc" /><path
           style="fill:#800080;stroke:#000000;stroke-width:0.15487;stroke-linecap:butt;stroke-linejoin:miter;stroke-dasharray:none;stroke-opacity:1"
           d="m 14.543757,27.475342 -0.634964,5.418474 2.90148,0.321396 0.551237,-3.110365 4.584497,0.399877 0.371776,2.721982 2.428842,-0.07059 0.887205,-5.736628 z"
           id="path1789"
           sodipodi:nodetypes="ccccccccc" /><path
           style="fill:#ffff00;stroke:#000000;stroke-width:0.18772;stroke-linecap:butt;stroke-linejoin:miter;stroke-dasharray:none;stroke-opacity:1"
           d="m 17.841792,15.495139 c 0.04175,-0.0065 0.69998,-1.415316 0.105759,-1.941352 -0.710816,-0.629253 -2.460287,-1.597058 -2.48922,-2.484507 -0.04492,-1.3777958 2.246222,-3.5050783 3.806679,-3.4078193 1.086821,0.067739 4.146454,2.9017293 4.142452,3.8617203 -0.0037,0.89218 -2.473886,1.39902 -2.802443,2.242934 -0.263484,0.676772 0.169568,1.880685 0.169568,1.880685 l -0.651307,0.910418 -1.415892,1.084256 -1.77665,-0.554935 z"
           id="path1620"
           sodipodi:nodetypes="csssssccccc" /><path
           style="fill:#501616;stroke:#000000;stroke-width:0.0469302;stroke-linecap:butt;stroke-linejoin:miter;stroke-dasharray:none;stroke-opacity:1"
           d="M 27.95146,18.324971 29.604322,17.101848 27.786156,14.8532 24.239205,14.77311 c -1.986669,0.516786 -5.308453,1.731778 -7.89222,0.06948 l -4.59087,0.03339 -1.399199,1.91552 1.629445,1.159435 2.197471,-2.020347 0.115112,12.052901 11.358954,-0.198768 0.06345,-12.1278 z"
           id="path1568"
           sodipodi:nodetypes="ccccccccccccc" /><g
           id="g3048"><path
             style="fill:#c87137;stroke:#000000;stroke-width:0.0610093;stroke-linecap:butt;stroke-linejoin:miter;stroke-dasharray:none;stroke-opacity:1"
             d="m 14.590723,24.306026 2.10977,0.05355 0.177682,0.98589 -2.260421,0.03123 z"
             id="path1570" /><path
             style="fill:#c87137;stroke:#000000;stroke-width:0.0610093;stroke-linecap:butt;stroke-linejoin:miter;stroke-dasharray:none;stroke-opacity:1"
             d="m 17.038734,24.448885 2.109771,0.05356 0.177681,0.98589 -2.26042,0.03123 z"
             id="path1570-6" /><path
             style="fill:#c87137;stroke:#000000;stroke-width:0.0610093;stroke-linecap:butt;stroke-linejoin:miter;stroke-dasharray:none;stroke-opacity:1"
             d="m 19.807765,24.222978 2.109771,0.05355 0.177679,0.985891 -2.26042,0.03123 z"
             id="path1570-7" /><path
             style="fill:#c87137;stroke:#000000;stroke-width:0.0610093;stroke-linecap:butt;stroke-linejoin:miter;stroke-dasharray:none;stroke-opacity:1"
             d="m 22.730631,23.951887 2.109771,0.05355 0.177679,0.98589 -2.26042,0.03123 z"
             id="path1570-5" /><g
             id="g3033"
             transform="translate(-0.52916667,0.52916667)"><path
               style="fill:#c87137;stroke:#000000;stroke-width:0.0610093;stroke-linecap:butt;stroke-linejoin:miter;stroke-dasharray:none;stroke-opacity:1"
               d="m 15.603647,25.359315 2.10977,0.05355 0.177682,0.98589 -2.260421,0.03123 z"
               id="path1570-61" /><path
               style="fill:#c87137;stroke:#000000;stroke-width:0.0610093;stroke-linecap:butt;stroke-linejoin:miter;stroke-dasharray:none;stroke-opacity:1"
               d="m 18.051658,25.502174 2.109771,0.05356 0.177681,0.98589 -2.26042,0.03123 z"
               id="path1570-6-8" /><path
               style="fill:#c87137;stroke:#000000;stroke-width:0.0610093;stroke-linecap:butt;stroke-linejoin:miter;stroke-dasharray:none;stroke-opacity:1"
               d="m 20.820689,25.276267 2.109771,0.05355 0.177679,0.985891 -2.26042,0.03123 z"
               id="path1570-7-7" /><path
               style="fill:#c87137;stroke:#000000;stroke-width:0.0610093;stroke-linecap:butt;stroke-linejoin:miter;stroke-dasharray:none;stroke-opacity:1"
               d="m 23.743555,25.005176 2.109771,0.05355 0.177679,0.98589 -2.26042,0.03123 z"
               id="path1570-5-9" /></g><path
             style="fill:#c87137;stroke:#000000;stroke-width:0.0610093;stroke-linecap:butt;stroke-linejoin:miter;stroke-dasharray:none;stroke-opacity:1"
             d="m 14.709237,22.626396 2.10977,0.05355 0.177682,0.98589 -2.260421,0.03123 z"
             id="path1570-2" /><path
             style="fill:#c87137;stroke:#000000;stroke-width:0.0610093;stroke-linecap:butt;stroke-linejoin:miter;stroke-dasharray:none;stroke-opacity:1"
             d="m 17.157248,22.769255 2.109771,0.05356 0.177681,0.98589 -2.26042,0.03123 z"
             id="path1570-6-0" /><path
             style="fill:#c87137;stroke:#000000;stroke-width:0.0610093;stroke-linecap:butt;stroke-linejoin:miter;stroke-dasharray:none;stroke-opacity:1"
             d="m 19.926279,22.543348 2.109771,0.05355 0.177679,0.985891 -2.26042,0.03123 z"
             id="path1570-7-2" /><path
             style="fill:#c87137;stroke:#000000;stroke-width:0.0610093;stroke-linecap:butt;stroke-linejoin:miter;stroke-dasharray:none;stroke-opacity:1"
             d="m 22.849145,22.272257 2.109771,0.05355 0.177679,0.98589 -2.26042,0.03123 z"
             id="path1570-5-3" /></g><path
           style="fill:#a01414;fill-opacity:1;stroke:#000000;stroke-width:0;stroke-linecap:butt;stroke-linejoin:miter;stroke-dasharray:none;stroke-opacity:1"
           d="m 17.054805,21.934262 c 1.253925,1.35068 4.151995,2.181426 5.474606,0.391608 l 2.842982,-3.847262 1.013246,-1.762071 1.721337,-2.424174 c -3.360289,-0.3313 -6.231207,1.054792 -8.559493,1.027446 -2.295856,-0.02696 -4.245521,-1.091059 -7.620125,-0.870369 l 2.417721,4.566006 z"
           id="path1779"
           sodipodi:nodetypes="sscccsccs" /><path
           style="fill:#800000;stroke:#000000;stroke-width:0.0469302;stroke-linecap:butt;stroke-linejoin:miter;stroke-dasharray:none;stroke-opacity:1"
           d="m 21.946705,37.678046 0.200482,1.935377 6.189094,0.06369 c -1.998957,-1.690962 -1.650415,-3.317512 -3.279262,-0.979766 l -0.266288,-1.139495 c -0.954441,-0.01531 -1.897908,0.0242 -2.844026,0.120196 z"
           id="path1795"
           sodipodi:nodetypes="cccccc" /><path
           style="fill:#800000;stroke:#000000;stroke-width:0.0469302;stroke-linecap:butt;stroke-linejoin:miter;stroke-dasharray:none;stroke-opacity:1"
           d="m 15.92749,37.564025 -0.200481,1.935377 -6.1890961,0.06369 C 11.53687,37.872129 11.188328,36.24558 12.817176,38.583324 l 0.266287,-1.139495 c 0.954442,-0.01531 1.897908,0.0242 2.844027,0.120196 z"
           id="path1795-3"
           sodipodi:nodetypes="cccccc" /><g
           id="g2937"
           transform="matrix(1.1130814,0,0,0.68346226,-3.1565344,2.7206871)"><path
             sodipodi:type="star"
             style="opacity:1;fill:#40ac40;fill-opacity:1;stroke:#000000;stroke-width:0.402;stroke-linecap:round;stroke-linejoin:round;paint-order:markers stroke fill;stop-color:#000000"
             id="path2271"
             inkscape:flatsided="false"
             sodipodi:sides="12"
             sodipodi:cx="9.2052889"
             sodipodi:cy="5.1619759"
             sodipodi:r1="3.7515681"
             sodipodi:r2="1.7318031"
             sodipodi:arg1="0.66420013"
             sodipodi:arg2="0.94249945"
             inkscape:rounded="0"
             inkscape:randomized="0"
             d="M 12.159311,7.4745531 10.223187,6.563056 10.607259,8.6417378 9.3862743,6.8842958 8.6795495,8.8765231 8.5008669,6.7440414 6.8927116,8.1159985 7.8042087,6.1798738 5.7255269,6.5639458 7.4829689,5.3429613 5.4907416,4.6362365 7.6232233,4.4575538 6.2512663,2.8493986 8.1873909,3.7608957 7.8033189,1.6822139 l 1.2209846,1.757442 0.7067247,-1.9922273 0.1786827,2.1324817 1.6081551,-1.371957 -0.911497,1.9361246 2.078682,-0.384072 -1.757442,1.2209845 1.992227,0.7067248 -2.132482,0.1786827 z"
             transform="matrix(1.2783687,0,0,0.79157012,7.9071708,4.4932929)" /><path
             style="opacity:1;fill:#008000;stroke:#000000;stroke-width:0.402;stroke-linecap:round;stroke-linejoin:round;stroke-dasharray:11.256;stroke-dashoffset:0;paint-order:markers stroke fill;stop-color:#000000"
             d="m 17.887556,9.2034848 c 0.0082,-0.4035199 0.363501,-3.8185712 0.363501,-3.8185712 l 3.754179,0.1226243 -0.462348,3.7959839 z"
             id="path2379" /></g></g></g><g
       id="layer2"
       inkscape:label="Layer 2"
       style="display:inline"
       transform="matrix(0.22029165,0,0,0.22029165,5.3794089,19.649189)"><path
         style="fill:#5d2626;fill-opacity:1;stroke:#2b0000;stroke-width:0.2;stroke-linecap:round;stroke-linejoin:round;stroke-dasharray:none;stroke-opacity:1;paint-order:stroke fill markers;stop-color:#000000"
         d="M 10.634393,5.7686573 10.782528,35.455319 30.736439,35.25612 30.553785,5.8035688 Z"
         id="path1522"
         sodipodi:nodetypes="ccccc" /><path
         style="opacity:1;fill:#999999;fill-opacity:1;stroke:#000000;stroke-width:0.2;stroke-linecap:round;stroke-linejoin:round;stroke-dasharray:none;stroke-opacity:1;paint-order:stroke fill markers;stop-color:#000000"
         d="m 10.628691,13.756671 19.985755,-0.11682"
         id="path5560"
         sodipodi:nodetypes="cc" /><path
         style="display:inline;opacity:0.31;fill:#000000;fill-opacity:1;stroke:#000000;stroke-width:0.2;stroke-linecap:round;stroke-linejoin:round;stroke-dasharray:none;stroke-opacity:1;paint-order:stroke fill markers;stop-color:#000000"
         d="m 20.342762,26.376589 c 0.434715,1.725957 0.871972,2.026468 0.246876,6.675393"
         id="path2412-70"
         sodipodi:nodetypes="cc" /><path
         style="display:inline;opacity:0.31;fill:#000000;fill-opacity:1;stroke:#000000;stroke-width:0.2;stroke-linecap:round;stroke-linejoin:round;stroke-dasharray:none;stroke-opacity:1;paint-order:stroke fill markers;stop-color:#000000"
         d="m 17.460774,15.196465 c 0.434715,1.725957 0.871972,2.026468 0.246876,6.675393"
         id="path2412-93"
         sodipodi:nodetypes="cc" /><path
         style="opacity:0.31;fill:#000000;fill-opacity:1;stroke:#000000;stroke-width:0.2;stroke-linecap:round;stroke-linejoin:round;stroke-dasharray:none;stroke-opacity:1;paint-order:stroke fill markers;stop-color:#000000"
         d="m 11.571987,11.921816 c 0.434715,1.725957 0.871972,2.026468 0.246876,6.675393"
         id="path2412"
         sodipodi:nodetypes="cc" /><path
         style="display:inline;opacity:0.31;fill:#000000;fill-opacity:1;stroke:#000000;stroke-width:0.2;stroke-linecap:round;stroke-linejoin:round;stroke-dasharray:none;stroke-opacity:1;paint-order:stroke fill markers;stop-color:#000000"
         d="m 21.187483,12.662304 c 0.434714,1.725956 0.871971,2.026468 0.246876,6.675392"
         id="path2412-3"
         sodipodi:nodetypes="cc" /><path
         style="display:inline;opacity:0.31;fill:#000000;fill-opacity:1;stroke:#000000;stroke-width:0.2;stroke-linecap:round;stroke-linejoin:round;stroke-dasharray:none;stroke-opacity:1;paint-order:stroke fill markers;stop-color:#000000"
         d="m 17.907979,22.898328 c 0.434715,1.725957 0.871972,2.026468 0.246876,6.675393"
         id="path2412-6"
         sodipodi:nodetypes="cc" /><path
         style="display:inline;opacity:0.31;fill:#000000;fill-opacity:1;stroke:#000000;stroke-width:0.2;stroke-linecap:round;stroke-linejoin:round;stroke-dasharray:none;stroke-opacity:1;paint-order:stroke fill markers;stop-color:#000000"
         d="m 26.504253,17.929384 c 0.434715,1.725957 0.871972,2.026468 0.246876,6.675393"
         id="path2412-7"
         sodipodi:nodetypes="cc" /><path
         style="display:inline;opacity:0.31;fill:#000000;fill-opacity:1;stroke:#000000;stroke-width:0.2;stroke-linecap:round;stroke-linejoin:round;stroke-dasharray:none;stroke-opacity:1;paint-order:stroke fill markers;stop-color:#000000"
         d="m 14.032203,22.997707 c 0.434715,1.725957 0.871972,2.026468 0.246876,6.675393"
         id="path2412-5"
         sodipodi:nodetypes="cc" /><path
         style="display:inline;opacity:0.31;fill:#000000;fill-opacity:1;stroke:#000000;stroke-width:0.2;stroke-linecap:round;stroke-linejoin:round;stroke-dasharray:none;stroke-opacity:1;paint-order:stroke fill markers;stop-color:#000000"
         d="m 16.640581,9.6776388 c 0.434715,1.7259572 0.871972,2.0264682 0.246876,6.6753932"
         id="path2412-35"
         sodipodi:nodetypes="cc" /><path
         style="display:inline;opacity:0.31;fill:#000000;fill-opacity:1;stroke:#000000;stroke-width:0.2;stroke-linecap:round;stroke-linejoin:round;stroke-dasharray:none;stroke-opacity:1;paint-order:stroke fill markers;stop-color:#000000"
         d="m 26.355184,8.2399433 c 0.434715,1.725957 0.871972,2.0264677 0.246876,6.6753927"
         id="path2412-62"
         sodipodi:nodetypes="cc" /><path
         style="display:inline;opacity:0.31;fill:#000000;fill-opacity:1;stroke:#000000;stroke-width:0.2;stroke-linecap:round;stroke-linejoin:round;stroke-dasharray:none;stroke-opacity:1;paint-order:stroke fill markers;stop-color:#000000"
         d="m 24.417296,27.022552 c 0.434715,1.725957 0.871972,2.026468 0.246876,6.675393"
         id="path2412-9"
         sodipodi:nodetypes="cc" /><path
         style="opacity:0;fill:#ffff00;fill-opacity:1;stroke:#000000;stroke-width:0.2;stroke-linecap:round;stroke-linejoin:round;stroke-dasharray:none;stroke-opacity:1;paint-order:stroke fill markers;stop-color:#000000"
         id="path5218"
         sodipodi:type="arc"
         sodipodi:cx="8.5592222"
         sodipodi:cy="19.528223"
         sodipodi:rx="3.1291473"
         sodipodi:ry="3.3945141"
         sodipodi:start="0"
         sodipodi:end="6.2783333"
         sodipodi:open="true"
         sodipodi:arc-type="arc"
         d="M 11.68837,19.528223 A 3.1291473,3.3945141 0 0 1 8.5630179,22.922735 3.1291473,3.3945141 0 0 1 5.4300841,19.536458 3.1291473,3.3945141 0 0 1 8.5478353,16.133731 3.1291473,3.3945141 0 0 1 11.688333,19.511753" /><path
         sodipodi:type="star"
         style="opacity:0.65;fill:#ffff00;fill-opacity:1;stroke:#ffff00;stroke-width:1.16001;stroke-linecap:round;stroke-linejoin:round;stroke-dasharray:none;stroke-opacity:1;paint-order:stroke fill markers;stop-color:#000000"
         id="path5336"
         inkscape:flatsided="true"
         sodipodi:sides="1024"
         sodipodi:cx="0.99724621"
         sodipodi:cy="9.364646"
         sodipodi:r1="7.5873537"
         sodipodi:r2="6.1971083"
         sodipodi:arg1="0.74421089"
         sodipodi:arg2="0.74727885"
         inkscape:rounded="0"
         inkscape:randomized="0"
         d="m 6.5786756,14.504255 -0.031641,0.03415 -0.03185,0.03396 -0.032058,0.03376 -0.032264,0.03356 -0.03247,0.03336 -0.032674,0.03316 -0.032877,0.03296 -0.033078,0.03276 -0.033279,0.03256 -0.033478,0.03235 -0.033676,0.03215 -0.033872,0.03194 -0.034068,0.03173 -0.034262,0.03152 -0.034454,0.03131 -0.034646,0.0311 -0.034836,0.03089 -0.035025,0.03067 -0.035212,0.03045 -0.035399,0.03024 -0.035583,0.03002 -0.035767,0.0298 -0.035949,0.02958 -0.03613,0.02936 -0.03631,0.02914 -0.036488,0.02891 -0.036664,0.02869 -0.03684,0.02846 -0.037014,0.02824 -0.037186,0.02801 -0.037357,0.02778 -0.037527,0.02755 -0.037696,0.02732 -0.037862,0.02709 -0.038028,0.02686 -0.038192,0.02662 -0.038355,0.02639 -0.038516,0.02615 -0.038676,0.02591 -0.038834,0.02568 -0.038991,0.02544 -0.039146,0.0252 -0.0393,0.02496 -0.039452,0.02472 -0.039603,0.02447 -0.039753,0.02423 -0.039901,0.02399 -0.040047,0.02374 -0.040192,0.02349 -0.040335,0.02325 -0.040477,0.023 -0.040618,0.02275 -0.040756,0.0225 -0.040894,0.02225 -0.04103,0.022 -0.041164,0.02175 -0.041296,0.0215 -0.041427,0.02124 -0.041557,0.02099 -0.041685,0.02073 -0.041811,0.02047 -0.041936,0.02022 -0.04206,0.01996 -0.042181,0.0197 -0.042301,0.01944 -0.04242,0.01918 -0.042537,0.01892 -0.042652,0.01866 -0.042766,0.0184 -0.042878,0.01813 -0.042988,0.01787 -0.043097,0.01761 -0.043204,0.01734 -0.04331,0.01708 -0.043414,0.01681 -0.043516,0.01655 -0.043617,0.01628 -0.043716,0.01601 -0.043813,0.01574 -0.043909,0.01547 -0.044003,0.0152 -0.044096,0.01493 -0.044186,0.01466 -0.044276,0.01439 -0.044363,0.01412 -0.044449,0.01385 -0.044533,0.01357 -0.044615,0.0133 -0.044696,0.01302 -0.044775,0.01275 -0.044853,0.01248 -0.044928,0.0122 -0.045002,0.01192 -0.045075,0.01165 -0.045145,0.01137 -0.045214,0.01109 -0.045282,0.01082 -0.045347,0.01054 -0.045411,0.01026 -0.045473,0.01 -0.045533,0.0097 -0.045592,0.0094 -0.045649,0.0091 -0.045704,0.0089 -0.045758,0.0086 -0.045809,0.0083 -0.045859,0.008 -0.045908,0.0077 -0.045955,0.0075 -0.045999,0.0072 -0.046043,0.0069 -0.046084,0.0066 -0.046124,0.0063 -0.046161,0.006 -0.046198,0.0058 -0.046232,0.0055 -0.046265,0.0052 -0.046296,0.0049 -0.046325,0.0046 -0.046353,0.0043 -0.046378,0.0041 -0.046402,0.0038 -0.046425,0.0035 -0.046445,0.0032 -0.046464,0.0029 -0.046481,0.0026 -0.046496,0.0023 -0.04651,0.0021 -0.046522,0.0018 -0.046531,0.0015 -0.04654,0.0012 -0.046546,9.18e-4 -0.046551,6.32e-4 -0.046554,3.46e-4 -0.0465553,6.1e-5 -0.0465548,-2.25e-4 -0.0465526,-5.11e-4 -0.0465485,-7.96e-4 -0.0465428,-0.0011 -0.0465353,-0.0014 -0.046526,-0.0017 -0.046515,-0.0019 -0.0465022,-0.0022 -0.0464877,-0.0025 -0.0464714,-0.0028 -0.0464534,-0.0031 -0.0464336,-0.0034 -0.0464121,-0.0036 -0.0463888,-0.0039 -0.0463638,-0.0042 -0.0463371,-0.0045 -0.0463086,-0.0048 -0.0462783,-0.0051 -0.0462464,-0.0054 -0.04621262,-0.0056 -0.04617715,-0.0059 -0.04613995,-0.0062 -0.046101,-0.0065 -0.04606032,-0.0068 -0.0460179,-0.0071 -0.0459738,-0.0073 -0.0459279,-0.0076 -0.0458803,-0.0079 -0.0458309,-0.0082 -0.0457799,-0.0085 -0.0457271,-0.0087 -0.0456726,-0.009 -0.0456164,-0.0093 -0.0455584,-0.0096 -0.0454988,-0.0099 -0.0454374,-0.01014 -0.0453743,-0.01042 -0.0453095,-0.0107 -0.0452431,-0.01098 -0.0451748,-0.01125 -0.045105,-0.01153 -0.0450333,-0.01181 -0.0449601,-0.01208 -0.0448851,-0.01236 -0.044808,-0.01263 -0.04473,-0.01291 -0.04465,-0.01318 -0.044568,-0.01346 -0.044485,-0.01373 -0.0444,-0.014 -0.044313,-0.01427 -0.044225,-0.01455 -0.044135,-0.01482 -0.044043,-0.01509 -0.043949,-0.01536 -0.043854,-0.01563 -0.043758,-0.0159 -0.043659,-0.01616 -0.043559,-0.01643 -0.043458,-0.0167 -0.043354,-0.01696 -0.043249,-0.01723 -0.043143,-0.0175 -0.043035,-0.01776 -0.042925,-0.01802 -0.042814,-0.01829 -0.042701,-0.01855 -0.042586,-0.01881 -0.04247,-0.01907 -0.042352,-0.01933 -0.042232,-0.01959 -0.042111,-0.01985 -0.041989,-0.02011 -0.041865,-0.02037 -0.041739,-0.02062 -0.041612,-0.02088 -0.041483,-0.02113 -0.041352,-0.02139 -0.04122,-0.02164 -0.041087,-0.02189 -0.040952,-0.02214 -0.040815,-0.02239 -0.040677,-0.02264 -0.040537,-0.02289 -0.040396,-0.02314 -0.040253,-0.02339 -0.040109,-0.02364 -0.039963,-0.02388 -0.039816,-0.02413 -0.039667,-0.02437 -0.039517,-0.02461 -0.039365,-0.02486 -0.039212,-0.0251 -0.039057,-0.02534 -0.038901,-0.02558 -0.038743,-0.02581 -0.038584,-0.02605 -0.038423,-0.02629 -0.038261,-0.02652 -0.038098,-0.02676 -0.037933,-0.02699 -0.037767,-0.02722 -0.037599,-0.02745 -0.03743,-0.02768 -0.037259,-0.02791 -0.037087,-0.02814 -0.036914,-0.02837 -0.036739,-0.02859 -0.036563,-0.02882 -0.036385,-0.02904 -0.036207,-0.02927 -0.036026,-0.02949 -0.035845,-0.02971 -0.035662,-0.02993 -0.035477,-0.03015 -0.035292,-0.03036 -0.035105,-0.03058 -0.034916,-0.03079 -0.034727,-0.03101 -0.034536,-0.03122 -0.034344,-0.03143 -0.03415,-0.03164 -0.033956,-0.03185 -0.033759,-0.03206 -0.033562,-0.03226 -0.033364,-0.03247 -0.033164,-0.03267 -0.032963,-0.03288 -0.03276,-0.03308 -0.032557,-0.03328 -0.032352,-0.03348 -0.032146,-0.03368 -0.031938,-0.03387 -0.03173,-0.03407 -0.031521,-0.03426 -0.03131,-0.03445 -0.031098,-0.03465 -0.030884,-0.03484 -0.03067,-0.03502 -0.030455,-0.03521 -0.030238,-0.0354 -0.03002,-0.03558 -0.029801,-0.03577 -0.029581,-0.03595 -0.02936,-0.03613 -0.029138,-0.03631 -0.028915,-0.03649 -0.02869,-0.03666 -0.028465,-0.03684 -0.028238,-0.03701 -0.02801,-0.03719 -0.027782,-0.03736 -0.027552,-0.03753 -0.027321,-0.0377 -0.027089,-0.03786 -0.026857,-0.03803 -0.026623,-0.03819 -0.026388,-0.03836 -0.026152,-0.03852 -0.025915,-0.03867 -0.025677,-0.03883 -0.025439,-0.03899 -0.025199,-0.03915 -0.024958,-0.0393 -0.024717,-0.03945 -0.024474,-0.0396 -0.024231,-0.03975 -0.023986,-0.0399 -0.023741,-0.04005 -0.023495,-0.04019 -0.023248,-0.04033 -0.023,-0.04048 -0.022751,-0.04062 -0.022501,-0.04076 -0.022251,-0.04089 -0.021999,-0.04103 -0.021747,-0.04116 -0.021494,-0.0413 -0.021241,-0.04143 -0.020986,-0.04156 -0.020731,-0.04168 -0.020474,-0.04181 -0.020218,-0.04194 -0.01996,-0.04206 -0.019701,-0.04218 -0.019442,-0.0423 -0.019182,-0.04242 -0.018922,-0.04254 -0.01866,-0.04265 -0.018398,-0.04277 -0.018135,-0.04288 -0.017872,-0.04299 -0.017608,-0.0431 -0.017343,-0.0432 -0.017078,-0.04331 -0.016812,-0.04341 -0.016545,-0.04352 -0.016278,-0.04362 -0.01601,-0.04372 -0.015741,-0.04381 -0.015472,-0.04391 -0.015202,-0.044 -0.014932,-0.0441 -0.014661,-0.04419 -0.01439,-0.04428 -0.014118,-0.04436 -0.013845,-0.04445 -0.013572,-0.04453 -0.013299,-0.04462 -0.013025,-0.0447 -0.01275,-0.04477 -0.012475,-0.04485 -0.0122,-0.04493 -0.011924,-0.045 -0.011648,-0.04507 -0.011371,-0.04515 -0.011094,-0.04521 -0.010816,-0.04528 -0.010538,-0.04535 -0.01026,-0.04541 -0.00998,-0.04547 -0.0097,-0.04553 -0.00942,-0.04559 -0.00914,-0.04565 -0.00886,-0.0457 -0.00858,-0.04576 -0.0083,-0.04581 -0.00802,-0.04586 -0.00774,-0.04591 -0.00746,-0.04595 -0.00717,-0.046 -0.00689,-0.04604 -0.00661,-0.04608 -0.00633,-0.04612 -0.00604,-0.04616 -0.00576,-0.0462 -0.00548,-0.04623 -0.00519,-0.04626 -0.00491,-0.0463 -0.00462,-0.04633 -0.00434,-0.04635 -0.00405,-0.04638 -0.00377,-0.046402 -0.00349,-0.046425 -0.0032,-0.046445 -0.00292,-0.046464 -0.00263,-0.046481 -0.00235,-0.046496 -0.00206,-0.04651 -0.00177,-0.046522 -0.00149,-0.046532 -0.0012,-0.04654 -9.176e-4,-0.046546 -6.32e-4,-0.046551 -3.464e-4,-0.046554 -6.07e-5,-0.046555 2.25e-4,-0.046555 5.106e-4,-0.046553 7.962e-4,-0.046549 0.00108,-0.046543 0.00137,-0.046535 0.00165,-0.046526 0.00194,-0.046515 0.00222,-0.046502 0.00251,-0.046488 0.00279,-0.046472 0.00308,-0.046453 0.00336,-0.046434 0.00365,-0.046412 0.00393,-0.046389 0.00422,-0.046364 0.0045,-0.046337 0.00479,-0.046309 0.00507,-0.046278 0.00536,-0.046246 0.00564,-0.046213 0.00592,-0.046177 0.00621,-0.04614 0.00649,-0.046101 0.00677,-0.04606 0.00705,-0.046018 0.00734,-0.045974 0.00762,-0.045928 0.0079,-0.04588 0.00818,-0.045831 0.00846,-0.04578 0.00874,-0.045727 0.00902,-0.045673 0.0093,-0.045616 0.00958,-0.045558 0.00986,-0.045499 0.010141,-0.045437 0.01042,-0.045374 0.010698,-0.04531 0.010976,-0.045243 0.011253,-0.045175 0.01153,-0.045105 0.011807,-0.045033 0.012083,-0.04496 0.012358,-0.044885 0.012633,-0.044808 0.012908,-0.04473 0.013183,-0.04465 0.013456,-0.044568 0.013729,-0.044485 0.014002,-0.0444 0.014274,-0.044313 0.014546,-0.044225 0.014817,-0.044135 0.015088,-0.044043 0.015358,-0.043949 0.015627,-0.043854 0.015896,-0.043758 0.016164,-0.043659 0.016431,-0.043559 0.016698,-0.043458 0.016965,-0.043354 0.01723,-0.043249 0.017495,-0.043143 0.01776,-0.043035 0.018024,-0.042925 0.018287,-0.042814 0.018549,-0.042701 0.018811,-0.042586 0.019072,-0.04247 0.019332,-0.042352 0.019591,-0.042232 0.01985,-0.042111 0.020108,-0.041989 0.020365,-0.041865 0.020622,-0.041739 0.020878,-0.041612 0.021132,-0.041483 0.021387,-0.041352 0.02164,-0.04122 0.021892,-0.041087 0.022144,-0.040952 0.022395,-0.040815 0.022645,-0.040677 0.022894,-0.040537 0.023142,-0.040396 0.02339,-0.040253 0.023637,-0.040109 0.023882,-0.039963 0.024127,-0.039816 0.024371,-0.039667 0.024614,-0.039517 0.024856,-0.039365 0.025097,-0.039212 0.025337,-0.039057 0.025576,-0.038901 0.025814,-0.038743 0.026052,-0.038584 0.026288,-0.038423 0.026523,-0.038261 0.026757,-0.038098 0.02699,-0.037933 0.027223,-0.037767 0.027454,-0.037599 0.027684,-0.03743 0.027913,-0.037259 0.028141,-0.037087 0.028369,-0.036914 0.028594,-0.036739 0.028819,-0.036563 0.029043,-0.036385 0.029266,-0.036207 0.029488,-0.036026 0.029708,-0.035845 0.029927,-0.035662 0.030146,-0.035477 0.030363,-0.035292 0.030579,-0.035105 0.030793,-0.034917 0.031007,-0.034727 0.03122,-0.034536 0.031431,-0.034344 0.031641,-0.03415 0.03185,-0.033955 0.032058,-0.033759 0.032264,-0.033562 0.03247,-0.033363 0.032674,-0.033164 0.032877,-0.032963 0.033078,-0.03276 0.033279,-0.032557 0.033478,-0.032352 0.033676,-0.032146 0.033872,-0.031939 0.034068,-0.03173 0.034262,-0.03152 0.034454,-0.03131 0.034646,-0.031098 0.034836,-0.030885 0.035025,-0.03067 0.035213,-0.030455 0.035399,-0.030238 0.035583,-0.03002 0.035767,-0.029801 0.035949,-0.029581 0.03613,-0.02936 0.03631,-0.029138 0.036488,-0.028915 0.036664,-0.02869 0.03684,-0.028465 0.037014,-0.028238 0.037186,-0.02801 0.037358,-0.027782 0.037527,-0.027552 0.037696,-0.027321 0.037862,-0.027089 0.038028,-0.026856 0.038192,-0.026623 0.038355,-0.026388 0.038516,-0.026152 0.038676,-0.025915 0.038834,-0.025677 0.038991,-0.025439 0.039146,-0.025199 0.0393,-0.024958 0.039452,-0.024717 0.039603,-0.024474 0.039753,-0.024231 0.039901,-0.023986 0.040047,-0.023741 0.040192,-0.023495 0.040335,-0.023248 0.040477,-0.023 0.040618,-0.022751 0.040756,-0.022501 0.040894,-0.022251 0.04103,-0.022 0.041164,-0.021747 0.041296,-0.021494 0.041428,-0.021241 0.041557,-0.020986 0.041685,-0.020731 0.041812,-0.020474 0.041936,-0.020218 0.04206,-0.01996 0.042181,-0.019701 0.042301,-0.019442 0.04242,-0.019182 0.042537,-0.018922 0.042652,-0.01866 0.042766,-0.018398 0.042878,-0.018135 0.042988,-0.017872 0.043097,-0.017608 0.043204,-0.017343 0.04331,-0.017078 0.043414,-0.016812 0.043516,-0.016545 0.043617,-0.016278 0.043716,-0.01601 0.043813,-0.015741 0.043909,-0.015472 0.044003,-0.015202 0.044096,-0.014932 0.044187,-0.014661 0.044276,-0.01439 0.044363,-0.014118 0.044449,-0.013845 0.044533,-0.013572 0.044615,-0.013299 0.044696,-0.013025 0.044775,-0.01275 0.044853,-0.012475 0.0449284,-0.0122 0.0450024,-0.011924 0.0450747,-0.011648 0.0451454,-0.011371 0.0452143,-0.011094 0.0452815,-0.010816 0.045347,-0.010538 0.0454108,-0.01026 0.0454729,-0.00998 0.0455333,-0.0097 0.045592,-0.00942 0.0456489,-0.00914 0.0457042,-0.00886 0.0457577,-0.00858 0.0458095,-0.0083 0.0458595,-0.00802 0.0459079,-0.00774 0.0459545,-0.00746 0.0459994,-0.00717 0.0460425,-0.00689 0.04608392,-0.00661 0.04612361,-0.00633 0.04616155,-0.00604 0.04619776,-0.00576 0.04623223,-0.00548 0.046265,-0.00519 0.0462959,-0.00491 0.0463252,-0.00462 0.0463527,-0.00434 0.0463784,-0.00405 0.0464024,-0.00377 0.0464247,-0.00349 0.0464452,-0.0032 0.046464,-0.00292 0.046481,-0.00263 0.0464963,-0.00235 0.0465098,-0.00206 0.0465215,-0.00177 0.0465315,-0.00149 0.0465398,-0.0012 0.0465463,-9.176e-4 0.0465511,-6.32e-4 0.0465541,-3.463e-4 0.0465553,-6.07e-5 0.046555,2.249e-4 0.046553,5.106e-4 0.046548,7.963e-4 0.046543,0.00108 0.046535,0.00137 0.046526,0.00165 0.046515,0.00194 0.046502,0.00222 0.046488,0.00251 0.046471,0.00279 0.046453,0.00308 0.046434,0.00336 0.046412,0.00365 0.046389,0.00393 0.046364,0.00422 0.046337,0.0045 0.046309,0.00479 0.046278,0.00507 0.046246,0.00535 0.046213,0.00564 0.046177,0.00592 0.04614,0.00621 0.046101,0.00649 0.04606,0.00677 0.046018,0.00705 0.045974,0.00734 0.045928,0.00762 0.04588,0.0079 0.045831,0.00818 0.04578,0.00846 0.045727,0.00874 0.045673,0.00902 0.045616,0.0093 0.045558,0.00958 0.045499,0.00986 0.045437,0.010141 0.045374,0.01042 0.04531,0.010698 0.045243,0.010976 0.045175,0.011253 0.045105,0.01153 0.045033,0.011807 0.04496,0.012083 0.044885,0.012358 0.044808,0.012634 0.04473,0.012908 0.04465,0.013183 0.044568,0.013456 0.044485,0.013729 0.0444,0.014002 0.044313,0.014274 0.044225,0.014546 0.044135,0.014817 0.044043,0.015087 0.043949,0.015357 0.043854,0.015627 0.043758,0.015896 0.043659,0.016164 0.043559,0.016431 0.043458,0.016698 0.043354,0.016965 0.043249,0.01723 0.043143,0.017495 0.043035,0.01776 0.042925,0.018024 0.042813,0.018287 0.042701,0.018549 0.042586,0.018811 0.04247,0.019072 0.042352,0.019332 0.042232,0.019591 0.042111,0.01985 0.041989,0.020108 0.041865,0.020365 0.041739,0.020622 0.041612,0.020878 0.041483,0.021132 0.041352,0.021387 0.04122,0.02164 0.041087,0.021892 0.040952,0.022144 0.040815,0.022395 0.040677,0.022645 0.040537,0.022894 0.040396,0.023143 0.040253,0.02339 0.040109,0.023637 0.039963,0.023882 0.039816,0.024127 0.039667,0.024371 0.039517,0.024614 0.039365,0.024856 0.039212,0.025097 0.039057,0.025337 0.038901,0.025576 0.038743,0.025814 0.038584,0.026051 0.038423,0.026288 0.038261,0.026523 0.038098,0.026757 0.037933,0.026991 0.037767,0.027223 0.037599,0.027454 0.03743,0.027684 0.037259,0.027913 0.037087,0.028141 0.036914,0.028369 0.036739,0.028595 0.036563,0.028819 0.036385,0.029043 0.036207,0.029266 0.036026,0.029487 0.035845,0.029708 0.035662,0.029927 0.035477,0.030146 0.035292,0.030363 0.035105,0.030579 0.034916,0.030793 0.034727,0.031007 0.034536,0.03122 0.034344,0.031431 0.03415,0.031641 0.033956,0.03185 0.033759,0.032058 0.033562,0.032264 0.033363,0.03247 0.033164,0.032674 0.032963,0.032877 0.03276,0.033078 0.032557,0.033279 0.032352,0.033478 0.032146,0.033676 0.031939,0.033872 0.03173,0.034068 0.03152,0.034262 0.03131,0.034454 0.031098,0.034646 0.030884,0.034836 0.03067,0.035025 0.030455,0.035212 0.030238,0.035399 0.03002,0.035583 0.029801,0.035767 0.029581,0.035949 0.02936,0.03613 0.029138,0.03631 0.028914,0.036488 0.02869,0.036664 0.028465,0.03684 0.028238,0.037014 0.02801,0.037186 0.027782,0.037357 0.027552,0.037527 0.027321,0.037695 0.027089,0.037863 0.026857,0.038028 0.026623,0.038192 0.026388,0.038355 0.026152,0.038516 0.025915,0.038676 0.025677,0.038834 0.025439,0.038991 0.025199,0.039146 0.024958,0.0393 0.024717,0.039452 0.024474,0.039603 0.024231,0.039753 0.023986,0.039901 0.023741,0.040047 0.023495,0.040192 0.023248,0.040335 0.023,0.040477 0.022751,0.040618 0.022501,0.040756 0.022251,0.040894 0.022,0.041029 0.021747,0.041164 0.021494,0.041296 0.021241,0.041427 0.020986,0.041557 0.020731,0.041685 0.020474,0.041811 0.020218,0.041936 0.01996,0.042059 0.019701,0.042181 0.019442,0.042301 0.019182,0.04242 0.018922,0.042537 0.01866,0.042652 0.018398,0.042766 0.018136,0.042878 0.017872,0.042988 0.017608,0.043097 0.017343,0.043204 0.017078,0.04331 0.016812,0.043414 0.016545,0.043516 0.016278,0.043617 0.01601,0.043716 0.015741,0.043813 0.015472,0.043909 0.015202,0.044003 0.014932,0.044096 0.014661,0.044187 0.01439,0.044276 0.014118,0.044363 0.013845,0.044449 0.013572,0.044533 0.013299,0.044615 0.013025,0.044696 0.01275,0.044775 0.012475,0.044853 0.0122,0.044928 0.011924,0.045002 0.011648,0.045075 0.011371,0.045145 0.011094,0.045214 0.010816,0.045281 0.010538,0.045347 0.01026,0.045411 0.00998,0.045473 0.0097,0.045533 0.00942,0.045592 0.00914,0.045649 0.00886,0.045704 0.00858,0.045758 0.0083,0.04581 0.00802,0.045859 0.00774,0.045908 0.00746,0.045955 0.00717,0.045999 0.00689,0.046043 0.00661,0.046084 0.00633,0.046124 0.00604,0.046162 0.00576,0.046198 0.00548,0.046232 0.00519,0.046265 0.00491,0.046296 0.00462,0.046325 0.00434,0.046353 0.00405,0.046378 0.00377,0.046402 0.00349,0.046425 0.0032,0.046445 0.00292,0.046464 0.00263,0.046481 0.00235,0.046496 0.00206,0.04651 0.00177,0.046521 0.00149,0.046532 0.0012,0.04654 9.177e-4,0.046546 6.32e-4,0.046551 3.463e-4,0.046554 6.07e-5,0.046555 -2.25e-4,0.046555 -5.106e-4,0.046553 -7.962e-4,0.046549 -0.00108,0.046543 -0.00137,0.046535 -0.00165,0.046526 -0.00194,0.046515 -0.00222,0.046502 -0.00251,0.046488 -0.00279,0.046471 -0.00308,0.046453 -0.00336,0.046434 -0.00365,0.046412 -0.00393,0.046389 -0.00422,0.04636 -0.0045,0.04634 -0.00479,0.04631 -0.00507,0.04628 -0.00535,0.04625 -0.00564,0.04621 -0.00592,0.04618 -0.00621,0.04614 -0.00649,0.0461 -0.00677,0.04606 -0.00705,0.04602 -0.00734,0.04597 -0.00762,0.04593 -0.0079,0.04588 -0.00818,0.04583 -0.00846,0.04578 -0.00874,0.04573 -0.00902,0.04567 -0.0093,0.04562 -0.00958,0.04556 -0.00986,0.0455 -0.010141,0.04544 -0.01042,0.04537 -0.010698,0.04531 -0.010976,0.04524 -0.011253,0.04518 -0.01153,0.0451 -0.011807,0.04503 -0.012083,0.04496 -0.012358,0.04489 -0.012633,0.04481 -0.012908,0.04473 -0.013182,0.04465 -0.013456,0.04457 -0.013729,0.04448 -0.014002,0.0444 -0.014274,0.04431 -0.014546,0.04422 -0.014817,0.04414 -0.015088,0.04404 -0.015357,0.04395 -0.015627,0.04386 -0.015896,0.04376 -0.016164,0.04366 -0.016431,0.04356 -0.016698,0.04346 -0.016965,0.04336 -0.01723,0.04325 -0.017496,0.04314 -0.01776,0.04304 -0.018024,0.04292 -0.018287,0.04281 -0.018549,0.0427 -0.018811,0.04259 -0.019072,0.04247 -0.019332,0.04235 -0.019591,0.04223 -0.01985,0.04211 -0.020108,0.04199 -0.020365,0.04186 -0.020622,0.04174 -0.020878,0.04161 -0.021133,0.04148 -0.021387,0.04135 -0.02164,0.04122 -0.021892,0.04109 -0.022144,0.04095 -0.022395,0.04081 -0.022645,0.04068 -0.022894,0.04054 -0.023143,0.0404 -0.02339,0.04025 -0.023636,0.04011 -0.023882,0.03996 -0.024127,0.03982 -0.024371,0.03967 -0.024614,0.03952 -0.024856,0.03937 -0.025097,0.03921 -0.025337,0.03906 -0.025576,0.0389 -0.025814,0.03874 -0.026051,0.03858 -0.026288,0.03842 -0.026523,0.03826 -0.026757,0.0381 -0.026991,0.03793 -0.027223,0.03777 -0.027454,0.0376 -0.027684,0.03743 -0.027913,0.03726 -0.028142,0.03709 -0.028369,0.03691 -0.028594,0.03674 -0.028819,0.03656 -0.029043,0.03638 -0.029266,0.03621 -0.029488,0.03603 -0.029708,0.03584 -0.029927,0.03566 -0.030145,0.03548 -0.030363,0.03529 -0.030579,0.0351 -0.030793,0.03492 -0.031007,0.03473 -0.03122,0.03454 z"
         transform="matrix(0.17241262,0,0,0.17241262,19.910162,11.925749)" /><rect
         style="opacity:1;fill:#999999;fill-opacity:1;stroke:#000000;stroke-width:0.2;stroke-linecap:round;stroke-linejoin:round;stroke-dasharray:none;stroke-opacity:1;paint-order:stroke fill markers;stop-color:#000000"
         id="rect5448"
         width="3.9166906"
         height="2.4575307"
         x="17.919191"
         y="3.3771312"
         rx="0"
         ry="0.58054727" /><path
         style="opacity:0.25;fill:#999999;fill-opacity:1;stroke:#ffff00;stroke-width:0.2;stroke-linecap:round;stroke-linejoin:round;stroke-dasharray:none;stroke-opacity:1;paint-order:stroke fill markers;stop-color:#000000"
         d="m 18.761053,13.745861 2.669987,-0.0086"
         id="path5562"
         sodipodi:nodetypes="cc" /></g><g
       id="g4341"
       transform="matrix(0.16020895,0,0,0.16020895,27.985869,21.038045)"><g
         id="layer1-7"
         inkscape:label="Layer 3"
         style="opacity:0.53" /><g
         id="layer2-5"
         inkscape:label="Layer 2"
         style="display:inline"><path
           style="fill:#800000;stroke:#000000;stroke-width:0.264585px;stroke-linecap:butt;stroke-linejoin:miter;stroke-opacity:1"
           d="M 5.9548336,7.5292131 10.832136,0.38092487 15.405266,4.5908591 10.392857,9.6032903 Z"
           id="path5221-2" /><path
           style="fill:#d4aa00;stroke:#000000;stroke-width:0.264585px;stroke-linecap:butt;stroke-linejoin:miter;stroke-opacity:1"
           d="m 8.7512034,11.766475 8.3717316,-9.055665 16.4968,14.814699 -7.936122,9.644727 z"
           id="path5223-5" /><path
           style="fill:#ffff00;stroke:#000000;stroke-width:0.264585px;stroke-linecap:butt;stroke-linejoin:miter;stroke-opacity:1"
           d="M 21.715314,29.871427 34.557591,14.743241 37.760453,18.703014 24.008445,32.985842 Z"
           id="path5225-4" /><path
           style="fill:#800000;stroke:#000000;stroke-width:0.264585px;stroke-linecap:butt;stroke-linejoin:miter;stroke-opacity:1"
           d="M 0.13728664,13.872041 5.0145893,6.7237529 9.5877187,10.933687 4.5753097,15.946118 Z"
           id="path5221" /><path
           style="fill:#d4aa00;stroke:#000000;stroke-width:0.264585px;stroke-linecap:butt;stroke-linejoin:miter;stroke-opacity:1"
           d="m 2.9336564,18.109303 8.3717316,-9.055665 16.4968,14.814699 -7.936122,9.644727 z"
           id="path5223" /><path
           style="fill:#ffff00;stroke:#000000;stroke-width:0.264585px;stroke-linecap:butt;stroke-linejoin:miter;stroke-opacity:1"
           d="M 16.935283,35.567579 29.77756,20.439393 32.980422,24.399166 19.228414,38.681994 Z"
           id="path5225" /></g></g></g></svg>
