<?xml version="1.0" encoding="UTF-8" standalone="no"?>
<!-- Created with Inkscape (http://www.inkscape.org/) -->

<svg
   width="40mm"
   height="40mm"
   viewBox="0 0 40 40"
   version="1.1"
   id="svg135"
   inkscape:version="1.2.1 (9c6d41e410, 2022-07-14, custom)"
   sodipodi:docname="gambler.svg"
   xmlns:inkscape="http://www.inkscape.org/namespaces/inkscape"
   xmlns:sodipodi="http://sodipodi.sourceforge.net/DTD/sodipodi-0.dtd"
   xmlns="http://www.w3.org/2000/svg"
   xmlns:svg="http://www.w3.org/2000/svg">
  <sodipodi:namedview
     id="namedview137"
     pagecolor="#ffffff"
     bordercolor="#eeeeee"
     borderopacity="1"
     inkscape:showpageshadow="0"
     inkscape:pageopacity="0"
     inkscape:pagecheckerboard="0"
     inkscape:deskcolor="#505050"
     inkscape:document-units="mm"
     showgrid="false"
     inkscape:zoom="5.3247396"
     inkscape:cx="57.279796"
     inkscape:cy="78.783195"
     inkscape:window-width="1920"
     inkscape:window-height="1015"
     inkscape:window-x="0"
     inkscape:window-y="0"
     inkscape:window-maximized="1"
     inkscape:current-layer="layer1" />
  <defs
     id="defs132" />
  <g
     inkscape:label="Layer 1"
     inkscape:groupmode="layer"
     id="layer1">
    <path
       style="fill:#ffff00;stroke:#000000;stroke-width:0.0469302;stroke-linecap:butt;stroke-linejoin:miter;stroke-dasharray:none;stroke-opacity:1"
       d="m 15.98865,28.761283 7.587215,-0.254073 1.067698,9.270862 -1.599901,0.237869 -0.499896,-8.16915 -5.944029,-0.202542 -1.265156,8.363461 -1.746219,0.09743 z"
       id="path1793"
       sodipodi:nodetypes="ccccccccc" />
    <path
       style="fill:#800080;stroke:#000000;stroke-width:0.15487;stroke-linecap:butt;stroke-linejoin:miter;stroke-dasharray:none;stroke-opacity:1"
       d="m 14.543757,27.475342 -0.634964,5.418474 2.90148,0.321396 0.551237,-3.110365 4.584497,0.399877 0.371776,2.721982 2.428842,-0.07059 0.887205,-5.736628 z"
       id="path1789"
       sodipodi:nodetypes="ccccccccc" />
    <path
       style="fill:#ffff00;stroke:#000000;stroke-width:0.18772;stroke-linecap:butt;stroke-linejoin:miter;stroke-dasharray:none;stroke-opacity:1"
       d="m 17.841792,15.495139 c 0.04175,-0.0065 0.69998,-1.415316 0.105759,-1.941352 -0.710816,-0.629253 -2.460287,-1.597058 -2.48922,-2.484507 -0.04492,-1.3777958 2.246222,-3.5050783 3.806679,-3.4078193 1.086821,0.067739 4.146454,2.9017293 4.142452,3.8617203 -0.0037,0.89218 -2.473886,1.39902 -2.802443,2.242934 -0.263484,0.676772 0.169568,1.880685 0.169568,1.880685 l -0.651307,0.910418 -1.415892,1.084256 -1.77665,-0.554935 z"
       id="path1620"
       sodipodi:nodetypes="csssssccccc" />
    <path
       style="fill:#ffff00;stroke:#000000;stroke-width:0.0610093;stroke-linecap:butt;stroke-linejoin:miter;stroke-dasharray:none;stroke-opacity:1"
       d="m 12.782884,14.948856 -3.533016,4.325623 0.060771,4.460534 c -1.0651191,0.154248 -1.6576524,0.576004 -1.4018944,1.477923 1.0016203,1.218735 2.6346034,1.479986 3.8583874,-0.05716 -0.03123,-0.776005 -0.328064,-1.284309 -1.112408,-1.301278 l -0.415976,-4.551409 3.518533,-3.798812 z"
       id="path867"
       sodipodi:nodetypes="ccccccccc" />
    <path
       style="fill:#ffff00;stroke:#000000;stroke-width:0.0610093;stroke-linecap:butt;stroke-linejoin:miter;stroke-dasharray:none;stroke-opacity:1"
       d="m 27.863936,15.608749 3.533017,4.325623 -0.06078,4.460534 c 1.06512,0.154248 1.657653,0.576003 1.401896,1.477923 -1.001623,1.218735 -2.634604,1.479986 -3.858388,-0.05716 0.03121,-0.776005 0.328063,-1.284309 1.112407,-1.301278 l 0.415976,-4.551409 -3.518532,-3.798812 z"
       id="path867-3"
       sodipodi:nodetypes="ccccccccc" />
    <path
       style="fill:#501616;stroke:#000000;stroke-width:0.0469302;stroke-linecap:butt;stroke-linejoin:miter;stroke-dasharray:none;stroke-opacity:1"
       d="M 27.95146,18.324971 29.604322,17.101848 27.786156,14.8532 24.239205,14.77311 c -1.986669,0.516786 -5.308453,1.731778 -7.89222,0.06948 l -4.59087,0.03339 -1.399199,1.91552 1.629445,1.159435 2.197471,-2.020347 0.115112,12.052901 11.358954,-0.198768 0.06345,-12.1278 z"
       id="path1568"
       sodipodi:nodetypes="ccccccccccccc" />
    <path
       style="fill:#c87137;stroke:#000000;stroke-width:0.0610093;stroke-linecap:butt;stroke-linejoin:miter;stroke-dasharray:none;stroke-opacity:1"
       d="m 14.590723,24.306026 2.10977,0.05355 0.177682,0.98589 -2.260421,0.03123 z"
       id="path1570" />
    <path
       style="fill:#c87137;stroke:#000000;stroke-width:0.0610093;stroke-linecap:butt;stroke-linejoin:miter;stroke-dasharray:none;stroke-opacity:1"
       d="m 17.038734,24.448885 2.109771,0.05356 0.177681,0.98589 -2.26042,0.03123 z"
       id="path1570-6" />
    <path
       style="fill:#c87137;stroke:#000000;stroke-width:0.0610093;stroke-linecap:butt;stroke-linejoin:miter;stroke-dasharray:none;stroke-opacity:1"
       d="m 19.807765,24.222978 2.109771,0.05355 0.177679,0.985891 -2.26042,0.03123 z"
       id="path1570-7" />
    <path
       style="fill:#c87137;stroke:#000000;stroke-width:0.0610093;stroke-linecap:butt;stroke-linejoin:miter;stroke-dasharray:none;stroke-opacity:1"
       d="m 22.730631,23.951887 2.109771,0.05355 0.177679,0.98589 -2.26042,0.03123 z"
       id="path1570-5" />
    <path
       style="fill:#a01414;fill-opacity:1;stroke:#000000;stroke-width:0;stroke-linecap:butt;stroke-linejoin:miter;stroke-dasharray:none;stroke-opacity:1"
       d="m 17.054805,21.934262 c 1.253925,1.35068 4.151995,2.181426 5.474606,0.391608 l 2.842982,-3.847262 1.013246,-1.762071 1.721337,-2.424174 c -3.360289,-0.3313 -6.231207,1.054792 -8.559493,1.027446 -2.295856,-0.02696 -4.245521,-1.091059 -7.620125,-0.870369 l 2.417721,4.566006 z"
       id="path1779"
       sodipodi:nodetypes="sscccsccs" />
    <path
       style="fill:#800000;stroke:#000000;stroke-width:0.0469302;stroke-linecap:butt;stroke-linejoin:miter;stroke-dasharray:none;stroke-opacity:1"
       d="m 21.946705,37.678046 0.200482,1.935377 6.189094,0.06369 c -1.998957,-1.690962 -1.650415,-3.317512 -3.279262,-0.979766 l -0.266288,-1.139495 c -0.954441,-0.01531 -1.897908,0.0242 -2.844026,0.120196 z"
       id="path1795"
       sodipodi:nodetypes="cccccc" />
    <path
       style="fill:#800000;stroke:#000000;stroke-width:0.0469302;stroke-linecap:butt;stroke-linejoin:miter;stroke-dasharray:none;stroke-opacity:1"
       d="m 15.92749,37.564025 -0.200481,1.935377 -6.1890961,0.06369 C 11.53687,37.872129 11.188328,36.24558 12.817176,38.583324 l 0.266287,-1.139495 c 0.954442,-0.01531 1.897908,0.0242 2.844027,0.120196 z"
       id="path1795-3"
       sodipodi:nodetypes="cccccc" />
    <g
       id="g5443-5-1"
       transform="matrix(0.99991741,0,0,0.99976275,-0.98941827,1.6093253)">
      <circle
         style="fill:#ffff00;fill-opacity:1;stroke:#000000;stroke-width:0.292914;stroke-linecap:round;stroke-linejoin:round;stroke-dasharray:none;paint-order:markers stroke fill;stop-color:#000000"
         id="path2697-6-2"
         cx="31.509792"
         cy="23.830301"
         r="2.3535433" />
      <text
         xml:space="preserve"
         style="font-weight:bold;font-size:5.79575px;line-height:1.25;font-family:sans-serif;-inkscape-font-specification:'sans-serif Bold';fill:#a2a233;fill-opacity:1;stroke-width:0.3875"
         x="27.653942"
         y="27.850986"
         id="text2753-2-7"
         transform="scale(1.0801835,0.92576864)"><tspan
           sodipodi:role="line"
           id="tspan2751-9-0"
           style="fill:#a2a233;fill-opacity:1;stroke-width:0.3875"
           x="27.653942"
           y="27.850986">$</tspan></text>
    </g>
    <path
       style="fill:#501616;fill-opacity:1;stroke:#000000;stroke-width:0.209082;stroke-linecap:round;stroke-linejoin:round;stroke-dasharray:none;paint-order:markers stroke fill;stop-color:#000000"
       d="m 9.1587834,10.909417 4.6021836,-2.1722393 0.864798,-3.4584843 9.917268,-0.229912 -0.0127,3.4527464 7.472292,2.4761802 -8.242965,-0.241199 -4.328672,-2.4893489 -5.033953,2.7774749 z"
       id="path5425"
       sodipodi:nodetypes="cccccccccc" />
    <text
       xml:space="preserve"
       style="font-weight:bold;font-size:2.94702px;line-height:1.25;font-family:sans-serif;-inkscape-font-specification:'sans-serif Bold';fill:#a2a233;fill-opacity:1;stroke-width:0.197035"
       x="23.554392"
       y="11.364285"
       id="text2753-7"
       transform="scale(1.0330295,0.96802654)"><tspan
         sodipodi:role="line"
         id="tspan2751-5"
         style="fill:#a2a233;fill-opacity:1;stroke-width:0.197035"
         x="23.554392"
         y="11.364285">$</tspan></text>
    <text
       xml:space="preserve"
       style="font-weight:bold;font-size:2.94702px;line-height:1.25;font-family:sans-serif;-inkscape-font-specification:'sans-serif Bold';fill:#a2a233;fill-opacity:1;stroke-width:0.197035"
       x="15.986503"
       y="7.9112387"
       id="text2753-7-9"
       transform="scale(1.0330295,0.96802655)"><tspan
         sodipodi:role="line"
         id="tspan2751-5-3"
         style="fill:#a2a233;fill-opacity:1;stroke-width:0.197035"
         x="15.986503"
         y="7.9112387">$</tspan></text>
    <text
       xml:space="preserve"
       style="font-weight:bold;font-size:2.94702px;line-height:1.25;font-family:sans-serif;-inkscape-font-specification:'sans-serif Bold';fill:#a2a233;fill-opacity:1;stroke-width:0.197035"
       x="19.690256"
       y="7.3979321"
       id="text2753-7-6"
       transform="scale(1.0330295,0.96802655)"><tspan
         sodipodi:role="line"
         id="tspan2751-5-0"
         style="fill:#a2a233;fill-opacity:1;stroke-width:0.197035"
         x="19.690256"
         y="7.3979321">$</tspan></text>
    <text
       xml:space="preserve"
       style="font-weight:bold;font-size:2.94702px;line-height:1.25;font-family:sans-serif;-inkscape-font-specification:'sans-serif Bold';fill:#a2a233;fill-opacity:1;stroke-width:0.197035"
       x="12.813259"
       y="11.142403"
       id="text2753-7-3"
       transform="scale(1.0330295,0.96802654)"><tspan
         sodipodi:role="line"
         id="tspan2751-5-5"
         style="fill:#a2a233;fill-opacity:1;stroke-width:0.197035"
         x="12.813259"
         y="11.142403">$</tspan></text>
    <g
       id="g2025"
       transform="rotate(-25.894903,9.7858771,24.798754)"
       style="fill:#ff0000">
      <rect
         style="opacity:1;fill:#ff0000;stroke:#00ffff;stroke-width:0.188357;stroke-linecap:round;stroke-linejoin:round;paint-order:markers stroke fill;stop-color:#000000"
         id="rect1985"
         width="2.012655"
         height="3.9018345"
         x="8.6494818"
         y="22.034605"
         rx="0.04960103"
         ry="1.9509172" />
      <rect
         style="fill:#ff0000;stroke:#00ffff;stroke-width:0.188357;stroke-linecap:round;stroke-linejoin:round;paint-order:markers stroke fill;stop-color:#000000"
         id="rect1985-2"
         width="2.012655"
         height="3.9018345"
         x="18.628893"
         y="15.702787"
         rx="0.04960103"
         ry="1.9509172"
         transform="rotate(24.282782)" />
      <rect
         style="fill:#ff0000;stroke:#00ffff;stroke-width:0.188357;stroke-linecap:round;stroke-linejoin:round;paint-order:markers stroke fill;stop-color:#000000"
         id="rect1985-6"
         width="2.012655"
         height="3.9018345"
         x="24.828484"
         y="5.9433432"
         rx="0.04960103"
         ry="1.9509172"
         transform="rotate(49.200792)" />
    </g>
  </g>
</svg>
