<?xml version="1.0" encoding="UTF-8" standalone="no"?>
<!-- Created with Inkscape (http://www.inkscape.org/) -->

<svg
   width="40mm"
   height="40mm"
   viewBox="0 0 40 40"
   version="1.1"
   id="svg5"
   xml:space="preserve"
   inkscape:version="1.2.2 (b0a8486541, 2022-12-01)"
   sodipodi:docname="horse.svg"
   xmlns:inkscape="http://www.inkscape.org/namespaces/inkscape"
   xmlns:sodipodi="http://sodipodi.sourceforge.net/DTD/sodipodi-0.dtd"
   xmlns="http://www.w3.org/2000/svg"
   xmlns:svg="http://www.w3.org/2000/svg"><sodipodi:namedview
     id="namedview7"
     pagecolor="#ffffff"
     bordercolor="#ffffff"
     borderopacity="1"
     inkscape:showpageshadow="0"
     inkscape:pageopacity="0.5254902"
     inkscape:pagecheckerboard="0"
     inkscape:deskcolor="#ff0000"
     inkscape:document-units="mm"
     showgrid="false"
     inkscape:zoom="5.4588056"
     inkscape:cx="83.351567"
     inkscape:cy="85.824636"
     inkscape:window-width="1920"
     inkscape:window-height="1015"
     inkscape:window-x="0"
     inkscape:window-y="0"
     inkscape:window-maximized="1"
     inkscape:current-layer="layer1" /><defs
     id="defs2" /><g
     inkscape:groupmode="layer"
     id="layer1"
     inkscape:label="Layer 3"><path
       style="fill:#b3b3b3;stroke:#999999;stroke-width:0.354556px;stroke-linecap:butt;stroke-linejoin:miter;stroke-opacity:1"
       d="m 10.714017,17.244412 -2.7666846,1.231864 -1.1524203,-0.457207 0.013648,2.018757 -1.6787753,-0.611597 -0.5581969,1.616515 1.344831,1.392372 -1.3521827,0.408553 -1.2783236,0.338125 0.0071,1.617643 L 2.3704356,23.645526 0.98725889,25.568807 3.8734965,25.62774 3.844072,26.783738 8.7600055,24.822052 7.5283086,22.932477 9.4480749,20.853463 9.765674,18.820914 Z"
       id="path6553" /><path
       style="fill:#b3b3b3;stroke:#999999;stroke-width:0.354556px;stroke-linecap:butt;stroke-linejoin:miter;stroke-opacity:1"
       d="m 29.651905,7.9947687 -5.945253,0.1850404 2.897878,1.1963057 -1.930444,0.8171482 0.393635,0.752438 -3.152631,-1.3244108 1.389494,1.1843048 0.642696,0.539469 -0.05693,0.603207 -1.033175,0.793971 -1.32143,0.0023 -0.101043,2.261879 c 2.739067,-1.935562 5.478133,-3.495095 8.217201,-7.0116344 z"
       id="path6547"
       sodipodi:nodetypes="ccccccccccccc" /><g
       inkscape:groupmode="layer"
       id="layer2"
       inkscape:label="Layer 2"
       style="display:inline" /><path
       style="fill:#000000;fill-opacity:1;stroke:#000000;stroke-width:1.29315;stroke-linecap:round;stroke-opacity:1;paint-order:stroke fill markers;stop-color:#000000"
       id="path6362-4"
       sodipodi:type="arc"
       sodipodi:cx="32.945782"
       sodipodi:cy="10.139795"
       sodipodi:rx="0.0087743234"
       sodipodi:ry="0.011995171"
       sodipodi:start="0"
       sodipodi:end="6.2783333"
       sodipodi:open="true"
       sodipodi:arc-type="arc"
       d="m 32.954556,10.139795 a 0.00877432,0.01199517 0 0 1 -0.0088,0.012 0.00877432,0.01199517 0 0 1 -0.0088,-0.01197 0.00877432,0.01199517 0 0 1 0.0087,-0.01202 0.00877432,0.01199517 0 0 1 0.0088,0.01194" /><path
       style="fill:#d38d5f;stroke:#000000;stroke-width:0.354556px;stroke-linecap:butt;stroke-linejoin:miter;stroke-opacity:1"
       d="M 34.494378,12.132764 31.814475,8.5223845 32.240116,6.114729 C 30.458215,8.2389757 30.855768,8.2946863 30.453313,5.6407225 L 29.454151,8.1827876 23.86087,13.401977 c -4.662165,2.792559 -4.366101,2.53225 -9.406707,1.717906 -5.7792099,3.435572 -6.2259343,3.176253 -2.683009,8.94953 -0.632779,1.094236 -1.318995,1.905209 -1.259458,6.669354 l 1.484061,0.01183 c -0.337468,-3.19844 -0.26434,-3.107146 1.897325,-5.152647 l 4.562717,6.248243 0.771847,-0.545389 -4.36397,-7.59491 12.027227,0.441134 c 2.08529,1.615092 0.676126,2.333216 -0.146054,3.487149 l 0.519855,1.160738 1.853991,-2.467307 2.414429,4.507551 1.084349,-0.788753 C 29.310299,24.407975 28.609132,23.545683 28.4703,17.478685 l 1.778974,-4.454144 3.310021,1.512593 z"
       id="path6228"
       sodipodi:nodetypes="cccccccccccccccccccccccc" /><path
       style="fill:#000000;fill-opacity:1;stroke:#000000;stroke-width:1.29315;stroke-linecap:round;stroke-opacity:1;paint-order:stroke fill markers;stop-color:#000000"
       id="path6362"
       sodipodi:type="arc"
       sodipodi:cx="31.640991"
       sodipodi:cy="10.846553"
       sodipodi:rx="0.0087743234"
       sodipodi:ry="0.011995171"
       sodipodi:start="0"
       sodipodi:end="6.2783333"
       sodipodi:open="true"
       sodipodi:arc-type="arc"
       d="m 31.649766,10.846553 a 0.00877432,0.01199517 0 0 1 -0.0088,0.012 0.00877432,0.01199517 0 0 1 -0.0088,-0.01197 0.00877432,0.01199517 0 0 1 0.0087,-0.01202 0.00877432,0.01199517 0 0 1 0.0088,0.01194" /><path
       style="fill:#808080;stroke:#000000;stroke-width:0.354556px;stroke-linecap:butt;stroke-linejoin:miter;stroke-opacity:1"
       d="m 34.713078,12.298838 1.413504,1.404614 -0.819075,1.139781 -1.603893,-0.246647 z"
       id="path6493" /><path
       style="fill:#808080;stroke:#000000;stroke-width:0.354556px;stroke-linecap:butt;stroke-linejoin:miter;stroke-opacity:1"
       d="m 32.538583,29.936487 2.028542,2.018501 -1.502034,0.649856 -1.670047,-1.701262 z"
       id="path6497" /><path
       style="fill:#808080;stroke:#000000;stroke-width:0.354556px;stroke-linecap:butt;stroke-linejoin:miter;stroke-opacity:1"
       d="m 19.291035,31.071556 2.028542,2.018501 -1.502034,0.649856 -1.670047,-1.701261 z"
       id="path6497-5" /><path
       style="fill:#808080;stroke:#000000;stroke-width:0.354556px;stroke-linecap:butt;stroke-linejoin:miter;stroke-opacity:1"
       d="m 11.921906,30.363195 0.576435,2.844011 -1.5969,-0.332188 -0.453023,-2.374055 z"
       id="path6497-0"
       inkscape:transform-center-x="-0.8473149"
       inkscape:transform-center-y="-0.66297063" /><path
       style="fill:#808080;stroke:#000000;stroke-width:0.354556px;stroke-linecap:butt;stroke-linejoin:miter;stroke-opacity:1"
       d="m 26.782396,27.647867 -2.028541,2.018501 1.502034,0.649855 1.670046,-1.701261 z"
       id="path6497-3"
       inkscape:transform-center-x="-1.5588415"
       inkscape:transform-center-y="-0.21314237" /></g></svg>
