<?xml version="1.0" encoding="UTF-8" standalone="no"?>
<!-- Created with Inkscape (http://www.inkscape.org/) -->

<svg
   width="30mm"
   height="30mm"
   viewBox="0 0 30 30"
   version="1.1"
   id="svg4867"
   inkscape:version="1.2.2 (b0a8486541, 2022-12-01)"
   sodipodi:docname="Hunger.svg"
   xmlns:inkscape="http://www.inkscape.org/namespaces/inkscape"
   xmlns:sodipodi="http://sodipodi.sourceforge.net/DTD/sodipodi-0.dtd"
   xmlns="http://www.w3.org/2000/svg"
   xmlns:svg="http://www.w3.org/2000/svg">
  <sodipodi:namedview
     id="namedview4869"
     pagecolor="#ffffff"
     bordercolor="#666666"
     borderopacity="1.0"
     inkscape:showpageshadow="2"
     inkscape:pageopacity="0.0"
     inkscape:pagecheckerboard="0"
     inkscape:deskcolor="#d1d1d1"
     inkscape:document-units="mm"
     showgrid="false"
     inkscape:zoom="3.5542361"
     inkscape:cx="55.426819"
     inkscape:cy="52.613274"
     inkscape:window-width="1920"
     inkscape:window-height="1015"
     inkscape:window-x="0"
     inkscape:window-y="0"
     inkscape:window-maximized="1"
     inkscape:current-layer="layer1" />
  <defs
     id="defs4864" />
  <g
     inkscape:label="Layer 1"
     inkscape:groupmode="layer"
     id="layer1">
    <g
       id="g6584"
       transform="translate(-0.818018,1.0069756)">
      <path
         id="path6239"
         style="fill:#4e1f00;fill-opacity:1;stroke:#000000;stroke-width:0.841907;stroke-linecap:round;stroke-linejoin:round;stroke-dasharray:none;stroke-opacity:1"
         d="M 15.95872,5.5005731 C 9.7284836,5.5006213 4.6778118,6.7137251 4.6771892,8.2102464 4.6790292,9.144357 6.6835591,10.012388 9.9817273,10.507297 l 1.2654927,4.081342 -1.6315004,2.041537 1.9635784,6.024485 -0.4771,-5.702501 2.947924,-2.461928 -0.864091,-3.654045 c 0.906058,0.05569 1.837433,0.08412 2.772689,0.0846 6.231642,-4.9e-5 11.282898,-1.2136798 11.281532,-2.710538 C 27.23963,6.7137317 22.188957,5.5006279 15.95872,5.5005798 Z"
         sodipodi:nodetypes="ccccccccccccc" />
      <path
         id="path6561"
         style="fill:#aa4400;stroke:#020100;stroke-width:0.829769;stroke-linecap:round;stroke-dasharray:none;paint-order:normal"
         d="m 4.6759016,8.0983694 c -1.5990237,8.3611386 1.5595727,9.7814426 3.8039022,14.1242026 0.7461272,0.397864 1.8356222,0.743244 3.1217732,0.99167 L 11.450682,22.260295 9.6156518,16.630148 11.247077,14.588412 9.9815209,10.507524 C 9.775386,10.476593 9.5743124,10.444145 9.3784569,10.410373 9.1826017,10.376601 8.992145,10.341415 8.8069156,10.304953 8.6216862,10.268491 8.441671,10.230784 8.2674137,10.191782 8.0931561,10.15278 7.9244404,10.112251 7.7615014,10.070859 7.5985622,10.029467 7.441487,9.9868508 7.2902123,9.943218 7.2145751,9.9214016 7.1406599,9.8994206 7.0680037,9.8770722 6.9953473,9.8547238 6.9242119,9.8322375 6.85458,9.8093761 6.7849481,9.7865144 6.7165058,9.7634858 6.6499413,9.7401296 6.583377,9.7167737 6.5185746,9.6931648 6.4551212,9.6693329 6.3916676,9.6455013 6.329902,9.6212748 6.2696028,9.5969859 6.2093033,9.5726972 6.1504882,9.5483326 6.0933861,9.5236054 6.0362843,9.4988782 5.9808494,9.4738211 5.926988,9.4486746 5.8731269,9.4235279 5.8209858,9.3982577 5.7704084,9.3727102 5.7198313,9.3471627 5.6708973,9.3211249 5.6236474,9.2951956 5.5763973,9.269266 5.5305844,9.2434568 5.4867048,9.2171642 5.4428255,9.1908713 5.4005631,9.1642199 5.3600976,9.1375824 5.3196318,9.1109452 5.2808342,9.0844471 5.2438256,9.057484 5.206817,9.0305207 5.1719138,9.0031056 5.1384057,8.9758352 5.1048974,8.9485648 5.0727687,8.9212284 5.0428043,8.8936697 5.0128396,8.8661109 4.9849494,8.838299 4.9585717,8.8104706 4.932194,8.7826425 4.9074219,8.754834 4.8846744,8.7267548 c -0.022747,-0.028079 -0.043455,-0.056438 -0.062528,-0.084749 -0.019074,-0.028311 -0.036319,-0.056741 -0.051676,-0.085266 -0.015357,-0.028524 -0.02871,-0.057064 -0.040308,-0.085783 -0.011597,-0.028719 -0.021662,-0.057404 -0.029456,-0.0863 -0.00779,-0.028895 -0.013623,-0.057764 -0.01757,-0.086816 -0.00395,-0.029052 -0.00614,-0.058659 -0.0062,-0.08785 9.8e-6,-0.023383 0.00167,-0.046522 0.00413,-0.069763 0.00149,-0.014057 0.00434,-0.027855 0.00672,-0.041858 z" />
      <path
         id="path6394"
         style="fill:#aa4400;stroke:#020100;stroke-width:0.829769;stroke-linecap:round;stroke-dasharray:none;paint-order:normal"
         d="m 11.450682,22.260295 0.150895,0.953947 c 0.0082,0.0016 0.01612,0.0031 0.02429,0.0047 3.476702,0.666927 8.381442,0.626569 11.853023,-0.991671 2.230833,-4.333314 5.022357,-5.695584 3.663859,-13.6596306 -0.0101,0.018434 -0.0204,0.036978 -0.03204,0.055294 -0.01425,0.022431 -0.02998,0.044933 -0.04651,0.067179 -0.01652,0.022246 -0.03394,0.044608 -0.05271,0.066663 -0.01877,0.022055 -0.03844,0.043773 -0.05943,0.065629 -0.02099,0.021856 -0.04349,0.043462 -0.06666,0.065112 -0.02317,0.021651 -0.04702,0.043158 -0.07235,0.064596 -0.02533,0.021438 -0.05213,0.042861 -0.07958,0.064079 -0.02746,0.021218 -0.05571,0.042572 -0.08527,0.063562 -0.02956,0.020991 -0.06036,0.041772 -0.09198,0.062528 -0.06325,0.041513 -0.130713,0.082456 -0.202055,0.1229899 -0.07134,0.040534 -0.146625,0.080391 -0.225826,0.1198894 -0.0792,0.039498 -0.162256,0.0789 -0.24908,0.1173055 -0.08682,0.038405 -0.177091,0.075915 -0.271302,0.1131713 -0.09421,0.037256 -0.19216,0.074021 -0.293522,0.1100708 -0.101361,0.03605 -0.206434,0.071666 -0.314709,0.1064535 -0.108276,0.034787 -0.21991,0.068852 -0.334864,0.1023193 -0.114951,0.033467 -0.233105,0.066094 -0.3545,0.098185 -0.121395,0.03209 -0.246023,0.06339 -0.37362,0.09405 -0.1276,0.03066 -0.258139,0.06075 -0.391708,0.08992 -0.133568,0.02917 -0.269976,0.05764 -0.409277,0.08527 -0.139301,0.02762 -0.281534,0.0546 -0.426331,0.08061 -0.144797,0.02602 -0.292293,0.05109 -0.44235,0.07545 -0.150057,0.02436 -0.302773,0.04764 -0.457853,0.07028 -0.15508,0.02264 -0.312456,0.04476 -0.472323,0.06563 -0.159867,0.02087 -0.321857,0.04039 -0.486275,0.05943 -0.164418,0.01903 -0.331496,0.03711 -0.500228,0.05426 -0.168732,0.01715 -0.339303,0.03337 -0.512113,0.04858 -0.17281,0.0152 -0.347864,0.02969 -0.524516,0.04289 -0.176652,0.0132 -0.355111,0.02555 -0.535368,0.03669 -0.180257,0.01114 -0.362077,0.02094 -0.545703,0.02997 -0.183626,0.009 -0.368763,0.01691 -0.555522,0.02377 -0.186758,0.0069 -0.375168,0.01294 -0.564823,0.01757 -0.189655,0.0046 -0.380777,0.008 -0.573092,0.01033 -0.192315,0.0023 -0.385587,0.0036 -0.580326,0.0036 -0.233814,-1.2e-4 -0.467741,-0.0021 -0.700732,-0.0057 -0.232994,-0.0036 -0.465095,-0.009 -0.696599,-0.01602 -0.231504,-0.0071 -0.462088,-0.01585 -0.69143,-0.02636 -0.229344,-0.0105 -0.457684,-0.02277 -0.684196,-0.03669 l 0.86403,3.654041 -2.947624,2.461865 0.476973,5.702495 z" />
      <g
         id="g6464"
         transform="matrix(-1,0,0,1,29.98487,-0.57648095)">
        <path
           id="path6403"
           style="fill:#916f6f;fill-opacity:1;stroke:#020100;stroke-width:0.545473;stroke-linecap:round;stroke-linejoin:round;stroke-dasharray:none;paint-order:normal"
           d="m 14.800388,-2.0783778 c -0.542049,0.283759 -0.913637,0.8477108 -0.923053,1.50479187 L 14.64356,10.872364 c -0.224204,0.610824 -1.39737,1.411717 -0.75115,1.675489 -1.728291,0.860079 -2.113667,2.793559 -2.113884,4.379308 -2.91e-4,2.127268 1.652161,4.273206 3.243712,4.382713 1.425967,0.09811 3.266288,-2.273789 3.266363,-4.400834 4.7e-5,-1.317082 -0.282494,-3.201672 -1.460529,-4.190283 0.468839,-0.485984 -0.271959,-0.997703 -0.544322,-1.571331 l 1.043438,-11.67165733 c 0.0137,-0.95575417 -0.744495,-1.73590767 -1.700249,-1.74960347 -0.298673,-0.00428 -0.580166,0.066476 -0.826551,0.195457 z"
           sodipodi:nodetypes="scccssscccss"
           transform="rotate(26.063958)" />
        <path
           style="fill:none;stroke:#000000;stroke-width:0.264583px;stroke-linecap:round;stroke-linejoin:miter;stroke-opacity:1"
           d="m 3.641854,20.898338 c 0.6425764,-1.441566 2.7245681,-2.95996 4.1188074,-2.025417 1.8116491,1.214328 1.16794,3.241713 0.5019699,4.457712"
           id="path6460"
           sodipodi:nodetypes="csc" />
      </g>
    </g>
  </g>
</svg>
