<?xml version="1.0" encoding="UTF-8" standalone="no"?>
<!-- Created with Inkscape (http://www.inkscape.org/) -->

<svg
   width="40mm"
   height="40mm"
   viewBox="0 0 40 40"
   version="1.1"
   id="svg5"
   xml:space="preserve"
   inkscape:version="1.2.1 (9c6d41e410, 2022-07-14, custom)"
   sodipodi:docname="leg wound.svg"
   xmlns:inkscape="http://www.inkscape.org/namespaces/inkscape"
   xmlns:sodipodi="http://sodipodi.sourceforge.net/DTD/sodipodi-0.dtd"
   xmlns="http://www.w3.org/2000/svg"
   xmlns:svg="http://www.w3.org/2000/svg"><sodipodi:namedview
     id="namedview7"
     pagecolor="#6f6f6f"
     bordercolor="#eeeeee"
     borderopacity="1"
     inkscape:showpageshadow="0"
     inkscape:pageopacity="0.5254902"
     inkscape:pagecheckerboard="0"
     inkscape:deskcolor="#505050"
     inkscape:document-units="mm"
     showgrid="false"
     inkscape:zoom="4.3622393"
     inkscape:cx="46.535732"
     inkscape:cy="68.198918"
     inkscape:window-width="1920"
     inkscape:window-height="1015"
     inkscape:window-x="0"
     inkscape:window-y="0"
     inkscape:window-maximized="1"
     inkscape:current-layer="layer2" /><defs
     id="defs2" /><g
     inkscape:groupmode="layer"
     id="layer2"
     inkscape:label="Layer 2"
     style="display:inline"><path
       style="fill:#1a1a1a;stroke:#000000;stroke-width:0.264583px;stroke-linecap:butt;stroke-linejoin:miter;stroke-opacity:1"
       d="m 13.080318,22.223307 c -0.614003,5.501568 3.911268,7.298515 3.902775,0.02056 z"
       id="path608"
       sodipodi:nodetypes="ccc" /><path
       style="fill:#d45500;stroke:#000000;stroke-width:0.264583px;stroke-linecap:butt;stroke-linejoin:miter;stroke-opacity:1"
       d="m 10.762327,3.1586852 c 0,0 -0.186562,9.5251288 0.67485,15.5694858 0.573425,4.023607 1.210165,4.558825 3.617973,4.473139 2.295326,-0.08168 3.110621,-0.06153 2.597028,-4.276253 -2.370574,-19.4537833 1.05609,-8.257322 1.05609,-8.257322 2.431659,8.098213 2.840583,17.051572 3.00319,26.109066 L 29.336232,36.176978 27.596738,2.7832539 Z"
       id="path600"
       sodipodi:nodetypes="csssccccc" /><path
       style="fill:#784421;stroke:#000000;stroke-width:0.264583px;stroke-linecap:butt;stroke-linejoin:miter;stroke-opacity:1"
       d="M 8.1739,0.69722872 5.6466808,35.935293 7.3383546,36.102521 11.465011,1.2045494 Z"
       id="path602"
       sodipodi:nodetypes="ccccc" /><path
       style="fill:#784421;stroke:#000000;stroke-width:0.264583px;stroke-linecap:butt;stroke-linejoin:miter;stroke-opacity:1"
       d="M 26.298512,0.95589043 32.048317,36.411774 33.868038,36.104191 29.845814,0.51084001 Z"
       id="path604"
       sodipodi:nodetypes="ccccc" /><path
       style="fill:#1a1a1a;stroke:#000000;stroke-width:0.264583px;stroke-linecap:butt;stroke-linejoin:miter;stroke-opacity:1"
       d="m 22.518007,37.671623 c -1.579219,-2.960298 6.982073,-7.566777 5.690061,-0.678569 z"
       id="path606"
       sodipodi:nodetypes="ccc" /><path
       style="fill:#ffffff;stroke:#000000;stroke-width:0.264583px;stroke-linecap:butt;stroke-linejoin:miter;stroke-opacity:1"
       d="m 10.727757,20.069423 c 2.602905,0.595036 5.336626,0.823929 7.935928,0.08885 l -0.164016,-5.486236 -8.206278,0.690843 z"
       id="path627"
       sodipodi:nodetypes="ccccc" /><path
       style="fill:#d40000;stroke:#000000;stroke-width:0.264583px;stroke-linecap:butt;stroke-linejoin:miter;stroke-opacity:1"
       d="m 11.81486,16.482343 c 1.390249,1.440318 1.450101,-0.616466 2.723807,0.875364 0.537847,0.629954 1.941892,3.275873 0.472979,2.439547 -1.072421,-0.610584 -5.1016071,-0.01399 -3.544405,-1.069247 0.627053,-0.42493 -0.178437,-2.790665 0.347619,-2.245664 z"
       id="path629"
       sodipodi:nodetypes="sssss" /></g></svg>
