<?xml version="1.0" encoding="UTF-8" standalone="no"?>
<!-- Created with Inkscape (http://www.inkscape.org/) -->

<svg
   width="40mm"
   height="40mm"
   viewBox="0 0 40 40"
   version="1.1"
   id="svg5"
   xml:space="preserve"
   inkscape:version="1.2.1 (9c6d41e410, 2022-07-14, custom)"
   sodipodi:docname="leg injury.svg"
   xmlns:inkscape="http://www.inkscape.org/namespaces/inkscape"
   xmlns:sodipodi="http://sodipodi.sourceforge.net/DTD/sodipodi-0.dtd"
   xmlns="http://www.w3.org/2000/svg"
   xmlns:svg="http://www.w3.org/2000/svg"><sodipodi:namedview
     id="namedview7"
     pagecolor="#6f6f6f"
     bordercolor="#eeeeee"
     borderopacity="1"
     inkscape:showpageshadow="0"
     inkscape:pageopacity="0.5254902"
     inkscape:pagecheckerboard="0"
     inkscape:deskcolor="#505050"
     inkscape:document-units="mm"
     showgrid="false"
     inkscape:zoom="4.3622393"
     inkscape:cx="46.421112"
     inkscape:cy="68.198918"
     inkscape:window-width="1920"
     inkscape:window-height="1015"
     inkscape:window-x="0"
     inkscape:window-y="0"
     inkscape:window-maximized="1"
     inkscape:current-layer="layer2" /><defs
     id="defs2" /><g
     inkscape:groupmode="layer"
     id="layer2"
     inkscape:label="Layer 2"
     style="display:inline"><g
       id="g615"
       transform="matrix(1.1029907,0,0,1.1027143,-2.0811449,-0.40894777)"
       style="stroke-width:0.90674"><path
         style="fill:#1a1a1a;stroke:#000000;stroke-width:0.239908px;stroke-linecap:butt;stroke-linejoin:miter;stroke-opacity:1"
         d="m 13.043963,16.719102 c -0.556671,4.337037 4.020229,5.799224 4.012529,0.06181 z"
         id="path608"
         sodipodi:nodetypes="ccc" /><path
         style="fill:#d45500;stroke:#000000;stroke-width:0.239908px;stroke-linecap:butt;stroke-linejoin:miter;stroke-opacity:1"
         d="m 11.644225,3.2353194 c 0,0 -0.480606,11.9094056 -0.113632,14.0346946 0.366974,2.125289 6.130155,1.97537 6.36015,0.26309 0.229995,-1.71228 0.957478,-7.488179 0.957478,-7.488179 2.204606,7.343891 2.575347,15.463273 2.72277,23.677091 l 6.912818,-0.543952 -1.57707,-30.2832057 z"
         id="path600"
         sodipodi:nodetypes="czzccccc" /><path
         style="fill:#784421;stroke:#000000;stroke-width:0.239908px;stroke-linecap:butt;stroke-linejoin:miter;stroke-opacity:1"
         d="M 9.2974899,1.0031397 7.0062474,32.958891 8.5399628,33.110543 12.281297,1.4632051 Z"
         id="path602"
         sodipodi:nodetypes="ccccc" /><path
         style="fill:#784421;stroke:#000000;stroke-width:0.239908px;stroke-linecap:butt;stroke-linejoin:miter;stroke-opacity:1"
         d="M 25.729734,1.2377079 30.942656,33.39099 32.592462,33.112057 28.94581,0.8341125 Z"
         id="path604"
         sodipodi:nodetypes="ccccc" /><path
         style="fill:#1a1a1a;stroke:#000000;stroke-width:0.239908px;stroke-linecap:butt;stroke-linejoin:miter;stroke-opacity:1"
         d="m 22.30223,34.533488 c -1.431761,-2.684556 6.330128,-6.861956 5.158757,-0.615363 z"
         id="path606"
         sodipodi:nodetypes="ccc" /></g><path
       style="fill:#ffffff;stroke:#000000;stroke-width:0.264583px;stroke-linecap:butt;stroke-linejoin:miter;stroke-opacity:1"
       d="m 10.727757,20.069423 c 2.602905,0.595036 4.5364,0.911344 7.135702,0.176263 l 0.63621,-5.573651 -8.206278,0.690843 z"
       id="path627"
       sodipodi:nodetypes="ccccc" /><path
       style="fill:#d40000;stroke:#000000;stroke-width:0.264583px;stroke-linecap:butt;stroke-linejoin:miter;stroke-opacity:1"
       d="m 11.81486,16.482343 c 1.390249,1.440318 1.450101,-0.616466 2.723807,0.875364 0.537847,0.629954 1.941892,3.275873 0.472979,2.439547 -1.072421,-0.610584 -5.1016071,-0.01399 -3.544405,-1.069247 0.627053,-0.42493 -0.178437,-2.790665 0.347619,-2.245664 z"
       id="path629"
       sodipodi:nodetypes="sssss" /></g></svg>
