<?xml version="1.0" encoding="UTF-8" standalone="no"?>
<!-- Created with Inkscape (http://www.inkscape.org/) -->

<svg
   width="40mm"
   height="40mm"
   viewBox="0 0 40 40"
   version="1.1"
   id="svg5"
   xml:space="preserve"
   inkscape:version="1.2.1 (9c6d41e410, 2022-07-14, custom)"
   sodipodi:docname="net.svg"
   xmlns:inkscape="http://www.inkscape.org/namespaces/inkscape"
   xmlns:sodipodi="http://sodipodi.sourceforge.net/DTD/sodipodi-0.dtd"
   xmlns="http://www.w3.org/2000/svg"
   xmlns:svg="http://www.w3.org/2000/svg"><sodipodi:namedview
     id="namedview7"
     pagecolor="#6f6f6f"
     bordercolor="#eeeeee"
     borderopacity="1"
     inkscape:showpageshadow="0"
     inkscape:pageopacity="0.5254902"
     inkscape:pagecheckerboard="0"
     inkscape:deskcolor="#505050"
     inkscape:document-units="mm"
     showgrid="false"
     inkscape:zoom="5.3646329"
     inkscape:cx="58.345092"
     inkscape:cy="78.570148"
     inkscape:window-width="1920"
     inkscape:window-height="1015"
     inkscape:window-x="0"
     inkscape:window-y="0"
     inkscape:window-maximized="1"
     inkscape:current-layer="layer2" /><defs
     id="defs2" /><g
     inkscape:groupmode="layer"
     id="layer1"
     inkscape:label="Layer 3"
     style="opacity:0.53" /><g
     inkscape:groupmode="layer"
     id="layer2"
     inkscape:label="Layer 2"
     style="display:inline"><path
       style="display:inline;fill:#ececec;stroke:none;stroke-width:0.248499;stroke-linecap:round;stroke-linejoin:round;stroke-dasharray:none;paint-order:stroke fill markers;stop-color:#000000"
       d="M 31.048879,27.383923 C 25.958806,21.242145 14.114167,23.668635 8.7963599,18.669394 10.937087,24.038997 23.723937,22.345269 31.048879,27.383923 Z M 39.64253,17.198154 C 34.552457,11.056376 11.206924,19.77811 5.8891171,14.778869 7.7248075,21.906246 32.187787,12.90748 39.64253,17.198154 Z"
       id="path1306-3-8"
       sodipodi:nodetypes="cccccc" /><path
       style="display:inline;fill:#e6e6e6;stroke:#ffffff;stroke-width:0;stroke-linecap:round;stroke-linejoin:round;stroke-dasharray:none;paint-order:stroke fill markers;stop-color:#000000"
       d="M 9.1458722,5.8108893 C 13.128907,15.322232 22.200342,26.440408 19.78438,35.947377 19.248843,25.696665 10.547038,14.182957 9.1458722,5.8108893 Z"
       id="path1306-7"
       sodipodi:nodetypes="ccc" /><path
       style="display:inline;fill:#e6e6e6;stroke:#ffffff;stroke-width:0;stroke-linecap:round;stroke-linejoin:round;stroke-dasharray:none;paint-order:stroke fill markers;stop-color:#000000"
       d="M 3.0726933,12.505101 C 12.527002,14.135833 28.079625,11.297172 36.947821,10.689107 27.755912,12.015755 7.3492145,17.010761 3.0726933,12.505101 Z"
       id="path1306-5"
       sodipodi:nodetypes="ccc" /><path
       style="display:inline;fill:#b3b3b3;stroke:#ffffff;stroke-width:0;stroke-linecap:round;stroke-linejoin:round;stroke-dasharray:none;paint-order:stroke fill markers;stop-color:#000000"
       d="m 12.949222,24.888174 c 9.884884,-2.360848 14.505108,-2.908746 23.351091,-3.42107 -9.238668,1.793683 -14.170293,2.897985 -23.351091,3.42107 z"
       id="path1306-5-5"
       sodipodi:nodetypes="ccc" /><path
       style="display:inline;fill:#f9f9f9;stroke:#ffffff;stroke-width:0;stroke-linecap:round;stroke-linejoin:round;stroke-dasharray:none;paint-order:stroke fill markers;stop-color:#000000"
       d="M 7.7924892,36.749289 C 17.677374,34.388441 22.389751,27.889047 31.235734,27.376723 21.997066,29.170406 16.973288,36.226204 7.7924892,36.749289 Z"
       id="path1306-5-6"
       sodipodi:nodetypes="ccc" /><path
       style="display:inline;fill:#ececec;stroke:#ffffff;stroke-width:0;stroke-linecap:round;stroke-linejoin:round;stroke-dasharray:none;paint-order:stroke fill markers;stop-color:#000000"
       d="M 22.191852,8.4130576 C 24.464906,18.318499 26.251383,29.200134 26.685203,38.050314 24.973558,28.796096 22.633462,17.598136 22.191852,8.4130576 Z"
       id="path1306-3"
       sodipodi:nodetypes="ccc" /><path
       style="display:inline;fill:#ececec;stroke:#ffffff;stroke-width:0;stroke-linecap:round;stroke-linejoin:round;stroke-dasharray:none;paint-order:stroke fill markers;stop-color:#000000"
       d="M 30.1072,5.2544729 C 32.380254,11.892958 34.166731,19.185675 34.600551,25.116939 32.888906,18.914894 30.54881,11.410181 30.1072,5.2544729 Z"
       id="path1306-3-9"
       sodipodi:nodetypes="ccc" /><path
       style="display:inline;fill:#ececec;stroke:#ffffff;stroke-width:0;stroke-linecap:round;stroke-linejoin:round;stroke-dasharray:none;paint-order:stroke fill markers;stop-color:#000000"
       d="M 23.953756,7.0405193 C 27.767838,14.1881 30.765466,22.040085 31.493396,28.426208 28.621333,21.748537 24.694758,13.6683 23.953756,7.0405193 Z"
       id="path1306-3-9-7"
       sodipodi:nodetypes="ccc" /><path
       style="fill:none;stroke:#000000;stroke-width:0.402;stroke-linecap:round;stroke-linejoin:round;paint-order:markers stroke fill;stop-color:#000000"
       d="M 21.603837,35.411142 C 17.568386,35.107804 10.482035,40.529455 7.3653707,36.966448 4.2487061,33.403441 23.118643,34.087918 10.393161,20.854938 -2.332321,7.6219579 6.0114377,13.831594 5.7964601,10.707692 5.5814825,7.5837897 10.519309,4.4031117 13.46911,4.9028185 c 2.949801,0.4997068 4.616973,6.9332355 4.616973,6.9332355 0,0 9.235749,-8.2193944 14.213596,-6.3764611 4.977847,1.8429333 7.800519,10.3867281 6.929028,14.7206911 -0.871491,4.333963 -6.123645,3.670202 -7.613976,6.868745 -1.490331,3.198543 0.30382,10.779923 -0.384799,10.911072 -0.688619,0.131149 -5.590644,-2.245621 -9.626095,-2.548959 z"
       id="path9906"
       sodipodi:nodetypes="zzzzzczzzzz" /></g></svg>
