<?xml version="1.0" encoding="UTF-8" standalone="no"?>
<!-- Created with Inkscape (http://www.inkscape.org/) -->

<svg
   width="20mm"
   height="20mm"
   viewBox="0 0 20 20"
   version="1.1"
   id="svg135"
   inkscape:version="1.2.1 (9c6d41e410, 2022-07-14, custom)"
   sodipodi:docname="owie.svg"
   xmlns:inkscape="http://www.inkscape.org/namespaces/inkscape"
   xmlns:sodipodi="http://sodipodi.sourceforge.net/DTD/sodipodi-0.dtd"
   xmlns="http://www.w3.org/2000/svg"
   xmlns:svg="http://www.w3.org/2000/svg">
  <sodipodi:namedview
     id="namedview137"
     pagecolor="#000000"
     bordercolor="#eeeeee"
     borderopacity="1"
     inkscape:showpageshadow="0"
     inkscape:pageopacity="0"
     inkscape:pagecheckerboard="0"
     inkscape:deskcolor="#505050"
     inkscape:document-units="mm"
     showgrid="false"
     inkscape:zoom="8.7002359"
     inkscape:cx="33.849657"
     inkscape:cy="32.585323"
     inkscape:window-width="1920"
     inkscape:window-height="1015"
     inkscape:window-x="0"
     inkscape:window-y="0"
     inkscape:window-maximized="1"
     inkscape:current-layer="layer1" />
  <defs
     id="defs132" />
  <g
     inkscape:label="Layer 1"
     inkscape:groupmode="layer"
     id="layer1">
    <path
       style="fill:#ff0000;stroke:#000000;stroke-width:0.574109px;stroke-linecap:butt;stroke-linejoin:miter;stroke-opacity:1"
       d="M 6.2358541,7.1392202 C -0.72915561,3.4286584 2.6670087,9.5773143 1.3637912,11.30487 c 0.072733,1.222079 1.5051794,3.051152 2.4170428,3.061359 8.553742,-0.227588 4.7679095,1.261041 8.944136,3.336617 -0.949665,-3.190681 3.344998,-4.154861 4.264589,-4.295842 1.179121,-1.814235 2.262918,0.865638 0.862128,-3.7677357 L 18.432009,7.9512284 C 5.2828265,11.83243 24.464327,5.0615413 17.39099,4.6902369 10.078276,5.2603518 13.170124,8.8168142 13.247603,3.3012809 12.666834,1.0781725 10.816328,2.3915347 9.6974346,3.198234 6.394534,4.0222331 2.0030227,4.9884182 6.2358541,7.1392271 Z"
       id="path32670"
       sodipodi:nodetypes="cccccccccccc" />
    <path
       sodipodi:type="spiral"
       style="fill:#808000;fill-rule:evenodd;stroke:#008000;stroke-width:0.264583"
       id="path32774"
       sodipodi:cx="3.0662222"
       sodipodi:cy="7.7808619"
       sodipodi:expansion="1"
       sodipodi:revolution="3.2584336"
       sodipodi:radius="2.8532701"
       sodipodi:argument="-19.533091"
       sodipodi:t0="0"
       d="M 3.0662222,7.7808619 C 3.1683446,7.6976807 3.2287323,7.8774821 3.2044748,7.950596 3.1387382,8.14873 2.8757285,8.1547773 2.7267539,8.057367 2.4602735,7.8831228 2.4659302,7.5019601 2.6514645,7.2716595 2.9237435,6.9336841 3.4367366,6.9521554 3.7451587,7.2278516 4.1562368,7.5953112 4.124233,8.2441435 3.757485,8.6295325 3.2959701,9.1145052 2.5096189,9.0686417 2.0478174,8.6103772 1.488514,8.0553576 1.5484035,7.1306238 2.0984542,6.592723 2.7466701,5.9588255 3.8102904,6.0328346 4.4240952,6.6748413 5.1327571,7.4160635 5.044571,8.6188906 4.3104953,9.308469 3.4763917,10.092012 2.1341414,9.9896114 1.3688809,9.1633875 0.51037434,8.2364891 0.62701453,6.7546623 1.545444,5.9137865 2.5650748,4.980255 4.1865908,5.1111532 5.1030317,6.1218311 6.1116345,7.2341478 5.9664648,8.9954382 4.8635055,9.9874055 c -0.037468,0.033698 -0.075833,0.0664 -0.1150381,0.098061"
       transform="rotate(-28.749811,-4.9319989,4.1966229)" />
    <path
       sodipodi:type="spiral"
       style="fill:#008000;fill-rule:evenodd;stroke:#808000;stroke-width:0.264583"
       id="path32776"
       sodipodi:cx="14.202733"
       sodipodi:cy="8.7572346"
       sodipodi:expansion="1"
       sodipodi:revolution="3.2584336"
       sodipodi:radius="3.6906331"
       sodipodi:argument="-19.674124"
       sodipodi:t0="0"
       d="m 14.202733,8.7572346 c 0.115657,-0.1250923 0.225683,0.094188 0.207912,0.1922301 -0.04816,0.2656889 -0.38388,0.3212534 -0.592372,0.223593 -0.372945,-0.1746916 -0.435003,-0.6638494 -0.239275,-0.9925134 0.287239,-0.4823277 0.947553,-0.5519444 1.392655,-0.2549559 0.593251,0.395839 0.670236,1.2325734 0.270638,1.7927967 -0.502854,0.7049839 -1.51822,0.7892229 -2.192939,0.2863189 -0.817175,-0.6090844 -0.908612,-1.8042175 -0.302,-2.5930801 0.714872,-0.9296474 2.090435,-1.028255 2.993222,-0.3176817 1.042303,0.8203851 1.148066,2.3767982 0.333363,3.3933638 -0.925717,1.155085 -2.663265,1.267994 -3.793505,0.349044 -1.267959,-1.0309234 -1.388009,-2.9498062 -0.364726,-4.1936466 1.136039,-1.3808986 3.236404,-1.508088 4.593788,-0.3804073 1.49389,1.2410858 1.628216,3.5230457 0.396089,4.9939299 -0.04186,0.04997 -0.08504,0.09882 -0.129492,0.146496"
       transform="matrix(-0.11092031,-0.78255389,-0.78255389,0.11092031,24.636676,25.952489)" />
  </g>
</svg>
