<?xml version="1.0" encoding="UTF-8" standalone="no"?>
<!-- Created with Inkscape (http://www.inkscape.org/) -->

<svg
   width="40mm"
   height="40mm"
   viewBox="0 0 40 40"
   version="1.1"
   id="svg5"
   xml:space="preserve"
   inkscape:version="1.2.1 (9c6d41e410, 2022-07-14, custom)"
   sodipodi:docname="potion.svg"
   xmlns:inkscape="http://www.inkscape.org/namespaces/inkscape"
   xmlns:sodipodi="http://sodipodi.sourceforge.net/DTD/sodipodi-0.dtd"
   xmlns="http://www.w3.org/2000/svg"
   xmlns:svg="http://www.w3.org/2000/svg"><sodipodi:namedview
     id="namedview7"
     pagecolor="#6f6f6f"
     bordercolor="#eeeeee"
     borderopacity="1"
     inkscape:showpageshadow="0"
     inkscape:pageopacity="0.5254902"
     inkscape:pagecheckerboard="0"
     inkscape:deskcolor="#505050"
     inkscape:document-units="mm"
     showgrid="false"
     inkscape:zoom="5.3247396"
     inkscape:cx="72.304005"
     inkscape:cy="75.590551"
     inkscape:window-width="1768"
     inkscape:window-height="1043"
     inkscape:window-x="55"
     inkscape:window-y="22"
     inkscape:window-maximized="0"
     inkscape:current-layer="layer2" /><defs
     id="defs2" /><g
     inkscape:groupmode="layer"
     id="layer2"
     inkscape:label="Layer 2"
     style="display:inline"><g
       id="g1423"
       transform="matrix(0.76333123,0,0,0.84895374,6.1813397,5.7306597)"
       style="stroke-width:1.24223"><g
         id="g1418"
         style="stroke-width:1.24223"><path
           style="fill:none;stroke:#000000;stroke-width:0.328672px;stroke-linecap:butt;stroke-linejoin:miter;stroke-opacity:1"
           d="M 15.101041,10.820404 C 13.373477,30.993663 -5.7890414,21.582458 11.01615,38.734674 l 15.880062,0.36565 C 45.79595,25.881537 23.30539,28.398127 22.920823,10.614819 49.969072,5.6162442 -10.685858,3.2568117 15.101041,10.820404 Z"
           id="path490"
           sodipodi:nodetypes="ccccc" /><path
           style="fill:#b56cc7;fill-opacity:1;stroke:#d431b6;stroke-width:0.328672px;stroke-linecap:butt;stroke-linejoin:miter;stroke-opacity:1"
           d="m 13.672933,17.434723 c 1.764514,-2.427483 1.779012,-0.03438 2.305424,-0.248205 1.927179,-2.396033 1.343799,-1.779606 2.533792,0.762705 2.118393,-3.406689 1.076637,-2.278402 2.976123,-0.08285 -0.242494,-2.902928 0.522971,-2.860364 2.627071,-0.0879 2.668214,3.940036 8.56091,8.558343 10.022804,12.045476 -0.07001,3.62093 -2.038698,6.539536 -7.369712,8.952336 L 11.297425,38.46192 C 8.0654674,35.615814 5.1149922,32.636335 4.1726605,28.705355 7.540134,22.988968 12.794561,22.217018 13.672933,17.434723 Z"
           id="path698"
           sodipodi:nodetypes="cccccccccc" /></g></g><g
       id="g1428"
       transform="translate(-1.1613815,1.4379216)"><path
         style="fill:#bc62d3;fill-opacity:1;stroke:#ff00df;stroke-width:0.964999;stroke-linecap:round;stroke-opacity:1;paint-order:stroke fill markers;stop-color:#000000"
         id="path1366"
         sodipodi:type="arc"
         sodipodi:cx="18.83919"
         sodipodi:cy="2.0796788"
         sodipodi:rx="1.7992527"
         sodipodi:ry="2.0171597"
         sodipodi:start="0"
         sodipodi:end="6.2783333"
         sodipodi:open="true"
         sodipodi:arc-type="arc"
         d="m 20.638442,2.0796788 a 1.7992527,2.0171597 0 0 1 -1.79707,2.0171582 1.7992527,2.0171597 0 0 1 -1.80143,-2.0122646 1.7992527,2.0171597 0 0 1 1.7927,-2.02203997 1.7992527,2.0171597 0 0 1 1.805779,2.00735907" /><path
         style="display:inline;fill:#bc62d3;fill-opacity:1;stroke:#ff00df;stroke-width:0.964999;stroke-linecap:round;stroke-opacity:1;paint-order:stroke fill markers;stop-color:#000000"
         id="path1366-3"
         sodipodi:type="arc"
         sodipodi:cx="21.550406"
         sodipodi:cy="7.6212773"
         sodipodi:rx="1.1007482"
         sodipodi:ry="2.1013055"
         sodipodi:start="0"
         sodipodi:end="6.2783333"
         sodipodi:open="true"
         sodipodi:arc-type="arc"
         d="m 22.651154,7.6212773 a 1.1007482,2.1013055 0 0 1 -1.099413,2.101304 1.1007482,2.1013055 0 0 1 -1.10208,-2.0962062 1.1007482,2.1013055 0 0 1 1.096739,-2.1063893 1.1007482,2.1013055 0 0 1 1.104741,2.091096" /><path
         style="display:inline;fill:#bc62d3;fill-opacity:1;stroke:#ff00df;stroke-width:0.965001;stroke-linecap:round;stroke-opacity:1;paint-order:stroke fill markers;stop-color:#000000"
         id="path1366-7"
         sodipodi:type="arc"
         sodipodi:cx="25.374405"
         sodipodi:cy="3.7306178"
         sodipodi:rx="1.1142154"
         sodipodi:ry="1.1570307"
         sodipodi:start="0"
         sodipodi:end="6.2783333"
         sodipodi:open="true"
         sodipodi:arc-type="arc"
         d="m 26.48862,3.7306178 a 1.1142154,1.1570307 0 0 1 -1.112864,1.1570298 1.1142154,1.1570307 0 0 1 -1.115563,-1.1542229 1.1142154,1.1570307 0 0 1 1.110157,-1.15983 1.1142154,1.1570307 0 0 1 1.118257,1.1514092" /></g></g></svg>
