<?xml version="1.0" encoding="UTF-8" standalone="no"?>
<!-- Created with Inkscape (http://www.inkscape.org/) -->

<svg
   width="40mm"
   height="40mm"
   viewBox="0 0 40 40"
   version="1.1"
   id="svg5"
   xml:space="preserve"
   inkscape:version="1.2.1 (9c6d41e410, 2022-07-14)"
   sodipodi:docname="revolver.svg"
   xmlns:inkscape="http://www.inkscape.org/namespaces/inkscape"
   xmlns:sodipodi="http://sodipodi.sourceforge.net/DTD/sodipodi-0.dtd"
   xmlns="http://www.w3.org/2000/svg"
   xmlns:svg="http://www.w3.org/2000/svg"><sodipodi:namedview
     id="namedview7"
     pagecolor="#6f6f6f"
     bordercolor="#eeeeee"
     borderopacity="1"
     inkscape:showpageshadow="0"
     inkscape:pageopacity="0.5254902"
     inkscape:pagecheckerboard="0"
     inkscape:deskcolor="#505050"
     inkscape:document-units="mm"
     showgrid="false"
     inkscape:zoom="5.1624326"
     inkscape:cx="112.73755"
     inkscape:cy="106.24836"
     inkscape:window-width="1920"
     inkscape:window-height="1015"
     inkscape:window-x="0"
     inkscape:window-y="0"
     inkscape:window-maximized="1"
     inkscape:current-layer="layer2" /><defs
     id="defs2" /><g
     inkscape:groupmode="layer"
     id="layer2"
     inkscape:label="Layer 2"
     style="display:inline"><path
       style="display:inline;fill:#550000;stroke:#000000;stroke-width:0.148836px;stroke-linecap:butt;stroke-linejoin:miter;stroke-opacity:1"
       d="m 15.352085,22.12703 2.741079,-1.11227 0.895326,-0.01591 -0.254115,0.578179 -3.02117,1.39904 z"
       id="path1283-6" /><path
       style="display:inline;fill:#550000;stroke:#000000;stroke-width:0.148836px;stroke-linecap:butt;stroke-linejoin:miter;stroke-opacity:1"
       d="m 16.402941,24.71759 2.741079,-1.11227 0.895326,-0.01591 -0.254115,0.578179 -3.02117,1.39904 z"
       id="path1283-6-7" /><path
       style="display:inline;fill:#550000;stroke:#000000;stroke-width:0.148836px;stroke-linecap:butt;stroke-linejoin:miter;stroke-opacity:1"
       d="m 17.442595,28.833184 2.741079,-1.11227 0.895326,-0.01591 -0.254115,0.578179 -3.02117,1.39904 z"
       id="path1283-6-5" /><path
       style="display:inline;fill:#550000;stroke:#000000;stroke-width:0.148836px;stroke-linecap:butt;stroke-linejoin:miter;stroke-opacity:1"
       d="m 32.155471,13.00794 2.741079,-1.11227 0.895326,-0.01591 -0.254115,0.578179 -3.02117,1.39904 z"
       id="path1283-6-5-9" /><path
       style="display:inline;fill:#550000;stroke:#000000;stroke-width:0.148836px;stroke-linecap:butt;stroke-linejoin:miter;stroke-opacity:1"
       d="m 15.846428,23.56031 2.741079,-1.11227 0.895326,-0.01591 -0.254115,0.578179 -3.02117,1.39904 z"
       id="path1283-6-3" /><path
       style="display:inline;fill:#550000;stroke:#000000;stroke-width:0.148836px;stroke-linecap:butt;stroke-linejoin:miter;stroke-opacity:1"
       d="m 16.84119,26.018743 2.741079,-1.11227 0.895326,-0.01591 -0.254115,0.578179 -3.02117,1.39904 z"
       id="path1283-6-56" /><path
       style="display:inline;fill:#550000;stroke:#000000;stroke-width:0.148836px;stroke-linecap:butt;stroke-linejoin:miter;stroke-opacity:1"
       d="m 17.365028,27.516449 2.741079,-1.11227 0.895326,-0.01591 -0.254115,0.578179 -3.02117,1.39904 z"
       id="path1283-6-2" /><path
       style="opacity:0.49;fill:#c8b7b7;stroke:#000000;stroke-width:0.200415px;stroke-linecap:butt;stroke-linejoin:miter;stroke-opacity:1"
       d="m 21.990102,12.20827 c -0.612254,-1.136454 0.167794,-2.716116 1.494157,-2.789857 0.978117,-0.3243823 1.651627,0.657148 2.166609,1.055581 0.707875,-0.4911487 2.244049,0.609978 1.805203,1.396069 -1.297659,0.01327 -0.138443,-1.731863 0.816469,-1.089082 1.049534,0.166834 1.322381,1.286962 1.506714,2.163062 0.13654,0.940716 0.77666,1.884511 0.456258,2.844452 -0.74802,1.144741 -1.253144,-1.379579 -0.06542,-0.756925 1.368891,0.459052 2.548463,2.001172 2.094537,3.469112 -0.130323,1.030543 -2.249524,0.825582 -1.791477,0.08414 0.788047,0.917179 -0.834287,1.820966 -1.660621,1.851161 -1.099118,0.07751 -2.153949,-1.298441 -1.368112,-2.244417 0.898684,-0.705289 0.804984,0.829397 -0.124429,0.406815 -1.142154,-0.109002 -1.455877,-1.464079 -1.502251,-2.4154 -0.324692,-0.49962 0.578333,-1.558632 0.464658,-0.582334 -0.448491,0.8852 -1.748983,1.59049 -2.536316,0.683268 -0.61737,-0.729283 -1.588063,-2.353258 -0.70908,-3.044051 1.248835,0.343842 0.0023,2.261603 -0.583366,0.988621 -0.199228,-0.639326 -0.884942,-1.332338 -0.463533,-2.020215 z"
       id="path857" /><path
       style="fill:#808080;stroke:#000000;stroke-width:0.264583px;stroke-linecap:butt;stroke-linejoin:miter;stroke-opacity:1"
       d="M 1.3905239,39.154441 2.0339461,25.932488 5.1184391,20.35824 23.93956,14.613076 l 1.585859,3.538958 -10.39576,3.927954 1.078671,3.703904 -2.321059,0.560039 -4.3894848,0.312248 -1.5207086,4.198301 -0.7463838,7.338206 z"
       id="path1204"
       sodipodi:nodetypes="cccccccccccc" /><path
       style="fill:none;stroke:#000000;stroke-width:0.336127px;stroke-linecap:butt;stroke-linejoin:miter;stroke-opacity:1"
       d="m 8.6362253,27.952967 c 0.888711,-0.859484 2.8596347,-1.754132 4.2176157,-1.398797 1.290891,0.655958 1.132228,1.815728 0.947503,2.724648 -0.171593,0.77048 -0.343231,1.419665 -1.231512,1.923547 -2.9900257,0.661633 -4.9502157,-1.852911 -3.9336067,-3.249398 z"
       id="path1206"
       sodipodi:nodetypes="ccccc" /><path
       style="opacity:0.72;fill:#ff6600;stroke:#000000;stroke-width:0.264583px;stroke-linecap:butt;stroke-linejoin:miter;stroke-opacity:1"
       d="m 16.130283,25.483793 c 0.420285,1.497677 1.425106,4.759227 1.425106,4.759227 l 4.78439,-1.916279 -3.161854,-8.064139 -4.530406,1.436853 z"
       id="path1281" /></g></svg>
