<?xml version="1.0" encoding="UTF-8" standalone="no"?>
<!-- Created with Inkscape (http://www.inkscape.org/) -->

<svg
   width="40mm"
   height="40mm"
   viewBox="0 0 40 40"
   version="1.1"
   id="svg5"
   xml:space="preserve"
   inkscape:version="1.2.1 (9c6d41e410, 2022-07-14)"
   sodipodi:docname="rifle.svg"
   xmlns:inkscape="http://www.inkscape.org/namespaces/inkscape"
   xmlns:sodipodi="http://sodipodi.sourceforge.net/DTD/sodipodi-0.dtd"
   xmlns="http://www.w3.org/2000/svg"
   xmlns:svg="http://www.w3.org/2000/svg"><sodipodi:namedview
     id="namedview7"
     pagecolor="#6f6f6f"
     bordercolor="#eeeeee"
     borderopacity="1"
     inkscape:showpageshadow="0"
     inkscape:pageopacity="0.5254902"
     inkscape:pagecheckerboard="0"
     inkscape:deskcolor="#505050"
     inkscape:document-units="mm"
     showgrid="false"
     inkscape:zoom="5.1624326"
     inkscape:cx="112.73755"
     inkscape:cy="56.853042"
     inkscape:window-width="1920"
     inkscape:window-height="1015"
     inkscape:window-x="0"
     inkscape:window-y="0"
     inkscape:window-maximized="1"
     inkscape:current-layer="layer1" /><defs
     id="defs2" /><g
     inkscape:groupmode="layer"
     id="layer1"
     inkscape:label="Layer 3"
     style="opacity:0.53" /><g
     inkscape:groupmode="layer"
     id="layer2"
     inkscape:label="Layer 2"
     style="display:inline"><path
       style="opacity:0.49;fill:#c8b7b7;stroke:#000000;stroke-width:0.200415px;stroke-linecap:butt;stroke-linejoin:miter;stroke-opacity:1"
       d="m 28.698125,3.7980071 c -0.612254,-1.136454 0.167794,-2.7161162 1.494157,-2.7898572 0.978117,-0.32438229 1.651627,0.657148 2.166609,1.0555807 0.707875,-0.4911484 2.244049,0.6099787 1.805203,1.3960698 -1.297659,0.013267 -0.138443,-1.731863 0.816469,-1.0890826 1.049534,0.1668341 1.322381,1.2869617 1.506714,2.1630624 0.13654,0.940716 0.77666,1.884511 0.456258,2.844452 -0.74802,1.144741 -1.253144,-1.379579 -0.06542,-0.756925 1.368891,0.459052 2.548463,2.001172 2.094537,3.4691118 -0.130323,1.030543 -2.249524,0.825582 -1.791477,0.08414 0.788047,0.917179 -0.834287,1.820966 -1.660621,1.851161 -1.099118,0.07751 -2.153949,-1.298441 -1.368112,-2.2444168 0.898684,-0.705289 0.804984,0.8293968 -0.124429,0.4068148 -1.142154,-0.109002 -1.455877,-1.4640788 -1.502251,-2.4153998 -0.324692,-0.49962 0.578333,-1.558632 0.464658,-0.582334 -0.448491,0.8852 -1.748983,1.59049 -2.536316,0.683268 -0.61737,-0.729283 -1.588063,-2.353258 -0.70908,-3.044051 1.248835,0.343842 0.0023,2.261603 -0.583366,0.988621 -0.199228,-0.639326 -0.884942,-1.332338 -0.463533,-2.0202151 z"
       id="path857" /><g
       id="g1026"
       transform="matrix(1.0335336,-0.48731013,0.48731013,1.0335336,-11.064995,6.1573423)"><path
         style="opacity:0.53;fill:#008000;stroke:#000000;stroke-width:0.264583px;stroke-linecap:butt;stroke-linejoin:miter;stroke-opacity:1"
         d="m 13.730934,20.360623 5.619452,-2.454556 3.528733,1.092261 1.238735,2.055637 -9.284021,3.052178 z"
         id="path980"
         sodipodi:nodetypes="cccccc" /><path
         style="opacity:0.53;fill:#ffffff;stroke:#000000;stroke-width:0.161716px;stroke-linecap:butt;stroke-linejoin:miter;stroke-opacity:1"
         d="m 29.356802,15.813027 c 0.33135,0.193684 0.543726,0.543016 0.651475,0.903321 0.116917,0.788184 -0.443748,1.156767 -1.141214,1.101302 -0.706703,-0.02994 -1.075443,-0.618075 -0.865442,-1.244673 0.186429,-0.568026 0.870337,-0.948665 1.355181,-0.75995 z"
         id="path984"
         sodipodi:nodetypes="ccccc" /><path
         style="fill:#b3b3b3;stroke:#000000;stroke-width:0.264583px;stroke-linecap:butt;stroke-linejoin:miter;stroke-opacity:1"
         d="m 30.833424,18.178377 c -5.988393,1.232658 -11.853426,3.138992 -17.74473,4.788562 -1.005217,2.650414 -2.520419,1.457061 -3.0888614,0.424046 l -10.90501902,2.301243 c 0,0 0.7763766,3.981021 2.36223372,4.789947 1.5951214,0.813653 5.2951943,-0.904928 5.2951943,-0.904928 C 4.7684658,29.4724 5.1795738,28.519299 5.6810432,27.534193 c 2.6304144,-0.945699 5.2953028,-1.082315 8.0291238,0.398832 0.258548,-1.062718 0.383997,-2.258533 1.163161,-2.800635 l 16.149821,-4.040225 z"
         id="path795"
         sodipodi:nodetypes="ccccscccccc" /><g
         id="g922"
         transform="translate(2.6694962,5.4431002)"><g
           id="g926"><path
             style="fill:none;stroke:#000000;stroke-width:0.280011px;stroke-linecap:butt;stroke-linejoin:miter;stroke-opacity:1"
             d="M 24.353996,14.700419 C 18.790297,14.52972 14.506211,16.907743 12.186607,18.285076 Z"
             id="path916"
             sodipodi:nodetypes="ccc" /><path
             style="fill:none;stroke:#000000;stroke-width:0.264583px;stroke-linecap:butt;stroke-linejoin:miter;stroke-opacity:1"
             d="m 24.153592,14.744483 c -3.033573,2.832981 -8.997029,3.30673 -11.983049,3.420399 4.189521,-0.741437 7.982004,-2.395212 11.983049,-3.420399 z"
             id="path918"
             sodipodi:nodetypes="ccc" /></g></g><path
         style="fill:#4d4d4d;stroke:#000000;stroke-width:0.264583px;stroke-linecap:butt;stroke-linejoin:miter;stroke-opacity:1"
         d="m 7.1943324,20.832899 -0.2333903,-1.740293 1.3859407,-0.516164 1.2105367,-1.277754 1.9991665,-0.359467 0.461619,2.760732 6.571654,-1.509638 c 1.820576,-0.325499 2.250992,-0.58657 3.188768,-0.617377 l 6.967693,-1.596028 0.722455,1.583394 -6.831878,1.456977 c -1.210954,0.372563 -1.172589,0.617016 -2.355688,0.550414 L 9.8700977,22.966049 5.5403543,23.217636 4.9646432,21.096871 Z"
         id="path928"
         sodipodi:nodetypes="cccccccccccccccc" /></g></g></svg>
