<?xml version="1.0" encoding="UTF-8" standalone="no"?>
<!-- Created with Inkscape (http://www.inkscape.org/) -->

<svg
   width="40mm"
   height="40mm"
   viewBox="0 0 40 40"
   version="1.1"
   id="svg135"
   inkscape:version="1.2.1 (9c6d41e410, 2022-07-14, custom)"
   sodipodi:docname="rookie trader.svg"
   xmlns:inkscape="http://www.inkscape.org/namespaces/inkscape"
   xmlns:sodipodi="http://sodipodi.sourceforge.net/DTD/sodipodi-0.dtd"
   xmlns="http://www.w3.org/2000/svg"
   xmlns:svg="http://www.w3.org/2000/svg">
  <sodipodi:namedview
     id="namedview137"
     pagecolor="#ffffff"
     bordercolor="#eeeeee"
     borderopacity="1"
     inkscape:showpageshadow="0"
     inkscape:pageopacity="0"
     inkscape:pagecheckerboard="0"
     inkscape:deskcolor="#505050"
     inkscape:document-units="mm"
     showgrid="false"
     inkscape:zoom="5.3247396"
     inkscape:cx="75.49665"
     inkscape:cy="75.590551"
     inkscape:window-width="1920"
     inkscape:window-height="1015"
     inkscape:window-x="0"
     inkscape:window-y="0"
     inkscape:window-maximized="1"
     inkscape:current-layer="layer1" />
  <defs
     id="defs132" />
  <g
     inkscape:label="Layer 1"
     inkscape:groupmode="layer"
     id="layer1">
    <g
       id="g2569"
       transform="matrix(1.9963423,0,0,1.9985323,1.223268,0.26326636)"
       style="stroke-width:0.500642">
      <path
         style="fill:#ffff00;stroke:#000000;stroke-width:0.0250321;stroke-linecap:butt;stroke-linejoin:miter;stroke-dasharray:none;stroke-opacity:1"
         d="m 7.3973213,13.520058 3.7987517,-0.144374 0.475784,4.607529 -0.791784,-0.02202 -0.200749,-3.824307 -2.9760451,-0.115092 -0.5791965,3.71685 -0.9148026,-0.265763 z"
         id="path1793" />
      <path
         style="fill:#ff0000;stroke:#000000;stroke-width:0.0826059;stroke-linecap:butt;stroke-linejoin:miter;stroke-dasharray:none;stroke-opacity:1"
         d="m 6.6738952,12.789338 -0.3179124,3.078982 1.4527072,0.182629 0.2759922,-1.767427 2.2953568,0.227225 0.18614,1.546733 1.216068,-0.04011 0.444204,-3.259769 z"
         id="path1789"
         sodipodi:nodetypes="ccccccccc" />
      <path
         style="fill:#ffff00;stroke:#000000;stroke-width:0.100128;stroke-linecap:butt;stroke-linejoin:miter;stroke-dasharray:none;stroke-opacity:1"
         d="M 8.3251484,5.9817332 C 8.3460509,5.9780141 8.6756133,5.1774967 8.3780998,4.8785828 8.0222098,4.5210176 7.146288,3.9710747 7.1318018,3.4667923 7.1093114,2.6838766 8.2564362,1.4750742 9.0377226,1.5303404 9.58187,1.568832 11.113761,3.1792127 11.111757,3.7247161 11.109895,4.2316865 9.8731369,4.5196924 9.7086356,4.9992358 9.5767147,5.3838031 9.7935345,6.0679121 9.7935345,6.0679121 L 9.4674395,6.5852463 8.7585337,7.2013616 7.8690038,6.8860267 Z"
         id="path1620"
         sodipodi:nodetypes="csssssccccc" />
      <path
         style="fill:#ffff00;stroke:#000000;stroke-width:0.0325417;stroke-linecap:butt;stroke-linejoin:miter;stroke-dasharray:none;stroke-opacity:1"
         d="M 5.7922649,5.671314 4.023361,8.1292971 4.0537875,10.663941 c -0.5332817,0.08765 -0.8299501,0.327307 -0.7018977,0.839812 0.5014893,0.692531 1.3190882,0.840984 1.9318099,-0.03248 C 5.2680646,11.030318 5.1194451,10.74148 4.7267413,10.731838 L 4.5184718,8.1455547 6.2801237,5.9869262 Z"
         id="path867"
         sodipodi:nodetypes="ccccccccc" />
      <path
         style="fill:#ffff00;stroke:#000000;stroke-width:0.0325417;stroke-linecap:butt;stroke-linejoin:miter;stroke-dasharray:none;stroke-opacity:1"
         d="m 13.343016,6.0462902 1.768904,2.4579831 -0.03043,2.5346437 c 0.533282,0.08765 0.82995,0.327307 0.701898,0.839812 -0.50149,0.692531 -1.319088,0.840984 -1.93181,-0.03248 0.01563,-0.440955 0.164254,-0.729793 0.556958,-0.739435 l 0.20827,-2.5862831 -1.761652,-2.1586285 z"
         id="path867-3"
         sodipodi:nodetypes="ccccccccc" />
      <path
         style="fill:#501616;stroke:#000000;stroke-width:0.0250321;stroke-linecap:butt;stroke-linejoin:miter;stroke-dasharray:none;stroke-opacity:1"
         d="M 13.386837,7.5897506 14.214389,6.8947254 13.304073,5.6169588 11.528193,5.5714513 C 10.533511,5.8651089 8.8703671,6.555513 7.5767318,5.610929 L 5.278184,5.629902 4.5776358,6.7183726 l 0.8158271,0.658835 1.1002256,-1.1480374 0.057634,6.8489138 5.6871785,-0.112947 0.03177,-6.8914748 z"
         id="path1568"
         sodipodi:nodetypes="ccccccccccccc" />
      <path
         style="fill:#c87137;stroke:#000000;stroke-width:0.0325417;stroke-linecap:butt;stroke-linejoin:miter;stroke-dasharray:none;stroke-opacity:1"
         d="m 6.6974095,10.988412 1.056316,0.03043 0.088961,0.56022 -1.1317428,0.01775 z"
         id="path1570" />
      <path
         style="fill:#c87137;stroke:#000000;stroke-width:0.0325417;stroke-linecap:butt;stroke-linejoin:miter;stroke-dasharray:none;stroke-opacity:1"
         d="m 7.9230752,11.06959 1.056316,0.03043 0.088961,0.56022 -1.1317428,0.01775 z"
         id="path1570-6" />
      <path
         style="fill:#c87137;stroke:#000000;stroke-width:0.0325417;stroke-linecap:butt;stroke-linejoin:miter;stroke-dasharray:none;stroke-opacity:1"
         d="m 9.309468,10.941221 1.056316,0.03043 0.08896,0.56022 -1.1317428,0.01775 z"
         id="path1570-7" />
      <path
         style="fill:#c87137;stroke:#000000;stroke-width:0.0325417;stroke-linecap:butt;stroke-linejoin:miter;stroke-dasharray:none;stroke-opacity:1"
         d="m 10.772883,10.787177 1.056316,0.03043 0.08896,0.56022 -1.131743,0.01775 z"
         id="path1570-5" />
      <path
         style="fill:#25ae2b;fill-opacity:1;stroke:#000000;stroke-width:0;stroke-linecap:butt;stroke-linejoin:miter;stroke-dasharray:none;stroke-opacity:1"
         d="m 7.9311213,9.640686 c 0.6278127,0.767508 2.0788127,1.239569 2.7410147,0.2225265 L 12.095555,7.677053 12.602865,6.6757775 13.464701,5.29827 C 11.782278,5.1100127 10.344872,5.897643 9.1791506,5.8821038 8.029666,5.866781 7.0535114,5.262123 5.3639215,5.387527 L 6.574421,7.9821047 Z"
         id="path1779"
         sodipodi:nodetypes="sscccsccs" />
      <path
         style="fill:#800000;stroke:#000000;stroke-width:0.0250321;stroke-linecap:butt;stroke-linejoin:miter;stroke-dasharray:none;stroke-opacity:1"
         d="m 10.380388,17.527789 0.100377,1.099754 3.098744,0.03619 c -1.000834,-0.960868 -0.826327,-1.885135 -1.641855,-0.55674 L 11.80433,17.459489 c -0.477868,-0.0087 -0.950241,0.01375 -1.423942,0.0683 z"
         id="path1795"
         sodipodi:nodetypes="cccccc" />
      <path
         style="fill:#800000;stroke:#000000;stroke-width:0.0250321;stroke-linecap:butt;stroke-linejoin:miter;stroke-dasharray:none;stroke-opacity:1"
         d="m 7.3666998,17.462998 -0.100377,1.099754 -3.098744,0.03619 c 1.000834,-0.960868 0.826327,-1.885135 1.641855,-0.55674 l 0.133324,-0.647504 c 0.477868,-0.0087 0.950241,0.01375 1.423942,0.0683 z"
         id="path1795-3"
         sodipodi:nodetypes="cccccc" />
    </g>
    <g
       id="g5443">
      <circle
         style="fill:#ffff00;fill-opacity:1;stroke:#000000;stroke-width:0.292914;stroke-linecap:round;stroke-linejoin:round;stroke-dasharray:none;paint-order:markers stroke fill;stop-color:#000000"
         id="path2697"
         cx="31.509792"
         cy="23.830301"
         r="2.3535433" />
      <text
         xml:space="preserve"
         style="font-weight:bold;font-size:5.79575px;line-height:1.25;font-family:sans-serif;-inkscape-font-specification:'sans-serif Bold';fill:#a2a233;fill-opacity:1;stroke-width:0.3875"
         x="27.653942"
         y="27.850986"
         id="text2753"
         transform="scale(1.0801835,0.92576864)"><tspan
           sodipodi:role="line"
           id="tspan2751"
           style="fill:#a2a233;fill-opacity:1;stroke-width:0.3875"
           x="27.653942"
           y="27.850986">$</tspan></text>
    </g>
    <g
       id="g5369"
       transform="matrix(0.28187008,0,0,0.28187008,8.2392302,17.489693)">
      <path
         style="fill:#00ff00;stroke:#000000;stroke-width:0.264583px;stroke-linecap:butt;stroke-linejoin:miter;stroke-opacity:1"
         d="M 0.8532547,18.152091 C 1.0952009,2.0214946 18.159216,13.983774 13.126097,24.476185 8.0929778,34.968596 -10.054517,23.686133 0.8532547,18.152091 Z"
         id="path2899"
         sodipodi:nodetypes="czc" />
      <path
         style="fill:none;stroke:#aa4400;stroke-width:0.965;stroke-linecap:round;stroke-linejoin:miter;stroke-dasharray:none;stroke-opacity:1"
         d="M 2.2745362,18.545237 C 0.4696067,17.345318 -1.3342471,16.18945 -3.070064,17.819856"
         id="path2901"
         sodipodi:nodetypes="cc" />
    </g>
    <path
       style="fill:#501616;fill-opacity:1;stroke:#000000;stroke-width:0.2;stroke-linecap:round;stroke-linejoin:round;stroke-dasharray:none;paint-order:markers stroke fill;stop-color:#000000"
       d="m 9.1562088,7.2883603 5.2840172,-1.2128542 0.184207,-3.9381664 9.919521,-0.2103249 -0.0127,3.1585935 7.47399,2.2652246 -8.244838,-0.22065 -4.329656,-2.2772717 -5.035096,2.5408512 z"
       id="path5425" />
    <text
       xml:space="preserve"
       style="font-weight:bold;font-size:2.81901px;line-height:1.25;font-family:sans-serif;-inkscape-font-specification:'sans-serif Bold';fill:#a2a233;fill-opacity:1;stroke-width:0.188477"
       x="22.526966"
       y="7.9631948"
       id="text2753-7"
       transform="scale(1.0801835,0.92576864)"><tspan
         sodipodi:role="line"
         id="tspan2751-5"
         style="fill:#a2a233;fill-opacity:1;stroke-width:0.188477"
         x="22.526966"
         y="7.9631948">$</tspan></text>
  </g>
</svg>
