<?xml version="1.0" encoding="UTF-8" standalone="no"?>
<!-- Created with Inkscape (http://www.inkscape.org/) -->

<svg
   width="40mm"
   height="40mm"
   viewBox="0 0 40 40"
   version="1.1"
   id="svg5"
   xml:space="preserve"
   inkscape:version="1.2.1 (9c6d41e410, 2022-07-14, custom)"
   sodipodi:docname="saw.svg"
   xmlns:inkscape="http://www.inkscape.org/namespaces/inkscape"
   xmlns:sodipodi="http://sodipodi.sourceforge.net/DTD/sodipodi-0.dtd"
   xmlns="http://www.w3.org/2000/svg"
   xmlns:svg="http://www.w3.org/2000/svg"><sodipodi:namedview
     id="namedview7"
     pagecolor="#6f6f6f"
     bordercolor="#eeeeee"
     borderopacity="1"
     inkscape:showpageshadow="0"
     inkscape:pageopacity="0.5254902"
     inkscape:pagecheckerboard="0"
     inkscape:deskcolor="#505050"
     inkscape:document-units="mm"
     showgrid="false"
     inkscape:zoom="5.1527604"
     inkscape:cx="81.024532"
     inkscape:cy="80.054178"
     inkscape:window-width="1920"
     inkscape:window-height="1015"
     inkscape:window-x="0"
     inkscape:window-y="0"
     inkscape:window-maximized="1"
     inkscape:current-layer="layer2" /><defs
     id="defs2" /><g
     inkscape:groupmode="layer"
     id="layer1"
     inkscape:label="Layer 3"
     style="opacity:0.53" /><g
     inkscape:groupmode="layer"
     id="layer2"
     inkscape:label="Layer 2"
     style="display:inline"><g
       id="g2971"
       transform="matrix(1.2750625,0,0,1.2302549,-7.4312419,-5.1293839)"
       style="stroke-width:1.09873"><path
         style="fill:#b3b3b3;stroke:#000000;stroke-width:0.290706px;stroke-linecap:butt;stroke-linejoin:miter;stroke-opacity:1"
         d="m 11.965664,15.264504 22.513447,-0.367753 0.437649,8.366438 -1.703107,-1.811308 -1.470731,2.106176 -1.612231,-2.342434 -1.791985,2.158203 -1.911827,-2.223642 -1.64855,2.142226 -1.554624,-2.371706 -1.108977,1.974221 -0.931614,-1.762525 -1.713,1.804991 -1.389432,-2.578341 -1.163699,2.490038 -0.750692,-2.958227 -1.19522,3.251414 -1.399194,-2.809832 z"
         id="path2959" /><path
         style="fill:#ff6600;stroke:#ff6600;stroke-width:0.290706px;stroke-linecap:butt;stroke-linejoin:miter;stroke-opacity:1"
         d="m 15.566206,14.872133 -7.6811631,-0.513929 0.02357,8.244808 6.8463821,0.414727 -2.453522,-4.951435 -2.267929,2.476277 -1.0596161,-2.19036 1.6950541,-1.765057 3.47716,4.299551 z"
         id="path2961"
         sodipodi:nodetypes="cccccccccc" /><path
         style="fill:none;stroke:#000000;stroke-width:0.290706px;stroke-linecap:butt;stroke-linejoin:miter;stroke-opacity:1"
         d="m 15.74088,15.072879 -0.921637,-0.721444 -7.1913392,-0.392223 0.00789,9.116975 7.1517612,0.158106 h 0.41014 l -0.950096,-2.302434 z"
         id="path2963" /><path
         style="fill:none;stroke:#000000;stroke-width:0.392021px;stroke-linecap:butt;stroke-linejoin:miter;stroke-opacity:1"
         d="m 8.9216504,18.693295 2.0062536,-1.987146 1.091538,1.638206 -2.0791309,1.730226 z"
         id="path2965" /></g></g></svg>
