<?xml version="1.0" encoding="UTF-8" standalone="no"?>
<!-- Created with Inkscape (http://www.inkscape.org/) -->

<svg
   width="40mm"
   height="40mm"
   viewBox="0 0 40 40"
   version="1.1"
   id="svg5"
   xml:space="preserve"
   inkscape:version="1.2.1 (9c6d41e410, 2022-07-14, custom)"
   sodipodi:docname="saw2.svg"
   xmlns:inkscape="http://www.inkscape.org/namespaces/inkscape"
   xmlns:sodipodi="http://sodipodi.sourceforge.net/DTD/sodipodi-0.dtd"
   xmlns="http://www.w3.org/2000/svg"
   xmlns:svg="http://www.w3.org/2000/svg"><sodipodi:namedview
     id="namedview7"
     pagecolor="#6f6f6f"
     bordercolor="#eeeeee"
     borderopacity="1"
     inkscape:showpageshadow="0"
     inkscape:pageopacity="0.5254902"
     inkscape:pagecheckerboard="0"
     inkscape:deskcolor="#505050"
     inkscape:document-units="mm"
     showgrid="false"
     inkscape:zoom="6.7125522"
     inkscape:cx="72.178209"
     inkscape:cy="89.757216"
     inkscape:window-width="1920"
     inkscape:window-height="1015"
     inkscape:window-x="0"
     inkscape:window-y="0"
     inkscape:window-maximized="1"
     inkscape:current-layer="layer2" /><defs
     id="defs2" /><g
     inkscape:groupmode="layer"
     id="layer1"
     inkscape:label="Layer 3"
     style="opacity:0.53" /><g
     inkscape:groupmode="layer"
     id="layer2"
     inkscape:label="Layer 2"
     style="display:inline"><path
       style="fill:#b3b3b3;stroke:#000000;stroke-width:0.364097px;stroke-linecap:butt;stroke-linejoin:miter;stroke-opacity:1"
       d="m 7.8257276,13.649847 28.7060524,-0.45243 0.558029,10.292851 -1.814403,-2.22837 -1.814404,2.22837 -1.814405,-2.22837 -1.814404,2.22837 -1.814404,-2.22837 -1.814403,2.22837 -1.814404,-2.22837 -1.814405,2.22837 -1.814404,-2.22837 -1.814404,2.22837 -1.814403,-2.22837 -1.814404,2.22837 -1.814405,-2.22837 -1.814404,2.22837 -1.8144035,-2.22837 z"
       id="path2959"
       sodipodi:nodetypes="ccccccccccccccccccc" /><path
       id="path2963"
       style="fill:#803300;stroke:#000000;stroke-width:0.364097px;stroke-linecap:butt;stroke-linejoin:miter;stroke-opacity:1;fill-rule:evenodd"
       d="M 2.2949504 12.044226 L 2.3047689 23.260079 L 11.423592 23.454899 L 11.946558 23.454899 L 10.735262 20.621997 L 12.639539 13.414168 L 11.464417 12.526367 L 2.2949504 12.044226 z M 6.5024455 15.423348 L 7.8940918 17.438729 L 5.2430908 19.567281 L 3.9444621 17.86816 L 6.5024455 15.423348 z " /></g></svg>
