<?xml version="1.0" encoding="UTF-8" standalone="no"?>
<!-- Created with Inkscape (http://www.inkscape.org/) -->

<svg
   width="40mm"
   height="40mm"
   viewBox="0 0 40 40"
   version="1.1"
   id="svg5"
   xml:space="preserve"
   inkscape:version="1.2.1 (9c6d41e410, 2022-07-14, custom)"
   sodipodi:docname="stalion.svg.svg"
   xmlns:inkscape="http://www.inkscape.org/namespaces/inkscape"
   xmlns:sodipodi="http://sodipodi.sourceforge.net/DTD/sodipodi-0.dtd"
   xmlns="http://www.w3.org/2000/svg"
   xmlns:svg="http://www.w3.org/2000/svg"><sodipodi:namedview
     id="namedview7"
     pagecolor="#ffffff"
     bordercolor="#ffffff"
     borderopacity="1"
     inkscape:showpageshadow="0"
     inkscape:pageopacity="0.5254902"
     inkscape:pagecheckerboard="0"
     inkscape:deskcolor="#ff0000"
     inkscape:document-units="mm"
     showgrid="false"
     inkscape:zoom="3.7651595"
     inkscape:cx="124.56312"
     inkscape:cy="83.794592"
     inkscape:window-width="1920"
     inkscape:window-height="1015"
     inkscape:window-x="0"
     inkscape:window-y="0"
     inkscape:window-maximized="1"
     inkscape:current-layer="layer1" /><defs
     id="defs2" /><g
     inkscape:groupmode="layer"
     id="layer1"
     inkscape:label="Layer 3"><g
       inkscape:groupmode="layer"
       id="layer2"
       inkscape:label="Layer 2"
       style="display:inline" /><path
       style="fill:#000000;fill-opacity:1;stroke:#000000;stroke-width:0.964998;stroke-linecap:round;stroke-opacity:1;paint-order:stroke fill markers;stop-color:#000000"
       id="path6362-4"
       sodipodi:type="arc"
       sodipodi:cx="34.09029"
       sodipodi:cy="10.008657"
       sodipodi:rx="0.0091103353"
       sodipodi:ry="0.012108558"
       sodipodi:start="0"
       sodipodi:end="6.2783333"
       sodipodi:open="true"
       sodipodi:arc-type="arc"
       d="m 34.0994,10.008657 a 0.00911034,0.01210856 0 0 1 -0.0091,0.01211 0.00911034,0.01210856 0 0 1 -0.0091,-0.01208 0.00911034,0.01210856 0 0 1 0.0091,-0.012138 0.00911034,0.01210856 0 0 1 0.0091,0.01205" /><path
       style="fill:#aa0000;stroke:#000000;stroke-width:0.264583px;stroke-linecap:butt;stroke-linejoin:miter;stroke-opacity:1"
       d="M 35.698192,12.020466 32.915662,8.3759581 33.357603,5.9455436 C 31.507464,8.0898702 31.920241,8.1461075 31.502374,5.4670564 l -1.037425,2.5660946 -5.807475,5.268526 c -4.840703,2.818955 -4.5333,2.556186 -9.766936,1.734145 -6.0005251,3.468046 -6.4643567,3.206276 -2.785755,9.034127 -0.657012,1.10458 -1.369506,1.923219 -1.307689,6.732397 l 1.540893,0.01195 c -0.350391,-3.228673 -0.274463,-3.136517 1.969983,-5.201353 l 4.737446,6.307306 0.801405,-0.550545 -4.531088,-7.666702 12.487809,0.445303 c 2.165146,1.63036 0.702018,2.355272 -0.151648,3.520113 l 0.269598,2.013325 2.195155,-3.332245 2.50689,4.55016 1.125873,-0.79621 C 30.315588,24.411711 29.58757,23.541268 29.443421,17.41692 l 1.8471,-4.496247 3.436779,1.52689 z"
       id="path6228"
       sodipodi:nodetypes="cccccccccccccccccccccccc" /><path
       style="fill:#000000;fill-opacity:1;stroke:#000000;stroke-width:0.964998;stroke-linecap:round;stroke-opacity:1;paint-order:stroke fill markers;stop-color:#000000"
       id="path6362"
       sodipodi:type="arc"
       sodipodi:cx="32.735535"
       sodipodi:cy="10.722095"
       sodipodi:rx="0.0091103353"
       sodipodi:ry="0.012108558"
       sodipodi:start="0"
       sodipodi:end="6.2783333"
       sodipodi:open="true"
       sodipodi:arc-type="arc"
       d="m 32.744645,10.722095 a 0.00911034,0.01210856 0 0 1 -0.0091,0.01211 0.00911034,0.01210856 0 0 1 -0.0091,-0.01208 0.00911034,0.01210856 0 0 1 0.0091,-0.01214 0.00911034,0.01210856 0 0 1 0.0091,0.01205" /><path
       style="fill:#999999;stroke:#000000;stroke-width:0.264583px;stroke-linecap:butt;stroke-linejoin:miter;stroke-opacity:1"
       d="m 35.925266,12.188109 1.467635,1.417892 -0.850441,1.150555 -1.665315,-0.248979 z"
       id="path6493" /><path
       style="fill:#4d4d4d;stroke:#000000;stroke-width:0.264583px;stroke-linecap:butt;stroke-linejoin:miter;stroke-opacity:1"
       d="m 33.489064,29.773876 2.106224,2.037581 -1.559554,0.655998 -1.734001,-1.717342 z"
       id="path6497" /><path
       style="fill:#4d4d4d;stroke:#000000;stroke-width:0.264583px;stroke-linecap:butt;stroke-linejoin:miter;stroke-opacity:1"
       d="m 19.912638,31.138282 2.106224,2.037581 -1.559554,0.655998 -1.734001,-1.717342 z"
       id="path6497-5" /><path
       style="fill:#4d4d4d;stroke:#000000;stroke-width:0.264583px;stroke-linecap:butt;stroke-linejoin:miter;stroke-opacity:1"
       d="m 12.261308,30.423225 0.59851,2.870894 -1.658054,-0.335328 -0.470371,-2.396496 z"
       id="path6497-0"
       inkscape:transform-center-x="-0.8473149"
       inkscape:transform-center-y="-0.66297063" /><path
       style="fill:#4d4d4d;stroke:#000000;stroke-width:0.264583px;stroke-linecap:butt;stroke-linejoin:miter;stroke-opacity:1"
       d="m 27.443039,27.767499 -2.106224,2.037581 1.559554,0.655999 1.734001,-1.717343 z"
       id="path6497-3"
       inkscape:transform-center-x="-1.5588415"
       inkscape:transform-center-y="-0.21314237" /><path
       style="fill:#808080;stroke:#666666;stroke-width:0.264583px;stroke-linecap:butt;stroke-linejoin:miter;stroke-opacity:1"
       d="m 30.390535,7.5914918 -6.172926,0.1867894 3.008853,1.2076142 -2.004371,0.8248722 0.408709,0.7595504 -3.273361,-1.3369297 1.442705,1.1954997 0.667309,0.544568 -0.05911,0.608909 -1.07274,0.801476 -1.372034,0.0023 -0.104913,2.28326 c 2.84396,-1.953859 5.687918,-3.528133 8.531878,-7.077913 z"
       id="path6547"
       sodipodi:nodetypes="ccccccccccccc" /><path
       style="fill:#808080;stroke:#666666;stroke-width:0.264583px;stroke-linecap:butt;stroke-linejoin:miter;stroke-opacity:1"
       d="m 10.707755,17.228113 -2.8726349,1.243509 -1.1965522,-0.461529 0.014171,2.03784 -1.7430639,-0.617379 -0.5795731,1.631796 1.3963313,1.405534 -1.4039645,0.412414 -1.3272769,0.341322 0.00738,1.632934 -0.9579105,-1.164818 -1.43614552,1.941461 2.99676602,0.05949 -0.030551,1.166925 5.104189,-1.980229 -1.2788646,-1.907437 1.9932836,-2.098666 0.3297616,-2.051763 z"
       id="path6553" /></g></svg>
