<?xml version="1.0" encoding="UTF-8" standalone="no"?>
<!-- Created with Inkscape (http://www.inkscape.org/) -->

<svg
   width="40mm"
   height="40mm"
   viewBox="0 0 40 40"
   version="1.1"
   id="svg5"
   xml:space="preserve"
   inkscape:version="1.2.1 (9c6d41e410, 2022-07-14, custom)"
   sodipodi:docname="stalion.svg"
   xmlns:inkscape="http://www.inkscape.org/namespaces/inkscape"
   xmlns:sodipodi="http://sodipodi.sourceforge.net/DTD/sodipodi-0.dtd"
   xmlns="http://www.w3.org/2000/svg"
   xmlns:svg="http://www.w3.org/2000/svg"><sodipodi:namedview
     id="namedview7"
     pagecolor="#ffffff"
     bordercolor="#ffffff"
     borderopacity="1"
     inkscape:showpageshadow="0"
     inkscape:pageopacity="0.5254902"
     inkscape:pagecheckerboard="0"
     inkscape:deskcolor="#ffffff"
     inkscape:document-units="mm"
     showgrid="false"
     inkscape:zoom="5.3247396"
     inkscape:cx="89.957451"
     inkscape:cy="61.880961"
     inkscape:window-width="1920"
     inkscape:window-height="1015"
     inkscape:window-x="0"
     inkscape:window-y="0"
     inkscape:window-maximized="1"
     inkscape:current-layer="layer2" /><defs
     id="defs2" /><g
     inkscape:groupmode="layer"
     id="layer1"
     inkscape:label="Layer 3"><g
       inkscape:groupmode="layer"
       id="layer2"
       inkscape:label="Layer 2"
       style="display:inline" /><path
       style="fill:#000000;fill-opacity:1;stroke:#000000;stroke-width:0.964999;stroke-linecap:round;stroke-opacity:1;paint-order:stroke fill markers;stop-color:#000000"
       id="path6362-4"
       sodipodi:type="arc"
       sodipodi:cx="25.034595"
       sodipodi:cy="16.439226"
       sodipodi:rx="0.0066456287"
       sodipodi:ry="0.008819391"
       sodipodi:start="0"
       sodipodi:end="6.2783333"
       sodipodi:open="true"
       sodipodi:arc-type="arc"
       d="m 25.041241,16.439226 a 0.00664563,0.00881939 0 0 1 -0.0066,0.0088 0.00664563,0.00881939 0 0 1 -0.0067,-0.0088 0.00664563,0.00881939 0 0 1 0.0066,-0.0088 0.00664563,0.00881939 0 0 1 0.0067,0.0088" /><path
       style="opacity:1;fill:#d38d5f;stroke:#000000;stroke-width:0.264583px;stroke-linecap:butt;stroke-linejoin:miter;stroke-opacity:1"
       d="m 26.207495,17.904547 -2.029745,-2.654514 0.322378,-1.770217 c -1.349603,1.561842 -1.048498,1.602803 -1.353316,-0.348511 l -0.75676,1.869041 -4.236323,3.837384 c -3.531101,2.053215 -3.306863,1.861824 -7.124593,1.263082 -4.3771449,2.525987 -4.7154917,2.335324 -2.0320976,6.580098 -0.4792638,0.804532 -0.9990003,1.400796 -0.9539074,4.90361 l 1.1240203,0.0087 C 8.9115551,29.241583 8.9669414,29.308706 10.604176,27.804762 l 3.455779,4.59399 0.584593,-0.400995 -3.305249,-5.58412 9.109362,0.324341 c 1.579388,1.187489 0.512094,1.715486 -0.110621,2.56391 l 0.393736,0.853427 1.404203,-1.814076 1.828677,3.314155 0.82128,-0.579927 C 22.281099,26.929836 21.750039,26.29584 21.644888,21.835109 l 1.347386,-3.274887 2.506994,1.112126 z"
       id="path6228"
       sodipodi:nodetypes="cccccccccccccccccccccccc" /><path
       style="opacity:1;fill:#000000;fill-opacity:1;stroke:#000000;stroke-width:0.964999;stroke-linecap:round;stroke-opacity:1;paint-order:stroke fill markers;stop-color:#000000"
       id="path6362"
       sodipodi:type="arc"
       sodipodi:cx="24.046354"
       sodipodi:cy="16.958866"
       sodipodi:rx="0.0066456287"
       sodipodi:ry="0.008819391"
       sodipodi:start="0"
       sodipodi:end="6.2783333"
       sodipodi:open="true"
       sodipodi:arc-type="arc"
       d="m 24.053,16.958866 a 0.00664563,0.00881939 0 0 1 -0.0066,0.0088 0.00664563,0.00881939 0 0 1 -0.0067,-0.0088 0.00664563,0.00881939 0 0 1 0.0066,-0.0088 0.00664563,0.00881939 0 0 1 0.0067,0.0088" /><path
       style="fill:#808080;stroke:#000000;stroke-width:0.264583px;stroke-linecap:butt;stroke-linejoin:miter;stroke-opacity:1"
       d="m 26.373137,18.026652 1.070581,1.032736 -0.620363,0.838018 -1.214781,-0.181346 z"
       id="path6493" /><path
       style="fill:#808080;stroke:#000000;stroke-width:0.264583px;stroke-linecap:butt;stroke-linejoin:miter;stroke-opacity:1"
       d="m 24.481254,31.38275 1.536407,1.484093 -1.137633,0.477803 -1.264885,-1.250844 z"
       id="path6497" /><path
       style="fill:#808080;stroke:#000000;stroke-width:0.264583px;stroke-linecap:butt;stroke-linejoin:miter;stroke-opacity:1"
       d="m 14.692559,31.829202 1.536407,1.484093 -1.137633,0.477803 -1.264885,-1.250844 z"
       id="path6497-5" /><path
       style="fill:#808080;stroke:#000000;stroke-width:0.264583px;stroke-linecap:butt;stroke-linejoin:miter;stroke-opacity:1"
       d="M 9.1112169,31.308383 9.5478064,33.399428 8.3383221,33.155188 7.9952048,31.409676 Z"
       id="path6497-0"
       inkscape:transform-center-x="-0.8473149"
       inkscape:transform-center-y="-0.66297063" /><path
       style="fill:#808080;stroke:#000000;stroke-width:0.264583px;stroke-linecap:butt;stroke-linejoin:miter;stroke-opacity:1"
       d="m 20.366478,29.311951 -1.536407,1.484093 1.137633,0.477803 1.264885,-1.250844 z"
       id="path6497-3"
       inkscape:transform-center-x="-1.5588415"
       inkscape:transform-center-y="-0.21314237" /><path
       style="fill:#b3b3b3;stroke:#999999;stroke-width:0.264583px;stroke-linecap:butt;stroke-linejoin:miter;stroke-opacity:1"
       d="m 22.33577,14.678659 -4.502905,0.13605 2.194839,0.879578 -1.462109,0.600804 0.298137,0.553226 -2.387787,-0.973766 1.052396,0.870754 0.486775,0.396642 -0.04312,0.443505 -0.782522,0.583763 -1.000844,0.0017 -0.07653,1.663036 c 2.074556,-1.423113 4.149111,-2.569752 6.223667,-5.15527 z"
       id="path6547"
       sodipodi:nodetypes="ccccccccccccc" /><path
       style="fill:#b3b3b3;stroke:#999999;stroke-width:0.264583px;stroke-linecap:butt;stroke-linejoin:miter;stroke-opacity:1"
       d="m 7.9779621,21.69759 -2.0954735,0.905722 -0.8728374,-0.336159 0.010337,1.484281 -1.271496,-0.449674 -0.4227756,1.188535 1.0185683,1.023735 -1.0241364,0.300386 -0.9681959,0.248605 0.00538,1.189364 -0.6987578,-0.848407 -1.04761121,1.414083 2.18602201,0.04333 -0.022286,0.849942 3.7233036,-1.44232 -0.9328811,-1.389301 1.4540214,-1.528585 0.240548,-1.494422 z"
       id="path6553" /></g></svg>
