<?xml version="1.0" encoding="UTF-8" standalone="no"?>
<!-- Created with Inkscape (http://www.inkscape.org/) -->

<svg
   width="20mm"
   height="20mm"
   viewBox="0 0 20 20"
   version="1.1"
   id="svg135"
   inkscape:version="1.2.1 (9c6d41e410, 2022-07-14, custom)"
   sodipodi:docname="thirst.svg"
   xmlns:inkscape="http://www.inkscape.org/namespaces/inkscape"
   xmlns:sodipodi="http://sodipodi.sourceforge.net/DTD/sodipodi-0.dtd"
   xmlns="http://www.w3.org/2000/svg"
   xmlns:svg="http://www.w3.org/2000/svg">
  <sodipodi:namedview
     id="namedview137"
     pagecolor="#ffffff"
     bordercolor="#eeeeee"
     borderopacity="1"
     inkscape:showpageshadow="0"
     inkscape:pageopacity="0"
     inkscape:pagecheckerboard="0"
     inkscape:deskcolor="#505050"
     inkscape:document-units="mm"
     showgrid="false"
     inkscape:zoom="10.305521"
     inkscape:cx="37.795276"
     inkscape:cy="37.795276"
     inkscape:window-width="1920"
     inkscape:window-height="1015"
     inkscape:window-x="0"
     inkscape:window-y="0"
     inkscape:window-maximized="1"
     inkscape:current-layer="layer1" />
  <defs
     id="defs132" />
  <g
     inkscape:label="Layer 1"
     inkscape:groupmode="layer"
     id="layer1">
    <path
       sodipodi:type="spiral"
       style="fill:#00ffff;fill-rule:evenodd;stroke:#0000ff;stroke-width:0.264583"
       id="path22161"
       sodipodi:cx="16.833479"
       sodipodi:cy="3.5467577"
       sodipodi:expansion="1"
       sodipodi:revolution="3.26917"
       sodipodi:radius="1.4047589"
       sodipodi:argument="-20.055519"
       sodipodi:t0="0"
       d="m 16.833479,3.5467577 c 0.02306,-0.060379 0.09277,0.0013 0.100354,0.038328 0.02056,0.1003547 -0.08981,0.1673271 -0.177011,0.1623804 -0.155989,-0.00885 -0.246915,-0.1723266 -0.224406,-0.3156941 0.03303,-0.2103976 0.25571,-0.3281543 0.454377,-0.2864323 0.264791,0.055609 0.410054,0.3393674 0.348458,0.5930598 -0.07751,0.319246 -0.423146,0.4922885 -0.731743,0.4104842 -0.373751,-0.099076 -0.574713,-0.5069924 -0.47251,-0.8704255 0.120444,-0.4282933 0.59088,-0.6572589 1.009108,-0.5345361 0.482862,0.1416884 0.739885,0.6747953 0.596562,1.1477912 -0.162851,0.537448 -0.75873,0.8225654 -1.286473,0.658588 -0.592049,-0.1839579 -0.905288,-0.8426793 -0.720614,-1.4251568 0.205022,-0.6466605 0.926639,-0.98804 1.563839,-0.78264 0.701281,0.2260562 1.070816,1.0106078 0.844666,1.7025225 -0.01749,0.053517 -0.03823,0.1059711 -0.06204,0.1569912"
       transform="matrix(-1,0,0,1,33.88114,0)" />
    <path
       sodipodi:type="spiral"
       style="fill:#00ffff;fill-rule:evenodd;stroke:#0000ff;stroke-width:0.264583"
       id="path22161-5"
       sodipodi:cx="16.833479"
       sodipodi:cy="3.5467577"
       sodipodi:expansion="1"
       sodipodi:revolution="3.26917"
       sodipodi:radius="1.4047589"
       sodipodi:argument="-20.055519"
       sodipodi:t0="0"
       d="m 16.833479,3.5467577 c 0.02306,-0.060379 0.09277,0.0013 0.100354,0.038328 0.02056,0.1003547 -0.08981,0.1673271 -0.177011,0.1623804 -0.155989,-0.00885 -0.246915,-0.1723266 -0.224406,-0.3156941 0.03303,-0.2103976 0.25571,-0.3281543 0.454377,-0.2864323 0.264791,0.055609 0.410054,0.3393674 0.348458,0.5930598 -0.07751,0.319246 -0.423146,0.4922885 -0.731743,0.4104842 -0.373751,-0.099076 -0.574713,-0.5069924 -0.47251,-0.8704255 0.120444,-0.4282933 0.59088,-0.6572589 1.009108,-0.5345361 0.482862,0.1416884 0.739885,0.6747953 0.596562,1.1477912 -0.162851,0.537448 -0.75873,0.8225654 -1.286473,0.658588 -0.592049,-0.1839579 -0.905288,-0.8426793 -0.720614,-1.4251568 0.205022,-0.6466605 0.926639,-0.98804 1.563839,-0.78264 0.701281,0.2260562 1.070816,1.0106078 0.844666,1.7025225 -0.01749,0.053517 -0.03823,0.1059711 -0.06204,0.1569912"
       transform="matrix(0.75081918,-1.1136799,1.1524467,0.7255626,-13.721512,33.56231)" />
    <g
       id="g23019"
       transform="matrix(1.2320315,0,0,1.2320315,-2.6270514,-5.6509207)">
      <path
         style="opacity:0.81;fill:#ac9393;fill-opacity:1;stroke:#800000;stroke-width:0.665001;stroke-linecap:round;stroke-dasharray:none;stroke-opacity:1;paint-order:stroke fill markers;stop-color:#000000"
         id="path23009"
         sodipodi:type="arc"
         sodipodi:cx="0.67070216"
         sodipodi:cy="17.604813"
         sodipodi:rx="2.6992714"
         sodipodi:ry="2.3737617"
         sodipodi:start="0"
         sodipodi:end="6.2783333"
         sodipodi:open="true"
         sodipodi:arc-type="arc"
         d="M 3.3699736,17.604813 A 2.6992714,2.3737617 0 0 1 0.67397638,19.978573 2.6992714,2.3737617 0 0 1 -2.0285613,17.610571 2.6992714,2.3737617 0 0 1 0.66087952,15.231067 2.6992714,2.3737617 0 0 1 3.3699418,17.593295"
         transform="rotate(-41.834244)" />
      <path
         style="fill:#800000;stroke:#550000;stroke-width:0.264583px;stroke-linecap:butt;stroke-linejoin:miter;stroke-opacity:1"
         d="M 9.8541863,11.544858 8.5669995,10.800624 9.5539355,9.5520723 10.370343,10.825604 Z"
         id="path23013" />
    </g>
    <path
       style="fill:#00ffff;stroke:#0000ff;stroke-width:0.177972px;stroke-linecap:butt;stroke-linejoin:miter;stroke-opacity:1"
       d="M 6.4915628,9.1526694 C 6.2520038,9.5577632 5.8358495,10.241993 5.902174,10.620178 c 0.586621,0.709762 0.5714788,0.65593 1.1459493,0.0049 C 7.0316302,10.266891 6.7133032,9.6480991 6.4915628,9.1526694 Z"
       id="path23021"
       sodipodi:nodetypes="cccc" />
    <path
       style="fill:#00ffff;stroke:#0000ff;stroke-width:0.177972px;stroke-linecap:butt;stroke-linejoin:miter;stroke-opacity:1"
       d="m 8.1324748,11.873264 c -0.239559,0.405093 -0.6557133,1.089323 -0.5893888,1.467508 0.586621,0.709762 0.5714788,0.65593 1.1459493,0.0049 -0.016493,-0.358187 -0.3348201,-0.976979 -0.5565605,-1.472408 z"
       id="path23021-6"
       sodipodi:nodetypes="cccc" />
    <path
       style="fill:#00ffff;stroke:#0000ff;stroke-width:0.177972px;stroke-linecap:butt;stroke-linejoin:miter;stroke-opacity:1"
       d="m 5.9758638,15.10818 c -0.239559,0.405094 -0.6557133,1.089324 -0.5893888,1.467509 0.586621,0.709762 0.5714788,0.65593 1.1459493,0.0049 C 6.5159312,16.222402 6.1976042,15.60361 5.9758638,15.10818 Z"
       id="path23021-2"
       sodipodi:nodetypes="cccc" />
  </g>
</svg>
