<?xml version="1.0" encoding="UTF-8" standalone="no"?>
<!-- Created with Inkscape (http://www.inkscape.org/) -->

<svg
   width="40mm"
   height="40mm"
   viewBox="0 0 40 40"
   version="1.1"
   id="svg135"
   inkscape:version="1.2.1 (9c6d41e410, 2022-07-14, custom)"
   sodipodi:docname="quick trader.svg"
   xmlns:inkscape="http://www.inkscape.org/namespaces/inkscape"
   xmlns:sodipodi="http://sodipodi.sourceforge.net/DTD/sodipodi-0.dtd"
   xmlns="http://www.w3.org/2000/svg"
   xmlns:svg="http://www.w3.org/2000/svg">
  <sodipodi:namedview
     id="namedview137"
     pagecolor="#ffffff"
     bordercolor="#eeeeee"
     borderopacity="1"
     inkscape:showpageshadow="0"
     inkscape:pageopacity="0"
     inkscape:pagecheckerboard="0"
     inkscape:deskcolor="#505050"
     inkscape:document-units="mm"
     showgrid="false"
     inkscape:zoom="5.3247396"
     inkscape:cx="75.49665"
     inkscape:cy="75.590551"
     inkscape:window-width="1920"
     inkscape:window-height="1015"
     inkscape:window-x="0"
     inkscape:window-y="0"
     inkscape:window-maximized="1"
     inkscape:current-layer="layer1" />
  <defs
     id="defs132" />
  <g
     inkscape:label="Layer 1"
     inkscape:groupmode="layer"
     id="layer1">
    <path
       style="fill:#ffff00;stroke:#000000;stroke-width:0.05;stroke-linecap:butt;stroke-linejoin:miter;stroke-dasharray:none;stroke-opacity:1"
       d="m 15.990853,27.283539 7.583609,-0.288536 1.067191,10.528377 -1.599141,0.270134 -0.499658,-9.277227 -5.941204,-0.230015 -1.264555,9.497895 -1.745389,0.110648 z"
       id="path1793"
       sodipodi:nodetypes="ccccccccc" />
    <path
       style="fill:#008080;stroke:#000000;stroke-width:0.165;stroke-linecap:butt;stroke-linejoin:miter;stroke-dasharray:none;stroke-opacity:1"
       d="m 14.546647,25.823171 -0.634662,6.153445 2.900101,0.36499 0.550975,-3.53226 4.582318,0.454117 0.371599,3.091196 2.427688,-0.08016 0.886783,-6.514754 z"
       id="path1789"
       sodipodi:nodetypes="ccccccccc" />
    <path
       style="fill:#ffff00;stroke:#000000;stroke-width:0.199999;stroke-linecap:butt;stroke-linejoin:miter;stroke-dasharray:none;stroke-opacity:1"
       d="m 17.843114,12.217953 c 0.04173,-0.0074 0.699648,-1.607292 0.105709,-2.204681 -0.710478,-0.7146059 -2.459118,-1.8136846 -2.488037,-2.8215093 -0.0449,-1.5646823 2.245155,-3.9805129 3.80487,-3.8700616 1.086304,0.076927 4.144483,3.2953245 4.140483,4.3855307 -0.0037,1.0131967 -2.47271,1.5887858 -2.801111,2.5471692 -0.263359,0.76857 0.169487,2.135784 0.169487,2.135784 l -0.650997,1.033909 -1.415219,1.231326 -1.775806,-0.630207 z"
       id="path1620"
       sodipodi:nodetypes="csssssccccc" />
    <path
       style="fill:#ffff00;stroke:#000000;stroke-width:0.065;stroke-linecap:butt;stroke-linejoin:miter;stroke-dasharray:none;stroke-opacity:1"
       d="m 12.786611,11.597571 -3.5313372,4.912358 0.060742,5.065568 c -1.0646129,0.175171 -1.6568645,0.654134 -1.4012281,1.678391 1.0011443,1.384046 2.6333513,1.680734 3.8565533,-0.06491 -0.03121,-0.881263 -0.327908,-1.458515 -1.111879,-1.477785 l -0.415778,-5.16877 3.516861,-4.314089 z"
       id="path867"
       sodipodi:nodetypes="ccccccccc" />
    <path
       style="fill:#ffff00;stroke:#000000;stroke-width:0.065;stroke-linecap:butt;stroke-linejoin:miter;stroke-dasharray:none;stroke-opacity:1"
       d="m 27.860495,12.346973 3.531338,4.912358 -0.06075,5.065568 c 1.064614,0.175171 1.656865,0.654133 1.401229,1.678391 -1.001146,1.384046 -2.633351,1.680734 -3.856554,-0.06491 0.0312,-0.881263 0.327907,-1.458515 1.111879,-1.477785 l 0.415778,-5.16877 -3.51686,-4.314089 z"
       id="path867-3"
       sodipodi:nodetypes="ccccccccc" />
    <path
       style="fill:#501616;stroke:#000000;stroke-width:0.05;stroke-linecap:butt;stroke-linejoin:miter;stroke-dasharray:none;stroke-opacity:1"
       d="m 27.947977,15.431628 1.652077,-1.38903 -1.817302,-2.553658 -3.545265,-0.09095 c -1.985725,0.586884 -5.30593,1.966679 -7.888469,0.0789 l -4.588688,0.03792 -1.398534,2.175344 1.62867,1.316703 2.196427,-2.29439 0.115057,13.687776 11.353555,-0.225729 0.06342,-13.772835 z"
       id="path1568"
       sodipodi:nodetypes="ccccccccccccc" />
    <path
       style="fill:#c87137;stroke:#000000;stroke-width:0.065;stroke-linecap:butt;stroke-linejoin:miter;stroke-dasharray:none;stroke-opacity:1"
       d="m 14.59359,22.223963 2.108768,0.06081 0.177597,1.119618 -2.259346,0.03547 z"
       id="path1570" />
    <path
       style="fill:#c87137;stroke:#000000;stroke-width:0.065;stroke-linecap:butt;stroke-linejoin:miter;stroke-dasharray:none;stroke-opacity:1"
       d="m 17.040438,22.3862 2.108768,0.06082 0.177597,1.119618 -2.259346,0.03547 z"
       id="path1570-6" />
    <path
       style="fill:#c87137;stroke:#000000;stroke-width:0.065;stroke-linecap:butt;stroke-linejoin:miter;stroke-dasharray:none;stroke-opacity:1"
       d="m 19.808153,22.12965 2.108768,0.06081 0.177595,1.119618 -2.259346,0.03547 z"
       id="path1570-7" />
    <path
       style="fill:#c87137;stroke:#000000;stroke-width:0.065;stroke-linecap:butt;stroke-linejoin:miter;stroke-dasharray:none;stroke-opacity:1"
       d="m 22.72963,21.821788 2.108768,0.06081 0.177595,1.119618 -2.259346,0.03547 z"
       id="path1570-5" />
    <path
       style="fill:#a01414;fill-opacity:1;stroke:#000000;stroke-width:0;stroke-linecap:butt;stroke-linejoin:miter;stroke-dasharray:none;stroke-opacity:1"
       d="m 17.056501,19.530489 c 1.253329,1.533889 4.150022,2.477318 5.472004,0.444726 l 2.841631,-4.36911 1.012765,-2.001082 1.720519,-2.752993 c -3.358692,-0.376238 -6.228246,1.197866 -8.555425,1.166811 -2.294765,-0.03062 -4.243504,-1.239052 -7.616504,-0.988428 l 2.416572,5.185347 z"
       id="path1779"
       sodipodi:nodetypes="sscccsccs" />
    <path
       style="fill:#800000;stroke:#000000;stroke-width:0.05;stroke-linecap:butt;stroke-linejoin:miter;stroke-dasharray:none;stroke-opacity:1"
       d="m 21.946076,37.409787 0.200387,2.197894 6.186153,0.07233 C 26.334609,37.759685 26.682985,35.912507 25.054912,38.567348 L 24.788751,37.27329 c -0.953988,-0.01739 -1.897006,0.02748 -2.842675,0.1365 z"
       id="path1795"
       sodipodi:nodetypes="cccccc" />
    <path
       style="fill:#800000;stroke:#000000;stroke-width:0.05;stroke-linecap:butt;stroke-linejoin:miter;stroke-dasharray:none;stroke-opacity:1"
       d="m 15.929722,37.2803 -0.200386,2.197894 -6.1861542,0.07233 C 11.541189,37.630195 11.192813,35.783018 12.820886,38.437858 L 13.087047,37.1438 c 0.953988,-0.01739 1.897006,0.02748 2.842675,0.1365 z"
       id="path1795-3"
       sodipodi:nodetypes="cccccc" />
    <g
       id="g5443">
      <circle
         style="fill:#ffff00;fill-opacity:1;stroke:#000000;stroke-width:0.292914;stroke-linecap:round;stroke-linejoin:round;stroke-dasharray:none;paint-order:markers stroke fill;stop-color:#000000"
         id="path2697"
         cx="31.509792"
         cy="23.830301"
         r="2.3535433" />
      <text
         xml:space="preserve"
         style="font-weight:bold;font-size:5.79575px;line-height:1.25;font-family:sans-serif;-inkscape-font-specification:'sans-serif Bold';fill:#a2a233;fill-opacity:1;stroke-width:0.3875"
         x="27.653942"
         y="27.850986"
         id="text2753"
         transform="scale(1.0801835,0.92576864)"><tspan
           sodipodi:role="line"
           id="tspan2751"
           style="fill:#a2a233;fill-opacity:1;stroke-width:0.3875"
           x="27.653942"
           y="27.850986">$</tspan></text>
    </g>
    <g
       id="g5369"
       transform="matrix(0.28187008,0,0,0.28187008,8.2392302,17.489693)">
      <path
         style="fill:#00ff00;stroke:#000000;stroke-width:0.264583px;stroke-linecap:butt;stroke-linejoin:miter;stroke-opacity:1"
         d="M 0.8532547,18.152091 C 1.0952009,2.0214946 18.159216,13.983774 13.126097,24.476185 8.0929778,34.968596 -10.054517,23.686133 0.8532547,18.152091 Z"
         id="path2899"
         sodipodi:nodetypes="czc" />
      <path
         style="fill:none;stroke:#aa4400;stroke-width:0.965;stroke-linecap:round;stroke-linejoin:miter;stroke-dasharray:none;stroke-opacity:1"
         d="M 2.2745362,18.545237 C 0.4696067,17.345318 -1.3342471,16.18945 -3.070064,17.819856"
         id="path2901"
         sodipodi:nodetypes="cc" />
    </g>
    <path
       style="fill:#501616;fill-opacity:1;stroke:#000000;stroke-width:0.2;stroke-linecap:round;stroke-linejoin:round;stroke-dasharray:none;paint-order:markers stroke fill;stop-color:#000000"
       d="m 9.1562088,7.2883603 4.6032292,-1.987178 0.864995,-3.1638426 9.919521,-0.2103249 -0.0127,3.1585935 7.47399,2.2652246 -8.244838,-0.22065 -4.329656,-2.2772717 -5.035096,2.5408512 z"
       id="path5425"
       sodipodi:nodetypes="cccccccccc" />
    <text
       xml:space="preserve"
       style="font-weight:bold;font-size:2.81901px;line-height:1.25;font-family:sans-serif;-inkscape-font-specification:'sans-serif Bold';fill:#a2a233;fill-opacity:1;stroke-width:0.188477"
       x="22.526966"
       y="7.9631948"
       id="text2753-7"
       transform="scale(1.0801835,0.92576864)"><tspan
         sodipodi:role="line"
         id="tspan2751-5"
         style="fill:#a2a233;fill-opacity:1;stroke-width:0.188477"
         x="22.526966"
         y="7.9631948">$</tspan></text>
    <text
       xml:space="preserve"
       style="font-weight:bold;font-size:2.81901px;line-height:1.25;font-family:sans-serif;-inkscape-font-specification:'sans-serif Bold';fill:#a2a233;fill-opacity:1;stroke-width:0.188477"
       x="12.252388"
       y="7.7509508"
       id="text2753-7-3"
       transform="scale(1.0801835,0.92576864)"><tspan
         sodipodi:role="line"
         id="tspan2751-5-5"
         style="fill:#a2a233;fill-opacity:1;stroke-width:0.188477"
         x="12.252388"
         y="7.7509508">$</tspan></text>
    <path
       style="fill:#36dcdc;fill-opacity:1;stroke:#000000;stroke-width:0.0995058;stroke-linecap:round;stroke-linejoin:round;stroke-dasharray:none;paint-order:markers stroke fill;stop-color:#000000"
       d="m 30.376617,16.618768 c -0.508192,0.758286 -1.374017,1.581682 -0.09213,2.014069 1.557762,-0.0112 0.334095,-1.224833 0.09213,-2.014069 z"
       id="path6354"
       sodipodi:nodetypes="ccc" />
    <path
       style="fill:#36dcdc;fill-opacity:1;stroke:#000000;stroke-width:0.0995058;stroke-linecap:round;stroke-linejoin:round;stroke-dasharray:none;paint-order:markers stroke fill;stop-color:#000000"
       d="m 8.981555,18.322155 c -0.508192,0.758286 -1.374017,1.581682 -0.09213,2.014069 1.557762,-0.0112 0.334095,-1.224833 0.09213,-2.014069 z"
       id="path6354-6"
       sodipodi:nodetypes="ccc" />
    <path
       style="fill:#36dcdc;fill-opacity:1;stroke:#000000;stroke-width:0.0995058;stroke-linecap:round;stroke-linejoin:round;stroke-dasharray:none;paint-order:markers stroke fill;stop-color:#000000"
       d="m 20.708263,8.7320927 c -0.508192,0.758286 -1.374017,1.5816823 -0.09213,2.0140693 1.557762,-0.0112 0.334095,-1.2248333 0.09213,-2.0140693 z"
       id="path6354-2"
       sodipodi:nodetypes="ccc" />
  </g>
</svg>
