<?xml version="1.0" encoding="UTF-8" standalone="no"?>
<!-- Created with Inkscape (http://www.inkscape.org/) -->

<svg
   width="40mm"
   height="40mm"
   viewBox="0 0 40 40"
   version="1.1"
   id="svg5"
   xml:space="preserve"
   inkscape:version="1.3 (0e150ed6c4, 2023-07-21)"
   sodipodi:docname="two man saw.svg"
   xmlns:inkscape="http://www.inkscape.org/namespaces/inkscape"
   xmlns:sodipodi="http://sodipodi.sourceforge.net/DTD/sodipodi-0.dtd"
   xmlns="http://www.w3.org/2000/svg"
   xmlns:svg="http://www.w3.org/2000/svg"><sodipodi:namedview
     id="namedview7"
     pagecolor="#a6a93e"
     bordercolor="#eeeeee"
     borderopacity="1"
     inkscape:showpageshadow="0"
     inkscape:pageopacity="0.89019608"
     inkscape:pagecheckerboard="0"
     inkscape:deskcolor="#505050"
     inkscape:document-units="mm"
     showgrid="false"
     inkscape:zoom="5.4023944"
     inkscape:cx="66.637119"
     inkscape:cy="64.045676"
     inkscape:window-width="1920"
     inkscape:window-height="1015"
     inkscape:window-x="0"
     inkscape:window-y="0"
     inkscape:window-maximized="1"
     inkscape:current-layer="layer2" /><defs
     id="defs2" /><g
     inkscape:groupmode="layer"
     id="layer1"
     inkscape:label="Layer 3"
     style="opacity:0.53" /><g
     inkscape:groupmode="layer"
     id="layer2"
     inkscape:label="Layer 2"
     style="display:inline"><path
       style="fill:#b3b3b3;stroke:#000000;stroke-width:0.364096px;stroke-linecap:butt;stroke-linejoin:miter;stroke-opacity:1"
       d="M 6.0214019,12.855881 35.660366,12.334996 36.236531,24.185229 33.99439,21.61969 32.058172,24.60288 29.935668,21.285054 27.576519,24.341935 25.059598,21.192366 22.889282,24.226617 20.842619,20.86733 19.38265,23.663619 18.156179,21.167176 15.901014,23.723767 13.380803,19.338002 11.616466,23.84075 8.7488127,19.426947 6.2243613,23.828626 Z"
       id="path2959"
       sodipodi:nodetypes="cccccccccccccccccc" /><path
       id="path9099"
       style="fill:#550000;stroke:#000000;stroke-width:0.865;stroke-linecap:round;stroke-linejoin:round;paint-order:stroke fill markers;stop-color:#000000"
       d="M 9.5822674,2.5695223 3.6720338,2.8051669 3.6834026,24.842582 6.0589682,24.677217 6.0992758,6.8343783 9.947103,6.8100904 Z M 8.0764161,3.9032911 8.1260255,5.5181796 5.438851,5.6370354 5.2424806,4.0531527 Z" /><path
       id="path9099-3"
       style="display:inline;fill:#550000;stroke:#000000;stroke-width:0.865;stroke-linecap:round;stroke-linejoin:round;paint-order:stroke fill markers;stop-color:#000000"
       d="m 31.748902,3.2659505 -0.365352,4.2405681 3.848344,0.024288 0.04031,17.8428385 2.375566,0.165365 0.01137,-22.0379317 z m 1.817977,1.5781983 2.833936,0.1493449 -0.196371,1.5843994 -2.687174,-0.1188558 z" /></g></svg>
