<?xml version="1.0" encoding="UTF-8" standalone="no"?>
<!-- Created with Inkscape (http://www.inkscape.org/) -->

<svg
   width="38.774696mm"
   height="38.7747mm"
   viewBox="0 0 38.774696 38.7747"
   version="1.1"
   id="svg1240"
   inkscape:version="1.2.2 (b0a8486541, 2022-12-01)"
   sodipodi:docname="water.svg"
   xmlns:inkscape="http://www.inkscape.org/namespaces/inkscape"
   xmlns:sodipodi="http://sodipodi.sourceforge.net/DTD/sodipodi-0.dtd"
   xmlns="http://www.w3.org/2000/svg"
   xmlns:svg="http://www.w3.org/2000/svg">
  <sodipodi:namedview
     id="namedview1242"
     pagecolor="#505050"
     bordercolor="#eeeeee"
     borderopacity="1"
     inkscape:showpageshadow="0"
     inkscape:pageopacity="0"
     inkscape:pagecheckerboard="0"
     inkscape:deskcolor="#505050"
     inkscape:document-units="mm"
     showgrid="false"
     inkscape:zoom="2.8572649"
     inkscape:cx="151.71852"
     inkscape:cy="130.01945"
     inkscape:window-width="1920"
     inkscape:window-height="1015"
     inkscape:window-x="0"
     inkscape:window-y="0"
     inkscape:window-maximized="1"
     inkscape:current-layer="g2115" />
  <defs
     id="defs1237" />
  <g
     inkscape:label="Layer 1"
     inkscape:groupmode="layer"
     id="layer1"
     transform="translate(-15.502293,-20.928754)">
    <g
       id="g2115"
       transform="matrix(0.96936752,0,0,0.96936752,8.1529418,-0.28940312)">
      <rect
         style="fill:#0c00c3;stroke:#000000;stroke-width:0.953426;fill-opacity:1"
         id="rect61-6"
         width="39.04657"
         height="39.046574"
         x="8.0583076"
         y="22.365374" />
      <path
         style="fill:#5faeef;fill-opacity:1;stroke:none;stroke-width:0.165074;stroke-linecap:round;stroke-linejoin:round;stroke-dasharray:none;stroke-opacity:1;paint-order:stroke markers fill;stop-color:#000000"
         id="path19588"
         d="m 18.957216,53.924533 c 0.47646,-0.284101 1.594232,-0.07278 1.867636,-0.242635 -1.169674,-0.138475 0.0881,-1.005558 0.231252,-1.056544 1.210859,-0.653729 2.631557,-0.93521 3.942674,-0.490382 0.472417,0.138324 -1.171798,0.805869 -0.517881,1.07124 0.154554,0.06274 1.988725,-0.489526 2.411087,-0.307476 2.169856,1.108223 2.94073,1.403237 5.045339,1.001337 0.787172,-0.698337 1.386729,-0.912148 1.736067,-0.79829 0.09826,-0.04823 0.0041,0.431176 1.172784,0.891713 -0.998736,-0.619851 -0.993707,-1.061737 -0.723139,-1.147816 0.522952,-0.166379 2.959631,1.068757 2.963526,1.033227 0.213082,0.107017 0.532315,-0.196813 0.38229,-0.198471 -0.856816,-0.0095 -2.324272,-1.016354 -3.256388,-1.073217 -1.054111,-0.0643 -1.632939,0.769862 -2.428899,1.00459 -2.048497,0.162866 -2.27428,-0.154309 -4.143709,-1.084799 -1.180797,-0.5973 -2.454469,-1.000598 -3.759089,-1.04173 -1.654353,0.08575 -3.07314,1.151164 -4.464072,2.03112 -0.278958,0.174856 -1.226558,0.20855 -1.248433,-0.186069 -0.369762,0.548823 0.338204,0.500269 0.223197,0.609624 -0.0036,0.22039 0.503434,0.741476 1.892027,0.395097 0.18757,-0.158054 -1.346767,-0.03039 -1.326269,-0.410486 z"
         sodipodi:nodetypes="cccccccccscssccccccccc" />
      <path
         id="path10148"
         style="fill:#e4f1fb;fill-opacity:1;stroke-width:0.0222224;paint-order:stroke markers fill"
         d="m 38.04345,54.60599 c -0.45857,-0.145276 -1.329643,0.322671 -0.400025,0.401048 0.967278,0.775081 -0.608738,1.700913 -1.329178,1.588525 -1.056014,0.202443 -1.980266,-0.605773 -3.137999,-0.4628 -0.866101,-0.334408 -1.78018,-0.491242 -2.326278,0.531858 -0.829162,0.624516 -1.566405,-1.113882 -1.363574,-1.8696 -0.776823,-0.641746 -1.124659,1.058168 -2.123936,0.614033 -2.523754,0.911004 -5.349029,0.798343 -7.877771,0.127774 -1.705088,-0.306467 -3.69871,-0.0034 -4.887706,1.502535 0.78879,0.548156 1.039901,-1.252585 1.880978,-1.02574 0.75017,-0.330862 1.598553,-0.572276 2.399142,-0.463332 2.40191,0.708768 4.944643,0.985837 7.418575,0.620285 0.759477,-0.125191 1.509325,-0.331626 2.225576,-0.638119 0.288641,1.323016 1.622682,1.926498 2.738414,1.523875 0.749542,-0.414031 2.010193,-1.094307 2.204414,-0.507962 1.768426,0.384897 3.738172,0.595172 5.385332,-0.373494 0.399156,-0.359517 0.02664,-1.098459 0.688306,-0.570055 0.911101,0.204187 1.013422,1.594997 1.904686,1.669703 1.553052,0.130178 -0.948577,-2.24242 -1.927525,-2.189916 -0.383369,0.301361 -0.962102,-0.393327 -1.471431,-0.478618 z m -0.827611,0.274964 c -0.352751,-0.06028 -0.122424,0.300611 0,0 z"
         sodipodi:nodetypes="cccccccccccccccccscccc" />
      <path
         id="path10153"
         style="fill:#1783ff;fill-opacity:1;stroke-width:0.0217675;paint-order:stroke markers fill"
         d="m 18.487896,46.63826 c -1.921516,-0.07024 -3.466826,0.667543 -4.3788,2.311135 -0.681084,1.027101 -2.064864,1.801521 -3.315017,1.872992 -0.545762,0.334161 1.652047,0.792316 1.776467,-0.110113 2.546175,-0.897302 1.20712,-2.463699 3.505749,-2.92921 -0.32298,-0.41924 2.414063,-1.349646 3.163179,-0.884622 0.796526,0.468953 0.683448,0.612744 0.174551,0.484465 -0.610116,0.253814 1.211274,0.83254 -0.04387,0.644462 -1.337157,-0.08239 -1.584894,1.122217 -0.273364,1.775595 1.123518,0.816732 1.616649,-0.0428 2.540418,-0.272369 0.982394,0.27958 1.867447,1.008155 2.947388,0.841454 1.127833,4.47e-4 2.253792,-0.563961 2.859618,-1.581145 0.942011,-0.02243 1.768732,0.762274 2.68662,0.999465 1.510172,0.559274 3.251247,0.695783 4.751228,0.05275 0.775089,-0.843009 1.904426,-1.108255 2.771199,-0.248605 0.420072,0.277927 1.663269,1.430793 1.802566,0.687843 -0.938194,-0.577251 -1.8595,-1.339465 -2.974703,-1.473302 -1.201552,-0.256088 -1.883323,1.020011 -2.991041,1.229518 -1.114926,0.309536 -2.294011,-0.172333 -3.31637,-0.625312 -1.152715,-0.301074 -2.110348,-1.170962 -3.206646,-1.452435 -0.681647,0.0813 0.266238,1.590828 -0.923137,1.369471 -0.865275,0.746212 -2.013001,1.178578 -2.930981,0.418203 -0.830549,-0.670826 -2.080812,-1.34958 -2.601699,-0.169239 -0.469188,0.646759 -2.069103,0.07724 -1.876613,-0.79233 0.306362,-0.910622 0.878781,-0.414306 1.445511,-0.674038 -0.723119,-0.473853 -0.233845,-0.688746 0.0075,-0.339693 0.357968,0.594941 0.456093,0.08635 0.220642,-0.224896 -0.217501,-0.287521 -0.764466,-0.871443 -1.820394,-0.910043 z m 1.734451,1.790413 c -0.121953,0.405154 0.613515,0.467731 0,0 z m 0.507349,0.06309 c 0.480066,0.179477 0.09004,0.606618 0,0 z"
         sodipodi:nodetypes="scccccccccccccccccccccccccsscccc" />
      <path
         style="fill:#5faeef;fill-opacity:1;stroke:none;stroke-width:0.165074;stroke-linecap:round;stroke-linejoin:round;stroke-dasharray:none;stroke-opacity:1;paint-order:stroke markers fill;stop-color:#000000"
         id="path19588-7"
         d="m 20.573479,43.311357 c 0.47646,-0.284101 1.594232,-0.07278 1.867636,-0.242635 -1.169674,-0.138475 0.0881,-1.005558 0.231252,-1.056544 1.210859,-0.653729 2.631557,-0.93521 3.942674,-0.490382 0.472417,0.138324 -1.171798,0.805869 -0.517881,1.07124 0.154554,0.06274 1.988725,-0.489526 2.411087,-0.307476 2.169856,1.108223 2.94073,1.403237 5.045339,1.001337 0.787172,-0.698337 1.386729,-0.912148 1.736067,-0.79829 0.09826,-0.04823 0.0041,0.431176 1.172784,0.891713 -0.998736,-0.619851 -0.993707,-1.061737 -0.723139,-1.147816 0.522952,-0.166379 2.959631,1.068757 2.963526,1.033227 0.213082,0.107017 0.532315,-0.196813 0.38229,-0.198471 -0.856816,-0.0095 -2.324272,-1.016354 -3.256388,-1.073217 -1.054111,-0.0643 -1.632939,0.769862 -2.428899,1.00459 -2.048497,0.162866 -2.27428,-0.154309 -4.143709,-1.084799 -1.180797,-0.5973 -2.454469,-1.000598 -3.759089,-1.04173 -1.654353,0.08575 -3.07314,1.151164 -4.464072,2.03112 -0.278958,0.174856 -1.226558,0.20855 -1.248433,-0.186069 -0.369762,0.548823 0.338204,0.500269 0.223197,0.609624 -0.0036,0.22039 0.503434,0.741476 1.892027,0.395097 0.18757,-0.158054 -1.346767,-0.03039 -1.326269,-0.410486 z"
         sodipodi:nodetypes="cccccccccscssccccccccc" />
      <path
         id="path10148-6"
         style="fill:#e4f1fb;fill-opacity:1;stroke-width:0.0222224;paint-order:stroke markers fill"
         d="m 38.339806,44.757897 c -0.45857,-0.145276 -1.329643,0.322671 -0.400025,0.401048 0.967278,0.775081 -0.608738,1.700913 -1.329178,1.588525 -1.056014,0.202443 -1.980266,-0.605773 -3.137999,-0.4628 -0.866101,-0.334408 -1.78018,-0.491242 -2.326278,0.531858 -0.829162,0.624516 -1.566405,-1.113882 -1.363574,-1.8696 -0.776823,-0.641746 -1.124659,1.058168 -2.123936,0.614033 -2.523754,0.911004 -5.349029,0.798343 -7.877771,0.127774 -1.705088,-0.306467 -3.69871,-0.0034 -4.887706,1.502535 0.78879,0.548156 1.039901,-1.252585 1.880978,-1.02574 0.75017,-0.330862 1.598553,-0.572276 2.399142,-0.463332 2.40191,0.708768 4.944643,0.985837 7.418575,0.620285 0.759477,-0.125191 1.509325,-0.331626 2.225576,-0.638119 0.288641,1.323016 1.622682,1.926498 2.738414,1.523875 0.749542,-0.414031 2.010193,-1.094307 2.204414,-0.507962 1.768426,0.384897 3.738172,0.595172 5.385332,-0.373494 0.399156,-0.359517 0.02664,-1.098459 0.688306,-0.570055 0.911101,0.204187 1.013422,1.594997 1.904686,1.669703 1.553052,0.130178 -0.948577,-2.24242 -1.927525,-2.189916 -0.383369,0.301361 -0.962102,-0.393327 -1.471431,-0.478618 z m -0.827611,0.274964 c -0.352751,-0.06028 -0.122424,0.300611 0,0 z"
         sodipodi:nodetypes="cccccccccccccccccscccc" />
      <path
         id="path10153-4"
         style="fill:#1783ff;fill-opacity:1;stroke-width:0.0222224;paint-order:stroke markers fill"
         d="m 22.524644,36.451009 c -1.921516,-0.07321 -3.466826,0.695737 -4.3788,2.408747 -0.681084,1.07048 -2.064864,1.877608 -3.315017,1.952098 -0.545762,0.348274 1.652047,0.82578 1.776467,-0.114764 2.546175,-0.9352 1.20712,-2.567754 3.505749,-3.052926 -0.32298,-0.436946 2.414063,-1.406648 3.163179,-0.921984 0.796526,0.488759 0.683448,0.638623 0.174551,0.504927 -0.610116,0.264533 1.211274,0.867702 -0.04387,0.671681 -1.337157,-0.08587 -1.584894,1.169614 -0.273364,1.850587 1.123518,0.851227 1.616649,-0.04461 2.540418,-0.283872 0.982394,0.291388 1.867447,1.050734 2.947388,0.876993 1.127833,4.66e-4 2.253792,-0.58778 2.859618,-1.647925 0.942011,-0.02338 1.768732,0.794469 2.68662,1.041677 1.510172,0.582895 3.251247,0.72517 4.751228,0.05498 0.775089,-0.878613 1.904426,-1.155062 2.771199,-0.259105 0.420072,0.289666 1.663269,1.491223 1.802566,0.716895 -0.938194,-0.601632 -1.8595,-1.396038 -2.974703,-1.535528 -1.201552,-0.266904 -1.883323,1.063092 -2.991041,1.281447 -1.114926,0.32261 -2.294011,-0.179611 -3.31637,-0.651722 -1.152715,-0.31379 -2.110348,-1.220418 -3.206646,-1.513779 -0.681647,0.08473 0.266238,1.658017 -0.923137,1.427311 -0.865275,0.777729 -2.013001,1.228356 -2.930981,0.435866 -0.830549,-0.699158 -2.080812,-1.40658 -2.601699,-0.176387 -0.469188,0.674075 -2.069103,0.0805 -1.876613,-0.825794 0.306362,-0.949082 0.878781,-0.431804 1.445511,-0.702506 -0.723119,-0.493867 -0.233845,-0.717836 0.0075,-0.35404 0.357968,0.620068 0.456093,0.09 0.220642,-0.234395 -0.217501,-0.299664 -0.764466,-0.908248 -1.820394,-0.948479 z m 1.734451,1.866032 c -0.121953,0.422266 0.613515,0.487486 0,0 z m 0.507349,0.06575 c 0.480066,0.187057 0.09004,0.632239 0,0 z"
         sodipodi:nodetypes="scccccccccccccccccccccccccsscccc" />
      <path
         style="fill:#5faeef;fill-opacity:1;stroke:none;stroke-width:0.165074;stroke-linecap:round;stroke-linejoin:round;stroke-dasharray:none;stroke-opacity:1;paint-order:stroke markers fill;stop-color:#000000"
         id="path19588-3"
         d="m 20.699284,31.955931 c 0.47646,-0.284101 1.594232,-0.07278 1.867636,-0.242635 -1.169674,-0.138475 0.0881,-1.005558 0.231252,-1.056544 1.210859,-0.653729 2.631557,-0.93521 3.942674,-0.490382 0.472417,0.138324 -1.171798,0.805869 -0.517881,1.07124 0.154554,0.06274 1.988725,-0.489526 2.411087,-0.307476 2.169856,1.108223 2.94073,1.403237 5.045339,1.001337 0.787172,-0.698337 1.386729,-0.912148 1.736067,-0.79829 0.09826,-0.04823 0.0041,0.431176 1.172784,0.891713 -0.998736,-0.619851 -0.993707,-1.061737 -0.723139,-1.147816 0.522952,-0.166379 2.959631,1.068757 2.963526,1.033227 0.213082,0.107017 0.532315,-0.196813 0.38229,-0.198471 -0.856816,-0.0095 -2.324272,-1.016354 -3.256388,-1.073217 -1.054111,-0.0643 -1.632939,0.769862 -2.428899,1.00459 -2.048497,0.162866 -2.27428,-0.154309 -4.143709,-1.084799 -1.180797,-0.5973 -2.454469,-1.000598 -3.759089,-1.04173 -1.654353,0.08575 -3.07314,1.151164 -4.464072,2.03112 -0.278958,0.174856 -1.226558,0.20855 -1.248433,-0.186069 -0.369762,0.548823 0.338204,0.500269 0.223197,0.609624 -0.0036,0.22039 0.503434,0.741476 1.892027,0.395097 0.18757,-0.158054 -1.346767,-0.03039 -1.326269,-0.410486 z"
         sodipodi:nodetypes="cccccccccscssccccccccc" />
      <path
         id="path10148-0"
         style="fill:#e4f1fb;fill-opacity:1;stroke-width:0.0222224;paint-order:stroke markers fill"
         d="m 37.241337,33.717483 c -0.45857,-0.145276 -1.329643,0.322671 -0.400025,0.401048 0.967278,0.775081 -0.608738,1.700913 -1.329178,1.588525 -1.056014,0.202443 -1.980266,-0.605773 -3.137999,-0.4628 -0.866101,-0.334408 -1.78018,-0.491242 -2.326278,0.531858 -0.829162,0.624516 -1.566405,-1.113882 -1.363574,-1.8696 -0.776823,-0.641746 -1.124659,1.058168 -2.123936,0.614033 -2.523754,0.911004 -5.349029,0.798343 -7.877771,0.127774 -1.705088,-0.306467 -3.69871,-0.0034 -4.887706,1.502535 0.78879,0.548156 1.039901,-1.252585 1.880978,-1.02574 0.75017,-0.330862 1.598553,-0.572276 2.399142,-0.463332 2.40191,0.708768 4.944643,0.985837 7.418575,0.620285 0.759477,-0.125191 1.509325,-0.331626 2.225576,-0.638119 0.288641,1.323016 1.622682,1.926498 2.738414,1.523875 0.749542,-0.414031 2.010193,-1.094307 2.204414,-0.507962 1.768426,0.384897 3.738172,0.595172 5.385332,-0.373494 0.399156,-0.359517 0.02664,-1.098459 0.688306,-0.570055 0.911101,0.204187 1.013422,1.594997 1.904686,1.669703 1.553052,0.130178 -0.948577,-2.24242 -1.927525,-2.189916 -0.383369,0.301361 -0.962102,-0.393327 -1.471431,-0.478618 z m -0.827611,0.274964 c -0.352751,-0.06028 -0.122424,0.300611 0,0 z"
         sodipodi:nodetypes="cccccccccccccccccscccc" />
      <path
         id="path10153-3"
         style="fill:#1783ff;fill-opacity:1;stroke-width:0.0222224;paint-order:stroke markers fill"
         d="m 18.601933,25.685178 c -1.921516,-0.07321 -3.466826,0.695737 -4.3788,2.408747 -0.681084,1.07048 -2.064864,1.877608 -3.315017,1.952098 -0.545762,0.348274 1.652047,0.82578 1.776467,-0.114764 2.546175,-0.9352 1.20712,-2.567754 3.505749,-3.052926 -0.32298,-0.436946 2.414063,-1.406648 3.163179,-0.921984 0.796526,0.488759 0.683448,0.638623 0.174551,0.504927 -0.610116,0.264533 1.211274,0.867702 -0.04387,0.671681 -1.337157,-0.08587 -1.584894,1.169614 -0.273364,1.850587 1.123518,0.851227 1.616649,-0.04461 2.540418,-0.283872 0.982394,0.291388 1.867447,1.050734 2.947388,0.876993 1.127833,4.66e-4 2.253792,-0.58778 2.859618,-1.647925 0.942011,-0.02338 1.768732,0.794469 2.68662,1.041677 1.510172,0.582895 3.251247,0.72517 4.751228,0.05498 0.775089,-0.878613 1.904426,-1.155062 2.771199,-0.259105 0.420072,0.289666 1.663269,1.491223 1.802566,0.716895 -0.938194,-0.601632 -1.8595,-1.396038 -2.974703,-1.535528 -1.201552,-0.266904 -1.883323,1.063092 -2.991041,1.281447 -1.114926,0.32261 -2.294011,-0.179611 -3.31637,-0.651722 -1.152715,-0.31379 -2.110348,-1.220418 -3.206646,-1.513779 -0.681647,0.08473 0.266238,1.658017 -0.923137,1.427311 -0.865275,0.777729 -2.013001,1.228356 -2.930981,0.435866 -0.830549,-0.699158 -2.080812,-1.40658 -2.601699,-0.176387 -0.469188,0.674075 -2.069103,0.0805 -1.876613,-0.825794 0.306362,-0.949082 0.878781,-0.431804 1.445511,-0.702506 -0.723119,-0.493867 -0.233845,-0.717836 0.0075,-0.35404 0.357968,0.620068 0.456093,0.09 0.220642,-0.234395 -0.217501,-0.299664 -0.764466,-0.908248 -1.820394,-0.948479 z m 1.734451,1.866032 c -0.121953,0.422266 0.613515,0.487486 0,0 z m 0.507349,0.06575 c 0.480066,0.187057 0.09004,0.632239 0,0 z"
         sodipodi:nodetypes="scccccccccccccccccccccccccsscccc" />
    </g>
  </g>
</svg>
